<?xml version="1.0" encoding="utf-8"?>
<!-- Generator: Adobe Illustrator 24.1.1, SVG Export Plug-In . SVG Version: 6.00 Build 0)  -->
<svg version="1.1" id="Layer_1" xmlns="http://www.w3.org/2000/svg" xmlns:xlink="http://www.w3.org/1999/xlink" x="0px" y="0px"
	 viewBox="0 0 50 50" enable-background="new 0 0 50 50" xml:space="preserve">
<g>
	<g>
		
			<ellipse transform="matrix(0.2408 -0.9706 0.9706 0.2408 -3.8353 45.097)" fill="#42BCD9" cx="26.91" cy="25" rx="23.09" ry="23.09"/>
		<g>
			<g>
				<path fill="#E99668" d="M11.37,31.04c0,0,3.27-1.34,5.34-2.19c2.07-0.85,1.87-4.53,6.23-6.32c4.37-1.79,1.31-3.52,0.43-3.16
					c-0.89,0.36-4.84,1.99-7.5,3.08c-2.66,1.09-3.88,3.82-6.09,4.72L11.37,31.04z"/>
				<path fill="#E99668" d="M24.46,37.29c3.02-0.63,7.48-1.55,9.22-1.91c1.73-0.36,2.32-1.32,2.13-2.06
					c-0.18-0.74-0.97-1.3-2.78-1.04c-1.81,0.26-9.22,1.91-9.22,1.91L24.46,37.29z"/>
				<path fill="#E99668" d="M25.05,33.89c3.02-0.63,7.48-1.55,9.22-1.91c1.73-0.36,2.32-1.32,2.13-2.06
					c-0.18-0.74-0.97-1.3-2.78-1.04c-1.81,0.26-9.22,1.91-9.22,1.91L25.05,33.89z"/>
				<path fill="#E99668" d="M25.19,30.58c3.02-0.63,7.48-1.55,9.22-1.91c1.73-0.36,2.32-1.32,2.13-2.06
					c-0.18-0.74-0.97-1.3-2.78-1.04c-1.81,0.26-9.22,1.91-9.22,1.91L25.19,30.58z"/>
				<path fill="#E99668" d="M23.74,27.59c3.02-0.63,7.48-1.55,9.22-1.91c1.73-0.36,2.32-1.32,2.13-2.06
					c-0.18-0.74-0.97-1.3-2.78-1.04c-1.81,0.26-9.22,1.91-9.22,1.91L23.74,27.59z"/>
				<path fill="#E99668" d="M25.95,36.98c-3.47,0.72-3.6,0.7-5.18,1.07c-1.58,0.38-4.27-0.76-5.9-0.42c-1.64,0.34-2.8,0.58-2.8,0.58
					L9.79,27.21c0,0,4.66-0.97,7.83-1.62c3.17-0.66,8.88-1.84,11.31-2.35C31.35,22.73,25.95,36.98,25.95,36.98z"/>
				
					<line fill="none" stroke="#C77C58" stroke-width="0.5193" stroke-miterlimit="10" x1="32.96" y1="25.68" x2="25.12" y2="27.31"/>
				
					<line fill="none" stroke="#C77C58" stroke-width="0.5193" stroke-miterlimit="10" x1="33.61" y1="28.83" x2="25.78" y2="30.46"/>
				
					<line fill="none" stroke="#C77C58" stroke-width="0.5193" stroke-miterlimit="10" x1="32.93" y1="32.25" x2="26.36" y2="33.62"/>
				
					<rect x="1.16" y="27.22" transform="matrix(0.9792 -0.2031 0.2031 0.9792 -6.6675 1.9595)" fill="#375F84" width="10.1" height="12.51"/>
			</g>
			<g>
				<rect x="26.4" y="14.64" fill="#DBDEE0" width="7.6" height="2.91"/>
				<path fill="#F3F4F4" d="M35.43,14.64H24.97V10c0-1.2,0.98-2.18,2.18-2.18h6.1c1.2,0,2.18,0.98,2.18,2.18V14.64z"/>
				<g>
					<path fill="#FFFFFF" d="M30.33,25.19h-0.37c-0.07,0-0.13-0.06-0.13-0.13v-6.54c0-0.07,0.06-0.13,0.13-0.13h0.37
						c0.07,0,0.13,0.06,0.13,0.13v6.54C30.46,25.13,30.4,25.19,30.33,25.19z"/>
					<path fill="#FFFFFF" d="M33.69,25.19h-0.37c-0.07,0-0.13-0.06-0.13-0.13v-6.54c0-0.07,0.06-0.13,0.13-0.13h0.37
						c0.07,0,0.13,0.06,0.13,0.13v6.54C33.82,25.13,33.76,25.19,33.69,25.19z"/>
					<path fill="#FFFFFF" d="M26.96,25.19h-0.37c-0.07,0-0.13-0.06-0.13-0.13v-6.54c0-0.07,0.06-0.13,0.13-0.13h0.37
						c0.07,0,0.13,0.06,0.13,0.13v6.54C27.09,25.13,27.03,25.19,26.96,25.19z"/>
					<path fill="#FFFFFF" d="M30.45,30.17h-0.37c-0.07,0-0.13-0.06-0.13-0.13V26.9c0-0.07,0.06-0.13,0.13-0.13h0.37
						c0.07,0,0.13,0.06,0.13,0.13v3.14C30.58,30.11,30.52,30.17,30.45,30.17z"/>
					<path fill="#FFFFFF" d="M33.81,30.17h-0.37c-0.07,0-0.13-0.06-0.13-0.13V26.9c0-0.07,0.06-0.13,0.13-0.13h0.37
						c0.07,0,0.13,0.06,0.13,0.13v3.14C33.94,30.11,33.88,30.17,33.81,30.17z"/>
					<path fill="#FFFFFF" d="M27.08,30.17h-0.37c-0.07,0-0.13-0.06-0.13-0.13V26.9c0-0.07,0.06-0.13,0.13-0.13h0.37
						c0.07,0,0.13,0.06,0.13,0.13v3.14C27.21,30.11,27.15,30.17,27.08,30.17z"/>
				</g>
			</g>
			<g>
				<path fill="#FAB17F" d="M12.25,33.66c0,0,3.45-0.77,5.63-1.25c2.18-0.48,2.61-4.15,7.22-5.17c4.61-1.02,1.9-3.24,0.96-3.04
					c-0.93,0.21-5.11,1.13-7.91,1.75s-4.48,3.1-6.81,3.62L12.25,33.66z"/>
				<path fill="#FAB17F" d="M24.08,42.05c3.09-0.1,7.64-0.25,9.41-0.31c1.77-0.06,2.51-0.9,2.45-1.67c-0.05-0.76-0.73-1.45-2.56-1.5
					c-1.82-0.05-9.41,0.31-9.41,0.31L24.08,42.05z"/>
				<path fill="#FAB17F" d="M25.24,38.8c3.09-0.1,7.64-0.25,9.41-0.31c1.77-0.06,2.51-0.9,2.45-1.67c-0.05-0.76-0.73-1.45-2.56-1.5
					c-1.82-0.05-9.41,0.31-9.41,0.31L25.24,38.8z"/>
				<path fill="#FAB17F" d="M25.94,35.56c3.09-0.1,7.64-0.25,9.41-0.31c1.77-0.06,2.51-0.9,2.45-1.67c-0.05-0.76-0.73-1.45-2.56-1.5
					c-1.82-0.05-9.41,0.31-9.41,0.31L25.94,35.56z"/>
				<path fill="#FAB17F" d="M25.03,32.37c3.09-0.1,7.64-0.25,9.41-0.31c1.77-0.06,2.51-0.9,2.45-1.67c-0.05-0.76-0.73-1.45-2.56-1.5
					c-1.82-0.05-9.41,0.31-9.41,0.31L25.03,32.37z"/>
				<path fill="#FAB17F" d="M25.6,42c-3.54,0.12-3.67,0.07-5.28,0.18c-1.62,0.1-4.08-1.47-5.74-1.42s-2.86,0.1-2.86,0.1l-0.37-11.24
					c0,0,4.75-0.16,7.99-0.27c3.24-0.11,9.07-0.3,11.54-0.39C33.35,28.88,25.6,42,25.6,42z"/>
				
					<line fill="none" stroke="#C77C58" stroke-width="0.5193" stroke-miterlimit="10" x1="34.43" y1="32.06" x2="26.44" y2="32.33"/>
				
					<line fill="none" stroke="#C77C58" stroke-width="0.5193" stroke-miterlimit="10" x1="34.54" y1="35.27" x2="26.54" y2="35.54"/>
				
					<line fill="none" stroke="#C77C58" stroke-width="0.5193" stroke-miterlimit="10" x1="33.29" y1="38.53" x2="26.58" y2="38.75"/>
				
					<rect x="1.7" y="28.93" transform="matrix(0.9994 -0.0333 0.0333 0.9994 -1.1691 0.2448)" fill="#3E7299" width="10.1" height="12.51"/>
			</g>
		</g>
	</g>
</g>
</svg>
