<?xml version="1.0" encoding="utf-8"?>
<!-- Generator: Adobe Illustrator 24.1.1, SVG Export Plug-In . SVG Version: 6.00 Build 0)  -->
<svg version="1.1" id="Layer_1" xmlns="http://www.w3.org/2000/svg" xmlns:xlink="http://www.w3.org/1999/xlink" x="0px" y="0px"
	 viewBox="0 0 50 50" enable-background="new 0 0 50 50" xml:space="preserve">
<g>
	<g>
		
			<ellipse transform="matrix(0.7071 -0.7071 0.7071 0.7071 -10.8256 25.1948)" fill="#42BCD9" cx="25" cy="25.67" rx="24.33" ry="24.33"/>
		<g>
			<g>
				<path fill="#375F84" d="M13.38,20.9c-0.5,6.62-0.13,13.37,0.54,19.27c0.4,3.51,3.37,6.17,6.91,6.17h4.66h4.66
					c3.54,0,6.51-2.65,6.91-6.17c0.67-5.9,1.04-12.65,0.54-19.27c-0.21-2.73-2.5-4.84-5.24-4.84h-6.87h-6.87
					C15.88,16.06,13.59,18.17,13.38,20.9z"/>
				<rect x="19.6" y="12.05" fill="#BEE1F7" width="11.78" height="4"/>
				<rect x="22.97" y="7.37" fill="#97C5E1" width="5.03" height="4.68"/>
				<path fill="#A3CAE2" d="M11.73,13.49c7.84,0,9.72-5.86,9.72-5.86l-2.9-0.55c0,0-1.88,4.58-6.82,5.33V13.49z"/>
				<path fill="#BEE1F7" d="M16.27,4.49c4.8-2.03,11.39-0.4,15.03,1.03c1.81,0.71,2.86,2.6,2.5,4.51l0,0l-17.53-3.3V4.49z"/>
				<g>
					<polygon fill="#83D4F1" points="14.97,6.7 2.06,11.01 2.06,0 14.97,4.63 					"/>
				</g>
				<g>
					
						<ellipse transform="matrix(0.3859 -0.9225 0.9225 0.3859 -14.89 43.8412)" fill="#FFFFFF" cx="25.49" cy="33.11" rx="7.58" ry="7.58"/>
					<g>
						<path fill="#C2C6C9" d="M30.11,32.17h-9.24c-0.1,0-0.18-0.08-0.18-0.18l0,0c0-0.1,0.08-0.18,0.18-0.18h9.24
							c0.1,0,0.18,0.08,0.18,0.18v0C30.29,32.09,30.21,32.17,30.11,32.17z"/>
						<path fill="#C2C6C9" d="M30.11,34.4h-9.24c-0.1,0-0.18-0.08-0.18-0.18l0,0c0-0.1,0.08-0.18,0.18-0.18h9.24
							c0.1,0,0.18,0.08,0.18,0.18v0C30.29,34.32,30.21,34.4,30.11,34.4z"/>
					</g>
				</g>
			</g>
			<rect x="15.37" y="4.01" fill="#E2F4FD" width="0.9" height="3.16"/>
		</g>
	</g>
</g>
</svg>
