<?xml version="1.0" encoding="utf-8"?>
<!-- Generator: Adobe Illustrator 24.1.1, SVG Export Plug-In . SVG Version: 6.00 Build 0)  -->
<svg version="1.1" id="Layer_1" xmlns="http://www.w3.org/2000/svg" xmlns:xlink="http://www.w3.org/1999/xlink" x="0px" y="0px"
	 viewBox="0 0 50 50" enable-background="new 0 0 50 50" xml:space="preserve">
<g>
	<g>
		<circle fill="#64CCEA" cx="25" cy="25" r="18.51"/>
		<g>
			<g>
				<rect x="17.55" y="31.2" fill="#FFFFFF" width="14.51" height="1.31"/>
				<polygon fill="#FFFFFF" points="15.98,31.86 19.48,34.26 19.48,29.46 				"/>
				<polygon fill="#FFFFFF" points="33.62,31.86 30.13,29.46 30.13,34.26 				"/>
			</g>
			<g>
				<path fill="#FAB17F" d="M44.69,31.24c0,0-0.56-4.47-0.2-5.61c0.36-1.14,6.82-7.17,4.22-11.42c-2.6-4.26-11.16-4.57-13.55-0.52
					c-2.39,4.05-0.62,5.2-1.07,6.17c-0.6,1.28-0.81,1.66-1.16,2.53c-0.33,0.84,0.28,0.91,0.75,0.96c0.47,0.05,0.64,0.04,0.7,0.47
					c0.17,1.07,0.16,1.79,0.29,2.44c0.3,1.46,2.71,1.16,3.41,1.17c1.48,0.02,1.08,3.82,1.08,3.82H44.69z"/>
				<path fill="#6B3E19" d="M42.24,10.19c7.45,0.06,9.03,6.25,6.74,9.6c-3.43,5.01-4.55,6.76-4.55,6.76l0,0
					c-0.95,0-1.78-0.64-2.02-1.56l-1.74-6.63L42.24,10.19z"/>
				<path fill="#3A2110" d="M36.08,19.34c0,0.41-0.24,0.74-0.54,0.74c-0.3,0-0.54-0.33-0.54-0.74s0.24-0.74,0.54-0.74
					C35.83,18.6,36.08,18.93,36.08,19.34z"/>
				<path fill="#6B3E19" d="M36.08,17.59H35c-0.07,0-0.14-0.06-0.14-0.14v0c0-0.07,0.06-0.14,0.14-0.14h1.08
					c0.07,0,0.14,0.06,0.14,0.14l0,0C36.21,17.53,36.15,17.59,36.08,17.59z"/>
				<path fill="#6B3E19" d="M45.64,10.31c-3.17-2.74-5.47-1.77-6.95-0.06c-1.48,1.7-2.07,0.85-4.24,1.05
					c-1.7,0.16-2.32,1.72-1.66,3.28c0.54,1.28,1.83,2.35,4.23,1.79c2.4-0.55,2.81,1.83,6.3,0.79C46.81,16.13,47.72,12.1,45.64,10.31
					z"/>
				<path fill="#FAB17F" d="M43.32,20.97c-0.13,0.9-0.79,1.55-1.47,1.46c-0.68-0.1-1.13-0.91-1-1.81c0.13-0.9,0.79-1.55,1.47-1.46
					C43,19.25,43.44,20.06,43.32,20.97z"/>
				<path fill="#6B3E19" d="M37.73,12.39c4.55,0,4.82,6.1,3.38,8.02c-0.71,0.95-0.83,0.86-0.83-0.76c0-1.93-1.03-5.3-3.24-5.3
					C34.84,14.36,37.73,12.39,37.73,12.39z"/>
				<polygon fill="#E5E5E3" points="44.54,29.7 39.19,30.5 38.78,33.58 44.69,31.01 				"/>
				<path fill="#853A43" d="M44.69,31.01L44.69,31.01l-5.91,2.58l-4.6,8.79h14.36v-0.12C48.54,38.27,47.2,34.37,44.69,31.01z"/>
			</g>
			<g>
				<path fill="#FAB17F" d="M4.82,31.24c0,0,0.56-4.47,0.2-5.61C4.65,24.48-1.8,18.46,0.8,14.2c2.6-4.26,11.16-4.57,13.55-0.52
					c2.39,4.05,0.62,5.2,1.07,6.17c0.6,1.28,0.81,1.66,1.16,2.53c0.33,0.84-0.28,0.91-0.75,0.96c-0.47,0.05-0.64,0.04-0.7,0.47
					c-0.17,1.07-0.16,1.79-0.29,2.44c-0.3,1.46-2.71,1.16-3.41,1.17c-1.48,0.02-1.08,3.82-1.08,3.82H4.82z"/>
				<path fill="#241C17" d="M7.27,10.19c-7.45,0.06-8.28,6-6.3,9.9c2.74,5.41,4.11,6.47,4.11,6.47h0c0.95,0,1.78-0.64,2.02-1.56
					l1.74-6.63L7.27,10.19z"/>
				<path fill="#3A2110" d="M13.43,19.34c0,0.41,0.24,0.74,0.54,0.74s0.54-0.33,0.54-0.74s-0.24-0.74-0.54-0.74
					S13.43,18.93,13.43,19.34z"/>
				<path fill="#6B3E19" d="M13.43,17.59h1.08c0.07,0,0.14-0.06,0.14-0.14l0,0c0-0.07-0.06-0.14-0.14-0.14h-1.08
					c-0.07,0-0.14,0.06-0.14,0.14v0C13.3,17.53,13.36,17.59,13.43,17.59z"/>
				<path fill="#FAB17F" d="M6.19,20.97c0.13,0.9,0.79,1.55,1.47,1.46c0.68-0.1,1.13-0.91,1-1.81c-0.13-0.9-0.79-1.55-1.47-1.46
					C6.51,19.25,6.06,20.06,6.19,20.97z"/>
				<path fill="#241C17" d="M11.03,13.25c-3.73,0-3.96,5-2.77,6.59c0.58,0.78,0.68,0.71,0.68-0.62c0-1.58,0.85-4.35,2.66-4.35
					C13.41,14.87,11.03,13.25,11.03,13.25z"/>
				<polygon fill="#FAB17F" points="4.97,29.7 10.31,30.5 10.73,33.58 4.82,31.01 				"/>
				<path fill="#49363A" d="M4.82,31.01L4.82,31.01l5.91,2.58l4.6,8.79H0.97v-0.12C0.97,38.27,2.3,34.37,4.82,31.01z"/>
				<path fill="#241C17" d="M15.2,15.39c-3.6-0.53-6.25,3.83-6.25,3.83s-6.36-9.01-1.68-9.03C13.9,10.17,15.2,15.39,15.2,15.39z"/>
				<path fill="#241C17" d="M15.94,14.56c1.11-4.17-4.06-4.73-6.58-3c-2.52,1.72-4.22,1-5.25,3c-1.02,2.01,3.1,4.22,6.58,3.21
					C14.18,16.76,15.63,15.74,15.94,14.56z"/>
			</g>
		</g>
	</g>
</g>
</svg>
