<?xml version="1.0" encoding="utf-8"?>
<!-- Generator: Adobe Illustrator 24.1.1, SVG Export Plug-In . SVG Version: 6.00 Build 0)  -->
<svg version="1.1" id="Layer_1" xmlns="http://www.w3.org/2000/svg" xmlns:xlink="http://www.w3.org/1999/xlink" x="0px" y="0px"
	 viewBox="0 0 50 50" enable-background="new 0 0 50 50" xml:space="preserve">
<g>
	<g>
		
			<ellipse transform="matrix(0.2342 -0.9722 0.9722 0.2342 -7.5998 45.3716)" fill="#42BCD9" cx="25" cy="27.51" rx="22.49" ry="22.49"/>
		<g>
			<path fill="#FFFFFF" d="M32.73,9.23H25h-7.73c-8.37,13.52,0,35.79,0,35.79H25h7.73C32.73,45.02,41.09,22.75,32.73,9.23z"/>
			<path fill="#B7E4F4" d="M14.85,23.15c-0.41,10.01,3.28,19.83,3.28,19.83H25h6.87c0,0,3.69-9.82,3.28-19.83H14.85z"/>
			<rect x="19.83" y="6.61" fill="#444749" width="10.34" height="2.62"/>
			<rect x="22.46" y="4.69" fill="#343638" width="5.08" height="1.91"/>
			<rect x="21.39" y="0" fill="#57646C" width="7.22" height="4.69"/>
			<rect x="16.15" y="1.03" fill="#343638" width="5.37" height="1.31"/>
			<rect x="24.38" y="9.23" fill="#343638" width="1.25" height="32.12"/>
		</g>
	</g>
</g>
</svg>
