<?xml version="1.0" encoding="utf-8"?>
<!-- Generator: Adobe Illustrator 24.1.1, SVG Export Plug-In . SVG Version: 6.00 Build 0)  -->
<svg version="1.1" id="Layer_1" xmlns="http://www.w3.org/2000/svg" xmlns:xlink="http://www.w3.org/1999/xlink" x="0px" y="0px"
	 viewBox="0 0 50 50" enable-background="new 0 0 50 50" xml:space="preserve">
<g>
	<g>
		
			<ellipse transform="matrix(0.1624 -0.9867 0.9867 0.1624 -3.7288 45.6073)" fill="#42BCD9" cx="25" cy="25" rx="19.72" ry="19.72"/>
		<g>
			<g>
				<path fill="#FAB17F" d="M17.5,24.37c0,0,2.57,1.76,4.19,2.87c1.62,1.11,4.24-0.82,7.67,1.54c3.43,2.35,3.23-0.73,2.53-1.21
					c-0.7-0.48-3.8-2.61-5.89-4.04c-2.09-1.43-4.69-1.01-6.42-2.2L17.5,24.37z"/>
				<g>
					<path fill="#E99668" d="M31.87,35.89c-1.92,1.92-4.76,4.76-5.86,5.87c-1.1,1.1-2.09,1.07-2.55,0.58
						c-0.46-0.49-0.49-1.35,0.58-2.55s5.86-5.86,5.86-5.86L31.87,35.89z"/>
					<path fill="#E99668" d="M29.08,34.67c-1.92,1.92-4.76,4.76-5.86,5.87c-1.1,1.1-2.09,1.07-2.55,0.58
						c-0.46-0.49-0.49-1.35,0.58-2.55c1.07-1.2,5.86-5.86,5.86-5.86L29.08,34.67z"/>
					<path fill="#E99668" d="M26.58,33.18c-1.92,1.92-4.76,4.76-5.86,5.87c-1.1,1.1-2.09,1.07-2.55,0.58
						c-0.46-0.49-0.49-1.35,0.58-2.55c1.07-1.2,5.87-5.86,5.87-5.86L26.58,33.18z"/>
					<path fill="#E99668" d="M25.08,30.67c-1.92,1.92-4.76,4.76-5.86,5.86c-1.1,1.1-2.09,1.07-2.55,0.58
						c-0.46-0.49-0.49-1.35,0.58-2.55c1.07-1.2,5.87-5.87,5.87-5.87L25.08,30.67z"/>
					<path fill="#E99668" d="M30.93,36.83c2.21-2.21,2.25-2.32,3.29-3.29c1.04-0.98,1.51-3.51,2.55-4.55
						c1.04-1.04,1.78-1.78,1.78-1.78l-7.01-7.01c0,0-2.96,2.96-4.98,4.98c-2.02,2.02-5.65,5.65-7.2,7.2
						C17.82,33.92,30.93,36.83,30.93,36.83z"/>
					
						<line fill="none" stroke="#C77C58" stroke-width="0.4434" stroke-miterlimit="10" x1="19.21" y1="36.53" x2="24.2" y2="31.55"/>
					
						<line fill="none" stroke="#C77C58" stroke-width="0.4434" stroke-miterlimit="10" x1="21.22" y1="38.54" x2="26.2" y2="33.55"/>
					
						<line fill="none" stroke="#C77C58" stroke-width="0.4434" stroke-miterlimit="10" x1="24.06" y1="39.69" x2="28.25" y2="35.51"/>
				</g>
				<g>
					<g>
						<path fill="#FAB17F" d="M18.11,35.49c1.92,1.92,4.76,4.76,5.87,5.86c1.1,1.1,2.09,1.07,2.55,0.58
							c0.46-0.49,0.49-1.35-0.58-2.55c-1.07-1.2-5.86-5.87-5.86-5.87L18.11,35.49z"/>
						<path fill="#FAB17F" d="M20.9,34.28c1.92,1.92,4.76,4.76,5.86,5.87c1.1,1.1,2.09,1.07,2.55,0.58
							c0.46-0.49,0.49-1.35-0.58-2.55c-1.07-1.2-5.87-5.87-5.87-5.87L20.9,34.28z"/>
						<path fill="#FAB17F" d="M23.41,32.78c1.92,1.92,4.76,4.76,5.87,5.87c1.1,1.1,2.09,1.07,2.55,0.58
							c0.46-0.49,0.49-1.35-0.58-2.55c-1.07-1.2-5.86-5.87-5.86-5.87L23.41,32.78z"/>
						<path fill="#FAB17F" d="M24.91,30.27c1.92,1.92,4.76,4.76,5.87,5.87c1.1,1.1,2.09,1.07,2.55,0.58
							c0.46-0.49,0.49-1.35-0.58-2.55c-1.07-1.2-5.86-5.86-5.86-5.86L24.91,30.27z"/>
						<path fill="#FAB17F" d="M19.06,36.44c-2.21-2.21-2.25-2.32-3.29-3.29c-1.04-0.98-1.51-3.51-2.55-4.55
							c-1.04-1.04-1.78-1.78-1.78-1.78l7.01-7.01c0,0,2.96,2.96,4.98,4.98c2.02,2.02,5.65,5.65,7.2,7.2
							C32.17,33.53,19.06,36.44,19.06,36.44z"/>
						
							<line fill="none" stroke="#C77C58" stroke-width="0.4434" stroke-miterlimit="10" x1="30.77" y1="36.14" x2="25.79" y2="31.15"/>
						
							<line fill="none" stroke="#C77C58" stroke-width="0.4434" stroke-miterlimit="10" x1="28.77" y1="38.14" x2="23.79" y2="33.15"/>
						
							<line fill="none" stroke="#C77C58" stroke-width="0.4434" stroke-miterlimit="10" x1="25.92" y1="39.3" x2="21.74" y2="35.11"/>
					</g>
					
						<rect x="1.55" y="12.16" transform="matrix(0.7071 0.7071 -0.7071 0.7071 15.3013 -1.5931)" fill="#375F84" width="16.06" height="11.02"/>
				</g>
				<path fill="#E99668" d="M33.6,23.22c0,0-2.57,1.76-4.19,2.87c-1.62,1.11-4.24-0.82-7.67,1.54c-3.43,2.35-3.23-0.73-2.53-1.21
					c0.7-0.48,3.8-2.61,5.89-4.04c2.09-1.43,4.69-1.01,6.42-2.2L33.6,23.22z"/>
				
					<rect x="32.38" y="12.55" transform="matrix(-0.7071 0.7071 -0.7071 -0.7071 81.773 2.2537)" fill="#375F84" width="16.07" height="11.02"/>
				<g>
					<path fill="#E99668" d="M23.91,39.93c-1.07,1.2-1.04,2.06-0.58,2.55c0.46,0.49,1.45,0.53,2.55-0.58l0.84-0.84
						c0.55-0.55,0.55-1.44,0-1.98l0,0c-0.55-0.55-1.45-0.55-1.99,0.01C24.34,39.48,23.98,39.85,23.91,39.93z"/>
					<path fill="#E99668" d="M21.12,38.71c-1.07,1.2-1.04,2.06-0.58,2.55c0.46,0.49,1.45,0.53,2.55-0.58l1.62-1.62
						c0.55-0.55,0.55-1.44,0-1.98l-0.01-0.01c-0.55-0.55-1.44-0.55-1.99,0.01C22.03,37.76,21.29,38.52,21.12,38.71z"/>
					<path fill="#E99668" d="M18.61,37.13c-1.07,1.2-1.04,2.06-0.58,2.55c0.46,0.49,1.45,0.53,2.55-0.58l2.08-2.08
						c0.55-0.55,0.55-1.44,0-1.98l-0.02-0.02c-0.55-0.55-1.44-0.55-1.99,0C19.82,35.88,18.84,36.86,18.61,37.13z"/>
					<path fill="#E99668" d="M17.01,34.62c-1.07,1.2-1.04,2.06-0.58,2.55c0.46,0.49,1.45,0.53,2.55-0.58l1.63-1.63
						c0.55-0.55,0.55-1.44,0-1.98l-0.01-0.01c-0.55-0.55-1.44-0.55-1.99,0.01C17.93,33.66,17.18,34.42,17.01,34.62z"/>
				</g>
			</g>
			<g>
				
					<rect x="24.12" y="7.44" transform="matrix(0.7071 0.7071 -0.7071 0.7071 17.16 -13.597)" fill="#D31E46" width="1.74" height="12.96"/>
				
					<rect x="24.12" y="7.44" transform="matrix(0.7071 -0.7071 0.7071 0.7071 -2.5197 21.7489)" fill="#D31E46" width="1.74" height="12.96"/>
			</g>
		</g>
	</g>
</g>
</svg>
