<?xml version="1.0" encoding="utf-8"?>
<!-- Generator: Adobe Illustrator 24.1.1, SVG Export Plug-In . SVG Version: 6.00 Build 0)  -->
<svg version="1.1" id="Layer_1" xmlns="http://www.w3.org/2000/svg" xmlns:xlink="http://www.w3.org/1999/xlink" x="0px" y="0px"
	 viewBox="0 0 50 50" enable-background="new 0 0 50 50" xml:space="preserve">
<g>
	<g>
		<circle fill="#64CCEA" cx="25" cy="25" r="18.94"/>
		<g>
			<g>
				<path fill="#B07750" d="M30.92,18.17c0-0.01,0-0.02,0-0.03v-1.99c0-4.26-2.65-7.72-5.92-7.72l0,0c-3.27,0-5.92,3.45-5.92,7.72
					v1.99c0,0.01,0,0.02,0,0.03H30.92z"/>
				<path fill="#1E2B30" d="M22.04,26.49l-4.29,1.78c-1.36,0.56-2.39,1.7-2.81,3.11l-0.03,3.03H25v-6.67v-0.51L22.04,26.49z"/>
				<rect x="23.25" y="23.72" fill="#ED9F75" width="3.5" height="3.5"/>
				<path fill="#FAB17F" d="M31.95,18.58c0,0.87-0.71,1.58-1.58,1.58c-0.87,0-1.58-0.71-1.58-1.58c0-0.87,0.71-1.58,1.58-1.58
					C31.24,17,31.95,17.71,31.95,18.58z"/>
				<path fill="#FAB17F" d="M25,10.63L25,10.63c-2.97,0-5.37,2.89-5.37,6.45v1.66c0,2.63,0.66,5.92,5.37,5.92
					c4.72,0,5.37-3.29,5.37-5.92v-1.66C30.37,13.52,27.97,10.63,25,10.63L25,10.63z"/>
				<g>
					<g>
						<path fill="#3A2110" d="M23.21,17.25c0,0.44-0.26,0.8-0.58,0.8c-0.32,0-0.58-0.36-0.58-0.8c0-0.44,0.26-0.8,0.58-0.8
							C22.95,16.44,23.21,16.8,23.21,17.25z"/>
						<path fill="#3A2110" d="M28.18,17.25c0,0.44-0.26,0.8-0.58,0.8c-0.32,0-0.58-0.36-0.58-0.8c0-0.44,0.26-0.8,0.58-0.8
							C27.91,16.44,28.18,16.8,28.18,17.25z"/>
					</g>
					<path fill="#6B3E19" d="M28.25,15.35h-1.31c-0.04,0-0.07-0.03-0.07-0.07v-0.14c0-0.04,0.03-0.07,0.07-0.07h1.31
						c0.04,0,0.07,0.03,0.07,0.07v0.14C28.32,15.31,28.29,15.35,28.25,15.35z"/>
					<path fill="#6B3E19" d="M23.28,15.35h-1.31c-0.04,0-0.07-0.03-0.07-0.07v-0.14c0-0.04,0.03-0.07,0.07-0.07h1.31
						c0.04,0,0.07,0.03,0.07,0.07v0.14C23.35,15.31,23.32,15.35,23.28,15.35z"/>
				</g>
				<path fill="#FAB17F" d="M21.76,18.58c0,0.87-0.71,1.58-1.58,1.58c-0.87,0-1.58-0.71-1.58-1.58c0-0.87,0.71-1.58,1.58-1.58
					C21.06,17,21.76,17.71,21.76,18.58z"/>
				<path fill="none" stroke="#DA8F65" stroke-width="0.7874" stroke-linecap="round" stroke-miterlimit="10" d="M24.6,16.19
					c0.66,1.64-0.15,3.07-0.37,3.51c-0.22,0.44,0.29,0.46,0.91,0.46"/>
				<polygon fill="#E5E5E3" points="23.25,25.72 25,27.22 21.2,29.16 22.04,26.49 				"/>
				<path fill="#1E2B30" d="M27.96,26.49l4.29,1.78c1.36,0.56,2.39,1.7,2.81,3.11l0.03,3.03H25v-6.67v-0.51L27.96,26.49z"/>
				<polygon fill="#E5E5E3" points="26.75,25.72 25,27.22 28.8,29.16 27.96,26.49 				"/>
				<path fill="#ED9F75" d="M23.61,22.36c0.27,0.49,0.86,0.84,1.54,0.84c0.68,0,1.26-0.34,1.54-0.84H23.61z"/>
				<path fill="#B07750" d="M32.22,11.96c0,1.55-2.61,2.81-5.82,2.81c-3.22,0-5.82-1.26-5.82-2.81c0-1.55,2.61-2.81,5.82-2.81
					C29.61,9.15,32.22,10.41,32.22,11.96z"/>
			</g>
			<g>
				<path fill="#441218" d="M7.14,34.4l-4.29,1.78c-1.36,0.56-2.39,1.7-2.81,3.11L0,42.32h10.1v-5.49L7.14,34.4z"/>
				<polygon fill="#ED9F75" points="11.85,31.63 8.35,31.63 8.35,35.13 10.1,36.82 11.85,35.13 				"/>
				<path fill="#FAB17F" d="M17.05,26.49c0,0.87-0.71,1.58-1.58,1.58c-0.87,0-1.58-0.71-1.58-1.58c0-0.87,0.71-1.58,1.58-1.58
					C16.34,24.91,17.05,25.62,17.05,26.49z"/>
				<path fill="#FAB17F" d="M10.1,18.54L10.1,18.54c-2.97,0-5.37,2.89-5.37,6.45v1.66c0,2.63,0.66,5.92,5.37,5.92
					s5.37-3.29,5.37-5.92v-1.66C15.47,21.43,13.07,18.54,10.1,18.54L10.1,18.54z"/>
				<g>
					<g>
						<path fill="#3A2110" d="M8.3,25.16c0,0.44-0.26,0.8-0.58,0.8c-0.32,0-0.58-0.36-0.58-0.8c0-0.44,0.26-0.8,0.58-0.8
							C8.04,24.35,8.3,24.71,8.3,25.16z"/>
						<path fill="#3A2110" d="M13.27,25.16c0,0.44-0.26,0.8-0.58,0.8c-0.32,0-0.58-0.36-0.58-0.8c0-0.44,0.26-0.8,0.58-0.8
							C13.01,24.35,13.27,24.71,13.27,25.16z"/>
					</g>
					<path fill="#6B3E19" d="M13.34,23.26h-1.31c-0.04,0-0.07-0.03-0.07-0.07v-0.14c0-0.04,0.03-0.07,0.07-0.07h1.31
						c0.04,0,0.07,0.03,0.07,0.07v0.14C13.42,23.22,13.39,23.26,13.34,23.26z"/>
					<path fill="#6B3E19" d="M8.38,23.26H7.06c-0.04,0-0.07-0.03-0.07-0.07v-0.14c0-0.04,0.03-0.07,0.07-0.07h1.31
						c0.04,0,0.07,0.03,0.07,0.07v0.14C8.45,23.22,8.42,23.26,8.38,23.26z"/>
				</g>
				<path fill="#23140D" d="M12.54,17.45c4.82,0,5.12,6.47,3.58,8.51c-0.75,1.01-0.88,0.92-0.88-0.8c0-2.05-0.66-5.32-3.77-6.4
					C9.26,17.99,12.54,17.45,12.54,17.45z"/>
				<path fill="#FAB17F" d="M6.86,26.49c0,0.87-0.71,1.58-1.58,1.58c-0.87,0-1.58-0.71-1.58-1.58c0-0.87,0.71-1.58,1.58-1.58
					C6.15,24.91,6.86,25.62,6.86,26.49z"/>
				<path fill="none" stroke="#DA8F65" stroke-width="0.7874" stroke-linecap="round" stroke-miterlimit="10" d="M9.69,24.1
					c0.66,1.64-0.15,3.07-0.37,3.51s0.29,0.46,0.91,0.46"/>
				<polygon fill="#E5E5E3" points="8.35,33.63 10.1,36.82 6.29,37.07 7.14,34.4 				"/>
				<path fill="#441218" d="M13.06,34.4l4.29,1.78c1.36,0.56,2.39,1.7,2.81,3.11l0.03,3.03H10.1v-5.49L13.06,34.4z"/>
				<polygon fill="#E5E5E3" points="11.85,33.63 10.1,36.82 13.9,37.07 13.06,34.4 				"/>
				<path fill="#23140D" d="M8.09,17.45c-4.82,0-5.12,6.47-3.58,8.51c0.75,1.01,0.88,0.92,0.88-0.8c0-2.05,0.29-5.77,3.65-6.49
					C11.32,18.18,8.09,17.45,8.09,17.45z"/>
				<path fill="#23140D" d="M13.45,16.32c-1.05-0.74-2.19-1.09-3.04-1.01c-0.46-0.2-0.99-0.36-1.56-0.44
					c-1.78-0.26-3.36,0.24-3.79,1.15c-1.56,0.35-2.64,1.12-2.79,2.13c-0.25,1.72,2.27,3.51,5.63,4c2.86,0.42,5.41-0.24,6.26-1.51
					c0.48-0.05,0.87-0.23,1.1-0.56C15.9,19.17,15.09,17.49,13.45,16.32z"/>
				<path fill="#ED9F75" d="M8.31,30.01c0.27,0.49,0.86,0.84,1.54,0.84c0.68,0,1.26-0.34,1.54-0.84H8.31z"/>
			</g>
			<g>
				<g>
					<g>
						<path fill="#853A43" d="M36.94,34.44l-4.29,1.78c-1.36,0.56-2.39,1.7-2.81,3.11l-0.03,3.03h10.1v-6.67v-0.51L36.94,34.44z"/>
						<rect x="38.15" y="31.66" fill="#ED9F75" width="3.5" height="3.5"/>
						<circle fill="#FAB17F" cx="45.28" cy="26.53" r="1.58"/>
						<path fill="#FAB17F" d="M39.9,18.58L39.9,18.58c-2.97,0-5.37,2.89-5.37,6.45v1.66c0,2.63,0.66,5.92,5.37,5.92
							s5.37-3.29,5.37-5.92v-1.66C45.28,21.47,42.87,18.58,39.9,18.58L39.9,18.58z"/>
						<g>
							<g>
								<path fill="#3A2110" d="M38.11,25.2c0,0.44-0.26,0.8-0.58,0.8c-0.32,0-0.58-0.36-0.58-0.8c0-0.44,0.26-0.8,0.58-0.8
									C37.85,24.39,38.11,24.75,38.11,25.2z"/>
								<path fill="#3A2110" d="M43.08,25.2c0,0.44-0.26,0.8-0.58,0.8c-0.32,0-0.58-0.36-0.58-0.8c0-0.44,0.26-0.8,0.58-0.8
									C42.82,24.39,43.08,24.75,43.08,25.2z"/>
							</g>
							<path fill="#6B3E19" d="M43.15,23.3h-1.31c-0.04,0-0.07-0.03-0.07-0.07v-0.14c0-0.04,0.03-0.07,0.07-0.07h1.31
								c0.04,0,0.07,0.03,0.07,0.07v0.14C43.22,23.26,43.19,23.3,43.15,23.3z"/>
							<path fill="#6B3E19" d="M38.18,23.3h-1.31c-0.04,0-0.07-0.03-0.07-0.07v-0.14c0-0.04,0.03-0.07,0.07-0.07h1.31
								c0.04,0,0.07,0.03,0.07,0.07v0.14C38.26,23.26,38.22,23.3,38.18,23.3z"/>
						</g>
						<path fill="#6B3E19" d="M36.64,18.99c1.51,3.22,3.63,3.26,5.36,2.46c1.73-0.81,2.04,1.41,3.48,1.28
							c1.45-0.13,1.68-1.04,1.95-2.19c0.27-1.14,0.03-2.86-2.02-3.26c-2.05-0.4-1.54-2.39-4.6-2.79
							C37.75,14.08,35.65,16.88,36.64,18.99z"/>
						<path fill="#6B3E19" d="M37.89,17.49c-4.82,0-5.12,6.47-3.58,8.51c0.75,1.01,0.88,0.91,0.88-0.8c0-2.05,1.1-5.63,3.43-5.63
							C40.96,19.57,37.89,17.49,37.89,17.49z"/>
						<path fill="#6B3E19" d="M42.35,17.49c4.82,0,5.12,6.47,3.58,8.51c-0.75,1.01-0.88,0.91-0.88-0.8c0-2.05-1.1-5.63-3.43-5.63
							C39.28,19.57,42.35,17.49,42.35,17.49z"/>
						<circle fill="#FAB17F" cx="35.09" cy="26.53" r="1.58"/>
						<path fill="none" stroke="#DA8F65" stroke-width="0.7874" stroke-linecap="round" stroke-miterlimit="10" d="M39.5,24.14
							c0.66,1.64-0.15,3.07-0.37,3.51c-0.22,0.44,0.29,0.46,0.91,0.46"/>
						<polygon fill="#E5E5E3" points="38.15,33.67 39.9,35.17 36.1,37.11 36.94,34.44 						"/>
						<path fill="#853A43" d="M42.86,34.44l4.29,1.78c1.36,0.56,2.39,1.7,2.81,3.11L50,42.35H39.9v-6.67v-0.51L42.86,34.44z"/>
						<polygon fill="#E5E5E3" points="41.65,33.67 39.9,35.17 43.71,37.11 42.86,34.44 						"/>
					</g>
				</g>
				<path fill="#ED9F75" d="M38.51,30.31c0.27,0.49,0.86,0.84,1.54,0.84c0.68,0,1.26-0.34,1.54-0.84H38.51z"/>
			</g>
		</g>
	</g>
	<g>
		
			<rect x="24.14" y="18.63" transform="matrix(0.7071 0.7071 -0.7071 0.7071 24.9994 -10.3553)" fill="#D31E46" width="1.71" height="12.74"/>
		
			<rect x="24.14" y="18.63" transform="matrix(0.7071 -0.7071 0.7071 0.7071 -10.3553 24.9994)" fill="#D31E46" width="1.71" height="12.74"/>
	</g>
</g>
</svg>
