<?xml version="1.0" encoding="utf-8"?>
<!-- Generator: Adobe Illustrator 24.1.1, SVG Export Plug-In . SVG Version: 6.00 Build 0)  -->
<svg version="1.1" id="Layer_1" xmlns="http://www.w3.org/2000/svg" xmlns:xlink="http://www.w3.org/1999/xlink" x="0px" y="0px"
	 viewBox="0 0 50 50" enable-background="new 0 0 50 50" xml:space="preserve">
<g>
	<ellipse fill="#F0EFEF" cx="25" cy="25.7" rx="24.29" ry="24.29"/>
</g>
<g>
	<g>
		<g>
			<g>
				<path fill="#DA866C" d="M19.46,31.52c-0.26,1.49,1.45,11.4,2.22,12.71c0.77,1.31,5.2,2.16,8.26,0.41
					c0.89-0.51,0.94-12.95,0.94-12.95L19.46,31.52z"/>
				<g opacity="0.5">
				</g>
			</g>
			<path fill="#DA866C" d="M16.45,6.6c-3.45,3-5.13,7.93-3.55,17.32s6.38,14.27,15.24,13.59c8.03-0.61,9.81-5.01,10.49-7.48
				c0.68-2.48,0.02-4.94,0-7.26c-0.01-1.93,0.99-8.6-1.93-14.02C33.29,2.42,21.77,1.97,16.45,6.6z"/>
			
				<linearGradient id="SVGID_1_" gradientUnits="userSpaceOnUse" x1="26.5189" y1="26.4497" x2="23.5243" y2="42.5912" gradientTransform="matrix(1 0 0 -1 0 50)">
				<stop  offset="0" style="stop-color:#F45959;stop-opacity:0"/>
				<stop  offset="1" style="stop-color:#F64563"/>
			</linearGradient>
			<path opacity="0.8" fill="url(#SVGID_1_)" enable-background="new    " d="M16.45,6.6c-3.45,3-5.13,7.93-3.55,17.32
				s6.38,14.27,15.24,13.59c8.03-0.61,9.81-5.01,10.49-7.48c0.68-2.48,0.02-4.94,0-7.26c-0.01-1.93,0.99-8.6-1.93-14.02
				C33.29,2.42,21.77,1.97,16.45,6.6z"/>
			<g>
				<path fill="#2E333B" d="M14.13,25.32c2.94,0.56,5.16-1.74,5.08-4.39c-0.08-2.66-2.63-4.59-1.09-7.03s3.98-0.81,5.97-1.1
					c2.13-0.31,2.29-1.66,4.3-1.97c2.3-0.36,4.74,3.05,8.89,2.71c4.38-0.36,5.98-5.17,4.54-9.31c-1.15-3.31-5.03-4.47-8.03-4.17
					s-5.02,2.25-7.52,2.68c-1.69,0.29-5.22-0.71-7.43-0.08c-2.22,0.64-3.6,2.14-3.6,2.14s0.73-2.5-0.09-2.55
					c-0.83-0.06-0.49,2.68-0.49,2.68s-2.27-0.45-2.2,0.26c0.08,0.71,1.97,0.39,1.97,0.39s-5.58,1.78-6.34,6.48
					S10.61,24.65,14.13,25.32z"/>
				<path fill="#2E333B" d="M7.33,14.81c-0.06-1.79,0.39-3.63,1.42-5.11c1.14-1.62,2.91-2.51,4.63-3.37c0,0,0-0.01,0,0
					c-3.46,1.4-6.1,3.76-6.3,7.72c-0.21,4.28,2.42,7.83,5.51,10.48c0.04,0.04,0.1-0.02,0.06-0.06C9.87,21.99,7.47,18.67,7.33,14.81z
					"/>
				<g>
					<path fill="#2E333B" d="M40.09,1.38c-0.07-0.05-0.13-0.1-0.2-0.14C39.96,1.28,40.03,1.33,40.09,1.38z"/>
					<path fill="#2E333B" d="M39.89,1.23c-0.01-0.01-0.02-0.01-0.03-0.02C39.87,1.22,39.88,1.23,39.89,1.23z"/>
					<path fill="#2E333B" d="M33.99,0.41c-0.01,0-0.01,0.02,0,0.02c1.62-0.44,3.39-0.24,4.96,0.33c0.32,0.12,0.62,0.27,0.91,0.46
						C38.22,0.1,36.12-0.23,33.99,0.41z"/>
					<path fill="#2E333B" d="M42.71,5.35c-0.44-1.67-1.35-3-2.53-3.91c1.09,0.85,1.86,2.17,2.3,3.48c1.19,3.6-0.89,8.05-4.92,7.67
						c-0.05,0-0.05,0.07,0,0.08C41.46,13.11,43.66,8.95,42.71,5.35z"/>
					<path fill="#2E333B" d="M40.18,1.44c-0.03-0.02-0.06-0.04-0.09-0.06C40.12,1.4,40.15,1.42,40.18,1.44z"/>
				</g>
				<path fill="#2E333B" d="M19.46,19.89c-0.18-0.71-0.48-1.38-0.83-2.03c-0.64-1.18-1.02-2.13-0.86-3.5c0-0.03-0.05-0.03-0.05,0
					c-0.2,1.41-0.02,2.15,0.65,3.37c1.06,1.94,1.63,4.07,0.46,6.1c-0.04,0.06,0.06,0.12,0.1,0.06
					C19.7,22.66,19.82,21.29,19.46,19.89z"/>
			</g>
			<g>
				<path fill="#DA866C" d="M16.73,25.03c0,0-2.1-2.89-5.11-2.52c-3,0.38-2.8,5.36,0.19,7.55c2.82,2.06,4.92,1.01,4.92,1.01V25.03z"
					/>
				<path fill="#B15E47" d="M11.01,24.75c-0.02,0-0.02,0.04,0,0.04c2.58,0.07,3.56,2.64,3.73,3.05c-0.14-0.09-0.28-0.16-0.41-0.22
					c-0.78-0.35-1.53-0.26-2.28,0.09c-0.03,0.01-0.01,0.07,0.02,0.06c0.67-0.23,1.4-0.05,2.02,0.26c0.57,0.29,1.09,0.69,1.42,1.2
					C15.54,29.26,15.21,24,11.01,24.75z"/>
			</g>
			<g>
				<g>
					<path fill="#B15E47" d="M24.93,23.58c-0.29-0.07-1.54,0.32-1.75,0.56c-0.02,0.03-0.02,0.07,0.02,0.09
						c0.31,0.09,1.57-0.28,1.77-0.51C25.01,23.68,25,23.6,24.93,23.58z"/>
					<path fill="#B15E47" d="M25.33,24.11c-0.3,0.04-1.09,0.7-1.2,1.01c-0.01,0.04,0.01,0.08,0.05,0.07
						c0.32-0.03,1.13-0.67,1.23-0.96C25.44,24.17,25.4,24.1,25.33,24.11z"/>
				</g>
				<g>
					<path fill="#B15E47" d="M36.28,23.17c0.25-0.11,1.39,0.14,1.61,0.36c0.03,0.03,0.02,0.07-0.01,0.09
						c-0.26,0.12-1.41-0.1-1.62-0.3C36.22,23.28,36.22,23.2,36.28,23.17z"/>
					<path fill="#B15E47" d="M36,23.73c0.27,0,1.05,0.57,1.18,0.86c0.02,0.03,0,0.08-0.04,0.08c-0.29,0-1.08-0.54-1.2-0.81
						C35.91,23.81,35.94,23.73,36,23.73z"/>
				</g>
				<path fill="#B15E47" d="M28.03,29.53c-0.42,0.16-1.85,0.78-2.02-0.91c-0.01-0.08-0.09-0.13-0.1-0.05
					c-0.19,1.92,1.53,1.84,2.2,1.05C28.18,29.54,28.13,29.49,28.03,29.53z"/>
				<path fill="#2E333B" d="M26.31,16.38c-0.7,0.38-2.02,0.06-2.22,1.09c-0.16,0.85,1.65,1.53,3.09,0.86
					c1.61-0.76,1.89-2.54,1.25-2.91C27.44,14.87,26.91,16.05,26.31,16.38z"/>
				<path fill="#2E333B" d="M34.42,15.39c-0.82,0.5-0.35,2.01,1.04,2.62c1.05,0.46,2.39-0.03,2.38-0.82c0-0.76-1.24-0.58-1.63-0.85
					C35.71,15.99,35.1,14.97,34.42,15.39z"/>
				<path fill="#B15E47" d="M33.46,18.69c0.05-0.16-1.36,2.39-1.36,4.46c0,1.44,0.6,2.08,1.49,2.15c0.98,0.08,2-0.88,1.73-1.42
					c-0.34-0.68-1.39,0.08-2.04-0.68C32.63,22.45,32.91,20.67,33.46,18.69z"/>
				<path fill="#B15E47" d="M29.73,34.55c-0.46-0.23-1.02,0.06-1.17,0.52c-0.17,0.53,0.23,1.05,0.77,1.18
					c0.15,0.04,0.17-0.06,0.03-0.13c-0.24-0.14-0.47-0.29-0.54-0.58c-0.06-0.29,0.06-0.6,0.35-0.71c0.27-0.11,0.58,0.02,0.66,0.31
					c0.05,0.21-0.06,0.35-0.28,0.34c-0.12-0.01-0.28-0.2-0.31-0.31c-0.01-0.03-0.05-0.03-0.05,0c-0.13,0.4,0.39,0.79,0.74,0.54
					C30.36,35.4,30.12,34.74,29.73,34.55z"/>
				<path fill="#3B2D26" d="M27.47,22.56c0,0.56-0.32,1.02-0.71,1.02s-0.71-0.46-0.71-1.02c0-0.56,0.32-1.02,0.71-1.02
					C27.15,21.54,27.47,21.99,27.47,22.56z"/>
				<path fill="#3B2D26" d="M35.73,22.24c0,0.56-0.32,1.02-0.71,1.02s-0.71-0.46-0.71-1.02c0-0.56,0.32-1.02,0.71-1.02
					S35.73,21.67,35.73,22.24z"/>
				<g>
					<path fill="#FFFFFF" d="M28.78,27.8l-0.08,0.07c-0.12,0.1-0.3,0.09-0.41-0.02l-4-4.37c-0.11-0.12-0.1-0.31,0.02-0.42l0.26-0.23
						c0.12-0.11,0.31-0.09,0.42,0.03l3.82,4.52C28.91,27.51,28.9,27.69,28.78,27.8z"/>
					<path fill="#FFFFFF" d="M24.95,21.75c0.43,0.49,0.38,1.23-0.11,1.65c-0.49,0.43-1.23,0.38-1.65-0.11
						c-0.43-0.49-0.38-1.23,0.11-1.65C23.79,21.21,24.52,21.26,24.95,21.75z"/>
					<path fill="#EA9487" d="M24.69,21.97c0.3,0.34,0.27,0.87-0.08,1.17s-0.87,0.27-1.17-0.08c-0.3-0.34-0.27-0.87,0.08-1.17
						C23.87,21.6,24.39,21.63,24.69,21.97z"/>
					<path fill="#EA9487" d="M28.58,27.62l-0.04,0.03c-0.06,0.05-0.18,0-0.28-0.12l-3.78-4.23c-0.11-0.12-0.14-0.26-0.09-0.31
						l0.12-0.11c0.06-0.05,0.19,0.01,0.29,0.13l3.7,4.3C28.6,27.44,28.63,27.57,28.58,27.62z"/>
				</g>
				<path fill="#B15E47" d="M33.05,29.01c-0.39-0.34-0.72-0.34-1.19-0.43c-0.82-0.15-1.25-0.66-2-0.92
					c-0.94-0.32-1.81,0.08-2.55,0.72c-0.02,0.02,0,0.05,0.02,0.04c0.53-0.29,1.1-0.52,1.71-0.5c0.72,0.02,1.13,0.41,1.71,0.78
					c0.69,0.43,1.49,0.14,2.25,0.42C33.07,29.15,33.1,29.05,33.05,29.01z"/>
			</g>
		</g>
		<g>
			<path fill="#FFC959" d="M39.67,42.89c-0.1,0.23-0.33,0.52-0.65,0.87c-0.15,0.15-0.32,0.32-0.5,0.49c-0.43,0.4-0.95,0.84-1.55,1.3
				c-0.15,0.11-0.3,0.23-0.45,0.34l0,0c-0.46,0.34-0.95,0.68-1.47,1.02c-0.15,0.1-0.3,0.19-0.45,0.29
				c-0.99,0.61-2.04,1.19-3.08,1.66c-0.12,0.05-0.24,0.11-0.37,0.16c-1.23,0.52-2.44,0.88-3.52,0.97C27.54,50,27.45,50,27.36,50.01
				c-0.15,0-0.29,0.01-0.43,0c-0.81-0.03-1.81-0.23-2.9-0.54c-0.11-0.03-0.22-0.07-0.34-0.1c-1.2-0.37-2.51-0.87-3.8-1.44
				c-0.17-0.07-0.33-0.14-0.49-0.22c-1.07-0.49-2.11-1.02-3.07-1.55c-0.14-0.08-0.27-0.16-0.41-0.23c-0.7-0.41-1.34-0.81-1.9-1.2
				c-0.28-0.2-0.54-0.39-0.77-0.58c-0.74-0.6-1.21-1.14-1.27-1.54c-0.29-1.97,1.13-4.08,1.35-5.45c0.23-1.38-0.73-4.56,1.47-5.41
				c0.36-0.14,0.76,0.08,1.37,0.47c0.07,0.05,0.13,0.09,0.2,0.14c0.42,0.28,0.93,0.62,1.58,0.97c0.08,0.04,0.15,0.08,0.23,0.12
				c0.68,0.35,1.5,0.71,2.5,1.03c0.07,0.02,0.14,0.04,0.21,0.06c0.95,0.28,2.05,0.52,3.35,0.67c0.08,0.01,0.17,0.02,0.26,0.03
				c0.36,0.04,0.73,0.07,1.12,0.1c0.6,0.04,1.18,0.06,1.72,0.06h0.13c1-0.01,1.9-0.07,2.71-0.17l0.28-0.04
				c0.94-0.14,1.76-0.33,2.48-0.55c0.09-0.03,0.19-0.06,0.28-0.09c0.6-0.2,1.14-0.41,1.6-0.63c0.06-0.03,0.12-0.06,0.19-0.09
				c0.67-0.32,1.2-0.65,1.62-0.9c0.1-0.06,0.19-0.12,0.28-0.17c0.55-0.33,0.89-0.5,1.11-0.31c1.91,1.63,0.16,5.37,0.28,6.03
				C38.43,39.11,40.4,41.25,39.67,42.89z"/>
			<g>
				<path fill="#EEB447" d="M15.16,37.8c-0.95,2.12-2.25,4.63-1.14,6.91c-0.28-0.2-0.54-0.39-0.77-0.58
					c-0.57-1.79,0.19-3.94,0.93-5.57c0.41-0.92,0.83-1.73,0.96-2.75c0.07-0.61,0.06-1.23,0.18-1.84c0.14-0.7,0.39-1.3,0.87-1.77
					c0.07,0.05,0.13,0.09,0.2,0.14C15.32,33.88,15.94,36.08,15.16,37.8z"/>
				<path fill="#EEB447" d="M39.02,43.76c-0.15,0.15-0.32,0.32-0.5,0.49c0.01-0.84-0.09-1.64-0.4-2.47
					c-0.35-0.93-0.85-1.72-1.15-2.65c-0.29-0.9-0.15-1.79-0.06-2.7c0.08-0.77,0.3-2.66-0.26-3.53c0.1-0.06,0.19-0.12,0.28-0.17
					c0.84,0.96,0.5,3.41,0.37,4.3c-0.18,1.21,0.01,2.12,0.58,3.14c0.31,0.56,0.58,1.13,0.78,1.73C38.86,42.51,39,43.13,39.02,43.76z
					"/>
				<path fill="#EEB447" d="M36.97,45.55c-0.15,0.11-0.3,0.23-0.45,0.34c0.38-2.35-0.96-4.08-1.29-6.38
					c-0.25-1.73,0.48-3.99-0.38-5.61c0.06-0.03,0.12-0.06,0.19-0.09c1.15,1.35,0.41,4.07,0.64,5.62
					C35.97,41.44,37.41,43.51,36.97,45.55z"/>
				<path fill="#EEB447" d="M27.62,49.98c-0.09,0.01-0.18,0.01-0.27,0.02c-0.34-2.48,0.04-5.03-0.23-7.53
					c-0.27-2.46-0.29-4.69,0.24-7.09h0.13c-0.24,2.37-0.15,4.73,0.1,7.09C27.86,44.94,27.74,47.49,27.62,49.98z"/>
				<path fill="#EEB447" d="M35.05,46.9c-0.15,0.1-0.3,0.19-0.45,0.29c-0.02-0.8-0.03-1.61-0.12-2.41
					c-0.16-1.37-0.78-2.51-1.04-3.83c-0.19-0.97,0.05-2.09,0.03-3.08c-0.02-1.13-0.21-2.2-0.49-3.27c0.09-0.03,0.19-0.06,0.28-0.09
					c0.31,0.75,0.49,1.54,0.59,2.36c0.16,1.31-0.1,2.68,0.13,3.96c0.22,1.17,0.76,2.23,0.93,3.44
					C35.02,45.14,35.07,46.02,35.05,46.9z"/>
				<path fill="#EEB447" d="M31.51,48.85c-0.12,0.05-0.24,0.11-0.37,0.16c-0.13-2.23-0.21-4.44-0.45-6.66
					c-0.25-2.32-0.47-4.78-0.49-7.14l0.28-0.04c0.51,2.26,0.46,4.6,0.65,6.91C31.33,44.33,31.48,46.58,31.51,48.85z"/>
				<path fill="#EEB447" d="M24.07,45.56c-0.14,1.31-0.05,2.6-0.05,3.9c-0.11-0.03-0.22-0.07-0.34-0.1c-0.24-1.25-0.2-2.54-0.08-3.8
					c0.13-1.29,0.52-2.53,0.38-3.84c-0.23-2.23-0.61-4.42,0.27-6.53c0.08,0.01,0.17,0.02,0.26,0.03c-0.25,1.29-0.36,2.57-0.3,3.89
					c0.06,1.08,0.32,2.15,0.32,3.23C24.54,43.41,24.18,44.49,24.07,45.56z"/>
				<path fill="#EEB447" d="M16.04,42.96c-0.05,1.08,0.11,2.13,0.28,3.19c-0.14-0.08-0.27-0.16-0.41-0.23
					c-0.47-1.99-0.43-4.06,0.33-5.98c0.36-0.91,0.65-1.61,0.75-2.6c0.06-0.57,0.07-1.14,0.15-1.71c0.12-0.87,0.27-1.67,0.82-2.32
					c0.08,0.04,0.15,0.08,0.23,0.12c-1.03,1.78-0.42,4-1.15,5.89C16.55,40.6,16.11,41.56,16.04,42.96z"/>
				<path fill="#EEB447" d="M20.92,34.52c-0.31,1.12-0.68,2.18-0.77,3.37c-0.08,1.11-0.01,2.23-0.09,3.33
					c-0.16,2.29-0.49,4.44-0.17,6.7c-0.17-0.07-0.33-0.14-0.49-0.22c-0.42-2.31,0.12-4.68,0.23-7.01c0.1-2.14-0.14-4.39,1.08-6.24
					C20.77,34.48,20.84,34.5,20.92,34.52z"/>
			</g>
		</g>
	</g>
</g>
</svg>
