<?xml version="1.0" encoding="utf-8"?>
<!-- Generator: Adobe Illustrator 24.1.1, SVG Export Plug-In . SVG Version: 6.00 Build 0)  -->
<svg version="1.1" id="Layer_1" xmlns="http://www.w3.org/2000/svg" xmlns:xlink="http://www.w3.org/1999/xlink" x="0px" y="0px"
	 viewBox="0 0 50 50" enable-background="new 0 0 50 50" xml:space="preserve">
<g>
	<ellipse fill="#F0EFEF" cx="25" cy="25.7" rx="24.29" ry="24.29"/>
</g>
<g>
	<g>
		<g>
			<g>
				<g>
					<path fill="#DA866C" d="M18.17,31.52c-0.26,1.49,1.45,11.4,2.22,12.71c0.77,1.31,5.2,2.16,8.26,0.41
						c0.89-0.51,0.94-12.95,0.94-12.95L18.17,31.52z"/>
				</g>
				<path fill="#DA866C" d="M15.16,6.6c-3.45,3-5.13,7.93-3.55,17.32s6.38,14.27,15.24,13.59c8.03-0.61,9.81-5.01,10.49-7.48
					c0.68-2.48,0.02-4.94,0-7.26c-0.01-1.93,0.99-8.6-1.93-14.02C32,2.42,20.48,1.97,15.16,6.6z"/>
				
					<linearGradient id="SVGID_1_" gradientUnits="userSpaceOnUse" x1="24.575" y1="30.2544" x2="19.0337" y2="42.6274" gradientTransform="matrix(1 0 0 -1 0 50)">
					<stop  offset="0" style="stop-color:#EA9487;stop-opacity:0"/>
					<stop  offset="1" style="stop-color:#EA9487"/>
				</linearGradient>
				<path opacity="0.5" fill="url(#SVGID_1_)" enable-background="new    " d="M15.16,6.6c-3.45,3-5.13,7.93-3.55,17.32
					s6.38,14.27,15.24,13.59c8.03-0.61,9.81-5.01,10.49-7.48c0.68-2.48,0.02-4.94,0-7.26c-0.01-1.93,0.99-8.6-1.93-14.02
					C32,2.42,20.48,1.97,15.16,6.6z"/>
				<g>
					<path fill="#2E333B" d="M12.84,25.32c2.94,0.56,5.16-1.74,5.08-4.39c-0.08-2.66-2.63-4.59-1.09-7.03s3.98-0.81,5.97-1.1
						c2.13-0.31,2.29-1.66,4.3-1.97c2.3-0.36,4.74,3.05,8.89,2.71c4.38-0.36,5.98-5.17,4.54-9.31C39.38,0.9,35.5-0.25,32.5,0.05
						s-5.02,2.25-7.52,2.68c-1.69,0.29-5.22-0.71-7.43-0.08c-2.22,0.64-3.6,2.14-3.6,2.14s0.73-2.5-0.09-2.55
						c-0.83-0.06-0.49,2.68-0.49,2.68s-2.27-0.45-2.2,0.26c0.08,0.71,1.97,0.39,1.97,0.39S7.56,7.35,6.8,12.06
						C6.04,16.76,9.32,24.65,12.84,25.32z"/>
					<path fill="#2E333B" d="M6.04,14.81c-0.06-1.79,0.39-3.63,1.42-5.11c1.14-1.62,2.91-2.51,4.63-3.37c0,0,0-0.01,0,0
						c-3.46,1.4-6.1,3.76-6.3,7.72c-0.21,4.28,2.42,7.83,5.51,10.48c0.04,0.04,0.1-0.02,0.06-0.06C8.58,21.99,6.18,18.67,6.04,14.81
						z"/>
					<g>
						<path fill="#2E333B" d="M38.8,1.38c-0.07-0.05-0.13-0.1-0.2-0.14C38.67,1.28,38.74,1.33,38.8,1.38z"/>
						<path fill="#2E333B" d="M38.6,1.23c-0.01-0.01-0.02-0.01-0.03-0.02C38.58,1.22,38.59,1.23,38.6,1.23z"/>
						<path fill="#2E333B" d="M32.7,0.41c-0.01,0-0.01,0.02,0,0.02c1.62-0.44,3.39-0.24,4.96,0.33c0.32,0.12,0.62,0.27,0.91,0.46
							C36.93,0.1,34.83-0.23,32.7,0.41z"/>
						<path fill="#2E333B" d="M41.42,5.35c-0.44-1.67-1.35-3-2.53-3.91c1.09,0.85,1.86,2.17,2.3,3.48c1.19,3.6-0.89,8.05-4.92,7.67
							c-0.05,0-0.05,0.07,0,0.08C40.16,13.11,42.37,8.95,41.42,5.35z"/>
						<path fill="#2E333B" d="M38.89,1.44c-0.03-0.02-0.06-0.04-0.09-0.06C38.83,1.4,38.86,1.42,38.89,1.44z"/>
					</g>
					<path fill="#2E333B" d="M18.17,19.89c-0.18-0.71-0.48-1.38-0.83-2.03c-0.64-1.18-1.02-2.13-0.86-3.5c0-0.03-0.05-0.03-0.05,0
						c-0.2,1.41-0.02,2.15,0.65,3.37c1.06,1.94,1.63,4.07,0.46,6.1c-0.04,0.06,0.06,0.12,0.1,0.06
						C18.4,22.66,18.53,21.29,18.17,19.89z"/>
				</g>
				<g>
					<path fill="#DA866C" d="M15.44,25.03c0,0-2.1-2.89-5.11-2.52c-3,0.38-2.8,5.36,0.19,7.55c2.82,2.06,4.92,1.01,4.92,1.01V25.03z
						"/>
					<path fill="#B15E47" d="M9.72,24.75c-0.02,0-0.02,0.04,0,0.04c2.58,0.07,3.56,2.64,3.73,3.05c-0.14-0.09-0.28-0.16-0.41-0.22
						c-0.78-0.35-1.53-0.26-2.28,0.09c-0.03,0.01-0.01,0.07,0.02,0.06c0.67-0.23,1.4-0.05,2.02,0.26c0.57,0.29,1.09,0.69,1.42,1.2
						C14.25,29.26,13.92,24,9.72,24.75z"/>
				</g>
				<g>
					<g>
						<path fill="#B15E47" d="M23.64,23.58c-0.29-0.07-1.54,0.32-1.75,0.56c-0.02,0.03-0.02,0.07,0.02,0.09
							c0.31,0.09,1.57-0.28,1.77-0.51C23.72,23.68,23.71,23.6,23.64,23.58z"/>
						<path fill="#B15E47" d="M24.04,24.11c-0.3,0.04-1.09,0.7-1.2,1.01c-0.01,0.04,0.01,0.08,0.05,0.07
							c0.32-0.03,1.13-0.67,1.23-0.96C24.15,24.17,24.1,24.1,24.04,24.11z"/>
					</g>
					<g>
						<path fill="#B15E47" d="M34.99,23.17c0.25-0.11,1.39,0.14,1.61,0.36c0.03,0.03,0.02,0.07-0.01,0.09
							c-0.26,0.12-1.41-0.1-1.62-0.3C34.93,23.28,34.93,23.2,34.99,23.17z"/>
						<path fill="#B15E47" d="M34.71,23.73c0.27,0,1.05,0.57,1.18,0.86c0.02,0.03,0,0.08-0.04,0.08c-0.29,0-1.08-0.54-1.2-0.81
							C34.62,23.81,34.65,23.73,34.71,23.73z"/>
					</g>
					<path fill="#B15E47" d="M26.69,30.5c-0.43,0.13-1.9,0.65-1.96-1.05c0-0.08-0.08-0.13-0.09-0.06c-0.33,1.9,1.39,1.94,2.12,1.2
						C26.84,30.52,26.8,30.47,26.69,30.5z"/>
					<path fill="#2E333B" d="M25.02,16.38c-0.7,0.38-2.02,0.06-2.22,1.09c-0.16,0.85,1.65,1.53,3.09,0.86
						c1.61-0.76,1.89-2.54,1.25-2.91C26.15,14.87,25.62,16.05,25.02,16.38z"/>
					<path fill="#2E333B" d="M33.13,15.39c-0.82,0.5-0.35,2.01,1.04,2.62c1.05,0.46,2.39-0.03,2.38-0.82c0-0.76-1.24-0.58-1.63-0.85
						C34.42,15.99,33.81,14.97,33.13,15.39z"/>
					<path fill="#B15E47" d="M32.17,18.69c0.05-0.16-1.36,2.39-1.36,4.46c0,1.44,0.6,2.08,1.49,2.15c0.98,0.08,2-0.88,1.73-1.42
						c-0.34-0.68-1.39,0.08-2.04-0.68C31.34,22.45,31.61,20.67,32.17,18.69z"/>
					<path fill="#B15E47" d="M28.44,34.55c-0.46-0.23-1.02,0.06-1.17,0.52c-0.17,0.53,0.23,1.05,0.77,1.18
						c0.15,0.04,0.17-0.06,0.03-0.13c-0.24-0.14-0.47-0.29-0.54-0.58c-0.06-0.29,0.06-0.6,0.35-0.71c0.27-0.11,0.58,0.02,0.66,0.31
						c0.05,0.21-0.06,0.35-0.28,0.34c-0.12-0.01-0.28-0.2-0.31-0.31c-0.01-0.03-0.05-0.03-0.05,0c-0.13,0.4,0.39,0.79,0.74,0.54
						C29.06,35.4,28.83,34.74,28.44,34.55z"/>
					<path fill="#3B2D26" d="M23.75,21.92c-0.06,0.02-0.08,0.07-0.01,0.07c1.24,0.05,1.71,0.61,1.81,0.69
						c-0.06,0.01-0.72,0.02-1.19,0.56c-0.03,0.04,0,0.1,0.05,0.08c0.26-0.09,1.13-0.41,2.09-0.14
						C26.78,23.27,25.9,21.25,23.75,21.92z"/>
					<path fill="#3B2D26" d="M35.33,21.41c0.06,0.01,0.08,0.05,0.03,0.07c-1.13,0.24-1.46,0.87-1.55,0.96c0.05,0,0.66-0.1,1.18,0.37
						c0.03,0.03,0.01,0.09-0.03,0.09c-0.25-0.05-1.1-0.23-1.94,0.19C32.77,23.2,33.24,21.07,35.33,21.41z"/>
					<g>
						<path fill="#3B2D26" d="M30.43,29.46c-0.08,0.04-0.18,0.07-0.29,0.09c-0.43,0.06-0.87-0.13-1.3-0.21
							c-0.63-0.11-1.19,0.05-1.82-0.01c-0.52-0.05-1.02-0.31-0.98-0.89c0.01-0.13,0.08-0.36,0.23-0.61c0.16-0.29,0.42-0.61,0.8-0.85
							c0.47-0.31,1.13-0.5,2.01-0.35c0.31,0.05,0.62,0.24,0.89,0.48C30.75,27.83,31.2,29.1,30.43,29.46z"/>
						<path fill="#EA9487" d="M30.43,29.46c-0.08,0.04-0.18,0.07-0.29,0.09c-0.43,0.06-0.87-0.13-1.3-0.21
							c-0.63-0.11-1.19,0.05-1.82-0.01c-0.52-0.05-1.02-0.31-0.98-0.89c0.01-0.13,0.08-0.36,0.23-0.61
							c0.77-0.37,1.66-0.45,2.48-0.11C29.37,27.98,30.28,28.69,30.43,29.46z"/>
						<path fill="#FFFFFF" d="M29.97,27.11c-0.96-0.15-1.92-0.19-2.9-0.14c0.47-0.31,1.13-0.5,2.01-0.35
							C29.4,26.69,29.7,26.87,29.97,27.11z"/>
					</g>
				</g>
			</g>
			<g>
				<path fill="#FFC959" d="M38.38,42.89c-0.1,0.23-0.33,0.52-0.65,0.87c-0.15,0.15-0.32,0.32-0.5,0.49
					c-0.43,0.4-0.95,0.84-1.55,1.3c-0.15,0.11-0.3,0.23-0.45,0.34l0,0c-0.46,0.34-0.95,0.68-1.47,1.02c-0.15,0.1-0.3,0.19-0.45,0.29
					c-0.99,0.61-2.04,1.19-3.08,1.66c-0.12,0.05-0.24,0.11-0.37,0.16c-1.23,0.52-2.44,0.88-3.52,0.97C26.25,50,26.16,50,26.07,50.01
					c-0.15,0-0.29,0.01-0.43,0c-0.81-0.03-1.81-0.23-2.9-0.54c-0.11-0.03-0.22-0.07-0.34-0.1c-1.2-0.37-2.51-0.87-3.8-1.44
					c-0.17-0.07-0.33-0.14-0.49-0.22c-1.07-0.49-2.11-1.02-3.07-1.55c-0.14-0.08-0.27-0.16-0.41-0.23c-0.7-0.41-1.34-0.81-1.9-1.2
					c-0.28-0.2-0.54-0.39-0.77-0.58c-0.74-0.6-1.21-1.14-1.27-1.54c-0.29-1.97,1.13-4.08,1.35-5.45c0.23-1.38-0.73-4.56,1.47-5.41
					c0.36-0.14,0.76,0.08,1.37,0.47c0.07,0.05,0.13,0.09,0.2,0.14c0.42,0.28,0.93,0.62,1.58,0.97c0.08,0.04,0.15,0.08,0.23,0.12
					c0.68,0.35,1.5,0.71,2.5,1.03c0.07,0.02,0.14,0.04,0.21,0.06c0.95,0.28,2.05,0.52,3.35,0.67c0.08,0.01,0.17,0.02,0.26,0.03
					c0.36,0.04,0.73,0.07,1.12,0.1c0.6,0.04,1.18,0.06,1.72,0.06h0.13c1-0.01,1.9-0.07,2.71-0.17l0.28-0.04
					c0.94-0.14,1.76-0.33,2.48-0.55c0.09-0.03,0.19-0.06,0.28-0.09c0.6-0.2,1.14-0.41,1.6-0.63c0.06-0.03,0.12-0.06,0.19-0.09
					c0.67-0.32,1.2-0.65,1.62-0.9c0.1-0.06,0.19-0.12,0.28-0.17c0.55-0.33,0.89-0.5,1.11-0.31c1.91,1.63,0.16,5.37,0.28,6.03
					C37.14,39.11,39.11,41.25,38.38,42.89z"/>
				<g>
					<path fill="#EEB447" d="M13.87,37.8c-0.95,2.12-2.25,4.63-1.14,6.91c-0.28-0.2-0.54-0.39-0.77-0.58
						c-0.57-1.79,0.19-3.94,0.93-5.57c0.41-0.92,0.83-1.73,0.96-2.75c0.07-0.61,0.06-1.23,0.18-1.84c0.14-0.7,0.39-1.3,0.87-1.77
						c0.07,0.05,0.13,0.09,0.2,0.14C14.03,33.88,14.64,36.08,13.87,37.8z"/>
					<path fill="#EEB447" d="M37.73,43.76c-0.15,0.15-0.32,0.32-0.5,0.49c0.01-0.84-0.09-1.64-0.4-2.47
						c-0.35-0.93-0.85-1.72-1.15-2.65c-0.29-0.9-0.15-1.79-0.06-2.7c0.08-0.77,0.3-2.66-0.26-3.53c0.1-0.06,0.19-0.12,0.28-0.17
						c0.84,0.96,0.5,3.41,0.37,4.3c-0.18,1.21,0.02,2.12,0.58,3.14c0.31,0.56,0.58,1.13,0.78,1.73
						C37.57,42.51,37.71,43.13,37.73,43.76z"/>
					<path fill="#EEB447" d="M35.68,45.55c-0.15,0.11-0.3,0.23-0.45,0.34c0.38-2.35-0.96-4.08-1.29-6.38
						c-0.25-1.73,0.48-3.99-0.38-5.61c0.06-0.03,0.12-0.06,0.19-0.09c1.15,1.35,0.41,4.07,0.64,5.62
						C34.68,41.44,36.12,43.51,35.68,45.55z"/>
					<path fill="#EEB447" d="M26.33,49.98c-0.09,0.01-0.18,0.01-0.27,0.02c-0.34-2.48,0.04-5.03-0.23-7.53
						c-0.27-2.46-0.29-4.69,0.24-7.09h0.13c-0.24,2.37-0.15,4.73,0.1,7.09C26.57,44.94,26.45,47.49,26.33,49.98z"/>
					<path fill="#EEB447" d="M33.76,46.9c-0.15,0.1-0.3,0.19-0.45,0.29c-0.02-0.8-0.03-1.61-0.12-2.41
						c-0.16-1.37-0.78-2.51-1.04-3.83c-0.19-0.97,0.05-2.09,0.03-3.08c-0.02-1.13-0.21-2.2-0.49-3.27c0.09-0.03,0.19-0.06,0.28-0.09
						c0.31,0.75,0.49,1.54,0.59,2.36c0.16,1.31-0.1,2.68,0.13,3.96c0.22,1.17,0.76,2.23,0.93,3.44
						C33.73,45.14,33.78,46.02,33.76,46.9z"/>
					<path fill="#EEB447" d="M30.22,48.85c-0.12,0.05-0.24,0.11-0.37,0.16c-0.13-2.23-0.21-4.44-0.45-6.66
						c-0.25-2.32-0.47-4.78-0.49-7.14l0.28-0.04c0.51,2.26,0.46,4.6,0.65,6.91C30.03,44.33,30.19,46.58,30.22,48.85z"/>
					<path fill="#EEB447" d="M22.78,45.56c-0.14,1.31-0.05,2.6-0.05,3.9c-0.11-0.03-0.22-0.07-0.34-0.1
						c-0.24-1.25-0.2-2.54-0.08-3.8c0.13-1.29,0.52-2.53,0.38-3.84c-0.23-2.23-0.61-4.42,0.27-6.53c0.08,0.01,0.17,0.02,0.26,0.03
						c-0.25,1.29-0.36,2.57-0.3,3.89c0.06,1.08,0.32,2.15,0.32,3.23C23.25,43.41,22.89,44.49,22.78,45.56z"/>
					<path fill="#EEB447" d="M14.75,42.96c-0.05,1.08,0.11,2.13,0.28,3.19c-0.14-0.08-0.27-0.16-0.41-0.23
						c-0.47-1.99-0.43-4.06,0.33-5.98c0.36-0.91,0.65-1.61,0.75-2.6c0.06-0.57,0.07-1.14,0.15-1.71c0.12-0.87,0.27-1.67,0.82-2.32
						c0.08,0.04,0.15,0.08,0.23,0.12c-1.03,1.78-0.42,4-1.15,5.89C15.26,40.6,14.82,41.56,14.75,42.96z"/>
					<path fill="#EEB447" d="M19.62,34.52c-0.31,1.12-0.68,2.18-0.77,3.37c-0.08,1.11-0.01,2.23-0.09,3.33
						c-0.16,2.29-0.49,4.44-0.17,6.7c-0.17-0.07-0.33-0.14-0.49-0.22c-0.42-2.31,0.12-4.68,0.23-7.01c0.1-2.14-0.14-4.39,1.08-6.24
						C19.48,34.48,19.55,34.5,19.62,34.52z"/>
				</g>
			</g>
			<g>
				<path fill="#B15E47" d="M41.33,12.32c0,0,0.99-4.55,2.43-4.55c0.81,0-0.44,3.57,0,5.67c0.39,1.84,0.2,4.12-0.84,4.25
					C41.9,17.82,41.33,12.32,41.33,12.32z"/>
				<path fill="#DA866C" d="M44.13,18.43c-0.37,2.56-4.23,3.56-5.71,2.52c-2.32-1.63-2.09-4.31-2.26-4.75
					C36,15.75,35,14.56,34.85,14.45c-0.15-0.11-3.95-1.59-3.59-2.47c0.36-0.87,4.17,0.55,4.57,0.83c0.4,0.28,1.83,1.87,1.83,1.87
					l-1.68-1.08c0,0-0.98-2.19-1.08-2.51c-0.11-0.32-3-2.93-2.47-3.7C32.96,6.63,36,8.96,36.47,9.6s1.47,2.57,1.47,2.57l-0.55-0.55
					c0,0-0.43-2.32-0.49-2.66s-2.3-3.34-1.74-4c0.55-0.66,3.42,3.02,3.7,3.53s0.74,2.53,0.74,2.53s-0.11-1.76-0.19-2.1
					c-0.09-0.34-1.32-3.34-0.89-3.81S41.07,8,41.39,8.77C41.7,9.54,44.76,14.06,44.13,18.43z"/>
			</g>
		</g>
	</g>
</g>
</svg>
