<?xml version="1.0" encoding="utf-8"?>
<!-- Generator: Adobe Illustrator 24.1.1, SVG Export Plug-In . SVG Version: 6.00 Build 0)  -->
<svg version="1.1" id="Layer_1" xmlns="http://www.w3.org/2000/svg" xmlns:xlink="http://www.w3.org/1999/xlink" x="0px" y="0px"
	 viewBox="0 0 50 50" enable-background="new 0 0 50 50" xml:space="preserve">
<g>
	<ellipse fill="#F0EFEF" cx="25" cy="25.7" rx="24.29" ry="24.29"/>
</g>
<g>
	<g>
		<g>
			<path fill="#EFB647" d="M38.4,35.74c-0.08,1.36-0.36,2.69-0.22,4.05c0.09,0.98,0.23,1.81-0.26,2.72
				c-0.43,0.82-1.13,1.5-1.86,2.06c-1.71,1.34-3.78,2.22-5.9,2.62c-2.05,0.39-4.16,0.36-6.19-0.12c-2-0.47-4.37-1.39-5.63-3.1
				c-1.26-1.71-1.1-3.93-1.51-5.91c-0.3-1.46-1.06-2.57-1.68-3.88c-0.49-1.05-0.24-2.58,0.45-2.95c2.15-1.15,4.69-0.31,6.86,0.45
				c1.52,0.54,3.03,0.98,4.65,1.09c1.64,0.12,3.24-0.12,4.86-0.35c1.21-0.17,2.44-0.32,3.67-0.17c0.75,0.09,1.83,0.25,2.36,0.88
				C38.56,33.78,38.45,34.95,38.4,35.74z"/>
			<g>
				<g>
					<path fill="#DB876C" d="M20.24,31.17c-0.26,1.46,1.43,11.18,2.18,12.46c0.75,1.28,5.1,2.12,8.1,0.4
						c0.88-0.5,0.92-12.69,0.92-12.69L20.24,31.17z"/>
					
						<linearGradient id="SVGID_1_" gradientUnits="userSpaceOnUse" x1="29.748" y1="9.1491" x2="24.8952" y2="19.1403" gradientTransform="matrix(0.9999 0.0151 0.0151 -0.9999 -0.938 50.5037)">
						<stop  offset="0" style="stop-color:#F15A5A;stop-opacity:0"/>
						<stop  offset="1" style="stop-color:#EF4865"/>
					</linearGradient>
					<path fill="url(#SVGID_1_)" d="M20.24,31.17c-0.26,1.46,1.43,11.18,2.18,12.46c0.75,1.28,5.1,2.12,8.1,0.4
						c0.88-0.5,0.92-12.69,0.92-12.69L20.24,31.17z"/>
				</g>
				<path fill="#DB876C" d="M16.35,7.75c-3.17,3.18-4.47,8.11-2.28,17.18s7.23,13.51,15.85,12.24c7.81-1.15,9.25-5.57,9.74-8.04
					s-0.33-4.83-0.5-7.1c-0.15-1.88,0.37-8.48-2.85-13.57C32.53,2.49,21.24,2.85,16.35,7.75z"/>
				<g>
					<path fill="#2F333B" d="M15.38,26.22c2.92,0.35,4.92-2.05,4.67-4.65c-0.26-2.59-2.89-4.31-1.55-6.8s3.84-1.07,5.77-1.49
						c2.06-0.45,2.12-1.78,4.07-2.23c2.23-0.51,4.85,2.66,8.88,2.03c4.26-0.66,5.5-5.47,3.8-9.42c-1.36-3.16-5.23-4.02-8.14-3.52
						c-2.92,0.5-4.76,2.55-7.17,3.14c-1.63,0.4-5.15-0.34-7.28,0.44c-2.12,0.78-3.38,2.34-3.38,2.34s0.54-2.49-0.27-2.49
						s-0.29,2.66-0.29,2.66s-2.25-0.28-2.13,0.41s1.95,0.25,1.95,0.25s-5.33,2.12-5.75,6.78C8.13,18.32,11.89,25.8,15.38,26.22z"/>
					<path fill="#2F333B" d="M8,16.4c-0.18-1.74,0.13-3.58,1.04-5.09c1-1.66,2.67-2.66,4.3-3.62c0,0,0-0.01,0,0
						c-3.28,1.61-5.71,4.1-5.63,7.99c0.09,4.2,2.9,7.5,6.12,9.87c0.04,0.03,0.1-0.03,0.05-0.06C10.98,23.25,8.4,20.17,8,16.4z"/>
					<g>
						<path fill="#2F333B" d="M39.11,1.01c-0.07-0.04-0.14-0.09-0.2-0.13C38.98,0.92,39.05,0.96,39.11,1.01z"/>
						<path fill="#2F333B" d="M38.91,0.88c-0.01-0.01-0.02-0.01-0.03-0.02C38.89,0.87,38.9,0.87,38.91,0.88z"/>
						<path fill="#2F333B" d="M33.08,0.48c-0.01,0,0,0.02,0.01,0.02c1.56-0.54,3.29-0.47,4.88-0.02c0.32,0.09,0.63,0.22,0.92,0.39
							C37.2-0.11,35.12-0.29,33.08,0.48z"/>
						<path fill="#2F333B" d="M41.94,4.71c-0.55-1.61-1.53-2.84-2.74-3.65c1.12,0.75,1.97,1.99,2.49,3.25
							c1.41,3.44-0.32,7.94-4.28,7.84c-0.05,0-0.04,0.07,0.01,0.08C41.26,12.39,43.13,8.17,41.94,4.71z"/>
						<path fill="#2F333B" d="M39.2,1.06C39.17,1.04,39.14,1.02,39.11,1C39.14,1.02,39.17,1.04,39.2,1.06z"/>
					</g>
					<path fill="#2F333B" d="M20.22,20.54c-0.23-0.69-0.57-1.32-0.95-1.93c-0.71-1.11-1.14-2.01-1.08-3.37c0-0.03-0.05-0.03-0.05,0
						c-0.1,1.39,0.13,2.11,0.87,3.25c1.17,1.82,1.87,3.87,0.87,5.94c-0.03,0.06,0.06,0.11,0.1,0.05
						C20.63,23.23,20.66,21.88,20.22,20.54z"/>
				</g>
				<g>
					<path fill="#DB876C" d="M17.9,25.75c0,0-2.26-2.68-5.17-2.11s-2.37,5.43,0.7,7.37c2.9,1.83,4.88,0.65,4.88,0.65L17.9,25.75z"/>
					<path fill="#B35F49" d="M12.28,25.87c-0.02,0-0.01,0.04,0.01,0.04c2.52-0.11,3.66,2.34,3.86,2.73
						c-0.14-0.07-0.28-0.14-0.42-0.19c-0.79-0.28-1.51-0.14-2.22,0.25c-0.03,0.02,0,0.07,0.03,0.05c0.64-0.27,1.37-0.15,1.99,0.12
						c0.57,0.25,1.11,0.6,1.47,1.07C17.02,29.97,16.34,24.85,12.28,25.87z"/>
				</g>
				<g>
					<path fill="#3B2E26" d="M28.23,22.59c0.04,0.55-0.24,1.02-0.63,1.05c-0.39,0.03-0.73-0.4-0.77-0.95
						c-0.04-0.55,0.24-1.02,0.63-1.05C27.85,21.62,28.19,22.04,28.23,22.59z"/>
					<path fill="#3B2E26" d="M36.28,21.71c0.04,0.55-0.24,1.02-0.63,1.04c-0.39,0.03-0.73-0.4-0.77-0.95s0.24-1.02,0.63-1.05
						C35.9,20.73,36.25,21.16,36.28,21.71z"/>
					<g>
						<path fill="#B35F49" d="M25.82,23.77c-0.29-0.05-1.49,0.42-1.68,0.67c-0.02,0.03-0.01,0.07,0.03,0.08
							c0.31,0.06,1.51-0.38,1.7-0.62C25.9,23.86,25.88,23.78,25.82,23.77z"/>
						<path fill="#B35F49" d="M26.24,24.25c-0.29,0.06-1.02,0.76-1.1,1.07c-0.01,0.04,0.02,0.07,0.06,0.07
							c0.31-0.06,1.06-0.74,1.14-1.02C26.35,24.31,26.31,24.24,26.24,24.25z"/>
					</g>
					<g>
						<path fill="#B35F49" d="M36.89,22.58c0.23-0.12,1.37,0.04,1.6,0.24c0.03,0.02,0.03,0.07,0,0.09c-0.25,0.14-1.39,0-1.6-0.18
							C36.84,22.69,36.84,22.61,36.89,22.58z"/>
						<path fill="#B35F49" d="M36.65,23.15c0.26-0.01,1.06,0.49,1.21,0.76c0.02,0.03,0,0.07-0.03,0.08
							c-0.28,0.02-1.09-0.46-1.23-0.71C36.57,23.23,36.59,23.16,36.65,23.15z"/>
					</g>
					<path fill="#B35F49" d="M29.06,29.8c-0.43,0.08-1.92,0.44-1.8-1.21c0.01-0.08-0.06-0.14-0.08-0.07
						c-0.51,1.82,1.17,2.03,1.95,1.38C29.21,29.83,29.17,29.78,29.06,29.8z"/>
					<path fill="#2F333B" d="M26.67,16.63c-0.66,0.42-1.97,0.2-2.09,1.22c-0.1,0.84,1.72,1.39,3.08,0.63
						c1.52-0.85,1.68-2.62,1.02-2.93C27.67,15.08,27.24,16.26,26.67,16.63z"/>
					<path fill="#2F333B" d="M34.53,15.1c-0.77,0.54-0.21,1.99,1.2,2.49c1.05,0.38,2.33-0.19,2.28-0.97
						c-0.06-0.74-1.25-0.48-1.65-0.72C35.84,15.6,35.17,14.65,34.53,15.1z"/>
					<path fill="#B35F49" d="M33.82,18.4c0.03-0.16-1.17,2.43-1.03,4.45c0.1,1.41,0.73,1.99,1.6,2c0.96,0.01,1.9-0.99,1.59-1.51
						c-0.38-0.64-1.35,0.17-2.04-0.52C33.27,22.13,33.42,20.37,33.82,18.4z"/>
					<path fill="#B35F49" d="M31.27,34.16c-0.46-0.19-0.99,0.12-1.11,0.59c-0.13,0.53,0.3,1.01,0.84,1.1
						c0.15,0.02,0.16-0.07,0.02-0.13c-0.25-0.12-0.48-0.25-0.57-0.53c-0.08-0.28,0.02-0.59,0.29-0.72c0.26-0.12,0.57-0.02,0.67,0.26
						c0.07,0.2-0.03,0.35-0.25,0.35c-0.12,0-0.29-0.17-0.33-0.29c-0.01-0.03-0.05-0.02-0.05,0c-0.1,0.4,0.43,0.75,0.76,0.47
						C31.94,34.95,31.66,34.33,31.27,34.16z"/>
					<path fill="#B35F49" d="M34.84,28.49c-0.36-0.3-0.75-0.49-1.23-0.5c-0.31,0-0.55,0.13-0.84,0.18c-0.7,0.12-0.94-0.11-1.39-0.49
						c-0.89-0.74-2.26-0.19-3.14,0.33c-0.06,0.03-0.02,0.11,0.04,0.1c0.79-0.14,1.34-0.47,2.15-0.36c0.48,0.07,0.59,0.24,1.03,0.59
						c0.12,0.09,0.22,0.18,0.35,0.24c0.2,0.09,0.35,0.12,0.59,0.09c0.9-0.09,1.42-0.61,2.37-0.09
						C34.82,28.61,34.89,28.53,34.84,28.49z"/>
				</g>
			</g>
			<g>
				<g>
					<path fill="#DB876C" d="M25.86,46.92c0,0,1.92-0.71,2.51-1.56c0.59-0.85,0.69-2.47,0.44-3.01c-0.25-0.54-1.29-0.75-2.07,0.58
						C25.96,44.26,25.86,46.92,25.86,46.92z"/>
				</g>
				<path fill="#FFC95D" d="M40.05,42.31c-0.1,0.22-0.32,0.51-0.64,0.86c-0.15,0.15-0.31,0.31-0.49,0.48
					c-0.42,0.39-0.93,0.83-1.51,1.27c-0.15,0.11-0.29,0.22-0.45,0.33l0,0c-0.45,0.33-0.93,0.67-1.44,1
					c-0.15,0.09-0.29,0.19-0.45,0.28c-0.96,0.6-2,1.17-3.02,1.63c-0.12,0.05-0.24,0.11-0.36,0.16c-1.21,0.51-2.4,0.87-3.46,0.96
					c-0.09,0-0.17,0.01-0.26,0.02c-0.14,0-0.28,0-0.42,0c-0.79-0.03-1.77-0.22-2.84-0.53c-0.11-0.03-0.22-0.07-0.33-0.1
					c-1.18-0.36-2.46-0.85-3.72-1.41c-0.17-0.07-0.32-0.14-0.49-0.21c-1.04-0.48-2.07-1-3.01-1.52c-0.14-0.08-0.27-0.15-0.4-0.23
					c-0.69-0.4-1.32-0.79-1.86-1.17c-0.28-0.2-0.53-0.38-0.75-0.57c-0.73-0.58-1.19-1.12-1.24-1.5c-0.29-1.94,1.1-4,1.32-5.35
					c0.22-1.35-0.71-4.47,1.44-5.3c0.1-0.04,0.3,0.04,1.12,0.73c0.07,0.06,0.15,0.13,0.23,0.2c0.25,0.22,0.56,0.5,0.93,0.84
					c0.13,0.12,0.25,0.28,0.39,0.48c0.08,0.13,0.16,0.26,0.25,0.42c0.54,1,1.15,2.59,1.84,4.27c0.14,0.33,0.28,0.66,0.43,0.99
					c0.95,2.18,2.08,4.35,3.46,5.45c0.14,0.11,0.28,0.21,0.42,0.29c0.48,0.29,0.98,0.46,1.52,0.46c0.57,0,1.09-0.11,1.57-0.3
					c0.18-0.07,0.35-0.15,0.52-0.25c1.22-0.69,2.13-1.95,2.87-3.31c0.14-0.25,0.27-0.51,0.4-0.77c0.69-1.39,1.26-2.8,1.84-3.78
					c0.14-0.24,0.28-0.46,0.42-0.67c0.12-0.19,0.24-0.37,0.36-0.53c0.49-0.71,0.94-1.25,1.34-1.68c0.09-0.09,0.17-0.17,0.25-0.25
					c0.63-0.61,1.12-0.91,1.42-1.05c0.22-0.1,0.35-0.12,0.37-0.1l0,0c1.87,1.6,0.96,4.5,1.08,5.14
					C38.83,38.61,40.76,40.71,40.05,42.31z"/>
				<g>
					<path fill="#EFB647" d="M16.02,37.33c-0.93,2.08-2.21,4.54-1.12,6.78c-0.28-0.2-0.53-0.38-0.75-0.57
						c-0.56-1.75,0.19-3.86,0.91-5.46c0.41-0.9,0.82-1.7,0.94-2.7c0.07-0.6,0.06-1.21,0.17-1.81c0.11-0.56,0.29-1.05,0.62-1.46
						c0.07,0.06,0.15,0.13,0.23,0.2C16.26,33.79,16.73,35.76,16.02,37.33z"/>
					<path fill="#EFB647" d="M39.41,43.17c-0.15,0.15-0.31,0.31-0.49,0.48c0.01-0.82-0.08-1.61-0.39-2.42
						c-0.34-0.91-0.84-1.68-1.13-2.6c-0.28-0.88-0.15-1.75-0.06-2.64c0.07-0.66,0.24-2.13-0.07-3.06c0.22-0.1,0.35-0.12,0.37-0.1
						l0,0c0.46,1.1,0.2,2.99,0.08,3.74c-0.17,1.18,0.01,2.08,0.57,3.08c0.3,0.54,0.57,1.11,0.76,1.7
						C39.26,41.94,39.39,42.55,39.41,43.17z"/>
					<path fill="#EFB647" d="M37.41,44.92c-0.15,0.11-0.29,0.22-0.45,0.33c0.37-2.3-0.94-4-1.26-6.26c-0.21-1.45,0.28-3.27-0.1-4.77
						c0.09-0.09,0.17-0.17,0.25-0.25c0.61,1.42,0.08,3.62,0.28,4.94C36.42,40.89,37.83,42.92,37.41,44.92z"/>
					<path fill="#EFB647" d="M28.36,44.97c0,1.43-0.06,2.87-0.13,4.3c-0.09,0-0.17,0.01-0.26,0.02c-0.18-1.34-0.15-2.71-0.13-4.07
						C28.02,45.14,28.19,45.06,28.36,44.97z"/>
					<path fill="#EFB647" d="M35.52,46.25c-0.15,0.09-0.29,0.19-0.45,0.28c-0.01-0.79-0.03-1.57-0.12-2.36
						c-0.16-1.34-0.76-2.46-1.01-3.75c-0.19-0.96,0.05-2.05,0.03-3.01c-0.01-0.33-0.03-0.65-0.07-0.97
						c0.12-0.19,0.24-0.37,0.36-0.53c0.03,0.17,0.05,0.34,0.08,0.52c0.16,1.29-0.1,2.63,0.13,3.88c0.21,1.14,0.75,2.19,0.92,3.37
						C35.49,44.52,35.54,45.38,35.52,46.25z"/>
					<path fill="#EFB647" d="M32.05,48.15c-0.12,0.05-0.24,0.11-0.36,0.16c-0.13-2.18-0.21-4.35-0.44-6.53
						c0-0.04-0.01-0.08-0.01-0.12c0.14-0.25,0.27-0.51,0.4-0.77c0.01,0.21,0.03,0.42,0.04,0.63C31.87,43.73,32.02,45.93,32.05,48.15
						z"/>
					<path fill="#EFB647" d="M24.71,48.76c-0.11-0.03-0.22-0.07-0.33-0.1c-0.23-1.22-0.2-2.49-0.08-3.73c0-0.06,0.01-0.12,0.02-0.17
						c0.14,0.11,0.28,0.21,0.42,0.29C24.63,46.29,24.71,47.51,24.71,48.76z"/>
					<path fill="#EFB647" d="M16.89,42.38c-0.05,1.05,0.11,2.09,0.28,3.13c-0.14-0.08-0.27-0.15-0.4-0.23
						c-0.46-1.95-0.42-3.98,0.33-5.86c0.36-0.89,0.64-1.58,0.73-2.55c0.06-0.56,0.07-1.12,0.15-1.68c0.08-0.55,0.17-1.09,0.38-1.56
						c0.08,0.13,0.16,0.26,0.25,0.42c-0.42,1.53-0.14,3.26-0.72,4.76C17.38,40.07,16.95,41.01,16.89,42.38z"/>
					<path fill="#EFB647" d="M20.82,40.68c-0.16,2.25-0.48,4.35-0.17,6.57c-0.17-0.07-0.32-0.14-0.49-0.21
						c-0.41-2.26,0.12-4.59,0.22-6.87c0.03-0.61,0.03-1.23,0.04-1.84c0.14,0.33,0.28,0.66,0.43,0.99
						C20.86,39.76,20.85,40.22,20.82,40.68z"/>
				</g>
				<g>
					<g>
						<path fill="#F9EFE7" d="M29.96,37.23c1.66-0.71,2.24-1.08,4.03-1.38c0.11-0.02,0.17,0.15,0.08,0.21
							c-1.55,0.94-2.26,0.97-3.98,1.52C29.87,37.65,29.74,37.33,29.96,37.23z"/>
						<path fill="#F9EFE7" d="M29.69,41.03c1.55,0.92,2.2,1.17,3.5,2.43c0.08,0.08-0.02,0.23-0.12,0.19
							c-1.68-0.69-2.12-1.25-3.58-2.3C29.3,41.2,29.49,40.91,29.69,41.03z"/>
						<path fill="#F9EFE7" d="M30.48,39.21c1.8-0.08,3.8-0.26,5.58,0.08c0.11,0.02,0.11,0.2,0,0.22c-1.78,0.34-3.78,0.15-5.58,0.07
							C30.25,39.57,30.25,39.22,30.48,39.21z"/>
					</g>
					<g>
						<path fill="#F9EFE7" d="M21.82,35.4c-1.44-1.08-1.92-1.58-3.59-2.3c-0.1-0.04-0.2,0.1-0.12,0.18
							c1.28,1.28,1.97,1.48,3.51,2.42C21.81,35.83,22.01,35.54,21.82,35.4z"/>
						<path fill="#F9EFE7" d="M21.18,39.15c-1.73,0.52-2.42,0.61-3.98,1.52c-0.1,0.06-0.04,0.23,0.07,0.21
							c1.79-0.27,2.36-0.71,4.03-1.39C21.52,39.41,21.4,39.08,21.18,39.15z"/>
						<path fill="#F9EFE7" d="M20.84,37.19c-1.73-0.51-3.63-1.16-5.44-1.25c-0.11-0.01-0.16,0.17-0.05,0.22
							c1.65,0.75,3.64,1.04,5.41,1.39C20.99,37.6,21.07,37.26,20.84,37.19z"/>
					</g>
				</g>
				<g>
					<path fill="#DB876C" d="M17.43,44.74c0.15-1.77,1.92-5.66,2.9-6.39s1.57,0.21,1.89,0.39c0.33,0.18,0.97-0.14,1.48,0.07
						c0.51,0.22,1.02,0.73,1.23,0.86c0.21,0.14,0.96-0.12,1.59,0.28c0.62,0.4,0.69,1.08,0.91,1.3c0.23,0.23,0.97-0.18,1.38,1.1
						c0.19,0.59-0.79,1.17-1.43,2.36c-1.08,2-2.39,4.75-4.24,5.15C20.18,50.5,17.07,48.97,17.43,44.74z"/>
				</g>
				<path fill="#B35F49" d="M27.98,43.91c-0.77,0.72-1.46,1.71-1.75,2.73c-0.01,0.04,0.04,0.06,0.06,0.03
					c0.29-0.43,0.52-0.91,0.8-1.35c0.38-0.12,0.76-0.28,1.03-0.59c0.01-0.02,0-0.04-0.02-0.03c-0.31,0.17-0.62,0.34-0.93,0.5
					c0.27-0.43,0.56-0.84,0.84-1.26C28.03,43.92,28,43.9,27.98,43.91z"/>
			</g>
		</g>
	</g>
</g>
</svg>
