<?xml version="1.0" encoding="utf-8"?>
<!-- Generator: Adobe Illustrator 24.1.1, SVG Export Plug-In . SVG Version: 6.00 Build 0)  -->
<svg version="1.1" id="Layer_1" xmlns="http://www.w3.org/2000/svg" xmlns:xlink="http://www.w3.org/1999/xlink" x="0px" y="0px"
	 viewBox="0 0 461.99 60.69" enable-background="new 0 0 461.99 60.69" xml:space="preserve">
<rect x="-13.81" y="-5.45" display="none" fill="#423B8D" width="484" height="69.9"/>
<rect x="-13.81" y="-5.45" display="none" fill="#423B8D" width="484" height="70"/>
<g display="none">
	<g display="inline">
		<path fill="#08073F" d="M0.99,56.35c-4.6-2.4-8.2-5.8-10.9-10.2c-2.6-4.4-3.9-9.3-3.9-14.8s1.3-10.5,3.9-14.8s6.2-7.8,10.8-10.3
			s9.8-3.7,15.5-3.7c4.8,0,9.2,0.9,13.1,2.5c3.9,1.7,7.2,4.1,9.8,7.3l-8.3,7.6c-3.8-4.4-8.4-6.5-14-6.5c-3.5,0-6.5,0.8-9.2,2.3
			s-4.8,3.6-6.3,6.3s-2.3,5.8-2.3,9.2c0,3.5,0.8,6.5,2.3,9.2s3.6,4.8,6.3,6.3s5.8,2.3,9.2,2.3c5.6,0,10.2-2.2,14-6.6l8.3,7.6
			c-2.7,3.2-5.9,5.7-9.9,7.4c-3.9,1.7-8.3,2.5-13.1,2.5C10.69,60.15,5.49,58.85,0.99,56.35z"/>
		<path fill="#08073F" d="M170.19,3.45l-24.1,55.7h-12.7l-24-55.7h13.9l16.9,39.8l17.2-39.8C157.39,3.45,170.19,3.45,170.19,3.45z"
			/>
		<path fill="#08073F" d="M177.09,3.45h12.9v55.7h-12.9V3.45z"/>
		<path fill="#08073F" d="M205.49,3.45h25.3c6,0,11.4,1.1,16,3.5c4.6,2.3,8.2,5.6,10.8,9.7c2.6,4.1,3.9,9.1,3.9,14.6
			s-1.3,10.4-3.9,14.6c-2.6,4.2-6.2,7.4-10.8,9.7c-4.6,2.3-10,3.5-16,3.5h-25.3V3.45z M230.09,48.55c5.6,0,10-1.5,13.3-4.7
			c3.3-3.1,5-7.3,5-12.6s-1.7-9.5-5-12.6s-7.8-4.6-13.3-4.6h-11.8v34.5H230.09L230.09,48.55z"/>
		<path fill="#08073F" d="M271.29,31.75h22.5v9.9h-22.5V31.75z"/>
		<path fill="#08073F" d="M323.09,3.45v55.7h-12.9v-45.3h-11.1V3.45H323.09z"/>
		<path fill="#08073F" d="M372.99,9.65c4.4,4.7,6.6,11.6,6.6,20.5c0,6.3-1.2,11.7-3.5,16.2c-2.4,4.5-5.7,7.9-10,10.3
			c-4.3,2.4-9.3,3.5-14.9,3.5c-3,0-5.8-0.3-8.5-1c-2.7-0.7-5-1.6-6.9-2.8l4.8-9.5c2.7,1.9,6.2,2.8,10.4,2.8c4.7,0,8.5-1.4,11.2-4.2
			c2.8-2.8,4.2-6.8,4.5-12c-3.3,3.3-8,5-13.8,5c-3.5,0-6.8-0.7-9.7-2.2c-2.9-1.4-5.2-3.5-6.9-6.1c-1.7-2.6-2.5-5.7-2.5-9.1
			c0-3.7,0.9-7,2.8-9.8s4.4-5,7.6-6.5c3-1.4,6.5-2.2,10.4-2.2C362.49,2.55,368.59,4.95,372.99,9.65z M362.49,26.45
			c1.8-1.6,2.7-3.6,2.7-6s-0.9-4.4-2.6-6c-1.7-1.5-4.1-2.3-7.1-2.3c-2.8,0-5,0.7-6.7,2.2s-2.6,3.5-2.6,6s0.9,4.6,2.6,6.1
			s4,2.3,6.9,2.3C358.39,28.75,360.69,27.95,362.49,26.45z"/>
	</g>
	<g display="inline">
		<g>
			<path fill="#08073F" d="M104.79,30.45v-1.3c-7.9,0-6.3,0-6.9-3.4c2.5-1.6,4.4-2.4,10.5-4l-0.5-1.9c-12.2,3.3-10.8,2.1-12.1-0.4
				c1.1-1,2.3-1.9,5.2-3.6l-0.6-1.1c-2.9,1.7-4.2,2.4-5.6,2.8c-1.4-2.3-3.7-1.9,5.3-10.9l-1.4-1.4c-9,9-7.9,7.1-11.1,5.2
				c0.4-1.4,1.1-2.8,2.7-5.7l-1.1-0.6c-3.8,6.6-2.9,5.3-6,4.2c0-2.7,0.3-4.9,1.9-10.8l-1.9-0.5c-3.2,12.1-3.3,10.1-6.6,9.9
				c-0.4-1.5-0.5-3-0.5-6.6h-1.3c0,3.5,0,5-0.4,6.6c-2.8,0.1-3.6,2.3-6.9-10.2l-1.9,0.5c1.6,6.1,2.2,8,1.8,11.1
				c-0.8,0.3-1.5,0.6-2.2,1c-1-1.1-1.9-2.3-3.6-5.2l-1.1,0.7c1.7,2.9,2.4,4.2,2.8,5.6c-2.3,1.5-1.9,3.6-10.9-5.3l-1.5,1.4
				c10.5,10.5,7.3,12.8-0.5,8.3l-0.6,1.1c2.9,1.7,4.2,2.4,5.3,3.5c-1.2,2.3,0.2,4-11.9,0.7l-0.5,1.9c5.8,1.6,7.9,2.1,10.3,3.8
				c-0.2,0.9-0.3,1.9-0.3,2.8c-1.5,0.4-3,0.5-6.6,0.5v1.3c3.5,0,5,0,6.6,0.5c0.1,2.8,2.3,3.6-10.2,6.9l0.5,1.9
				c12.2-3.3,10.8-2.1,12.1,0.4c-1.1,1-2.3,1.9-5.2,3.6l0.6,1.1c2.9-1.7,4.2-2.4,5.6-2.8c1.5,2.3,3.6,1.9-5.3,10.9l1.4,1.4
				c9-9,7.9-7.1,11.1-5.2c-0.4,1.4-1.1,2.8-2.7,5.7l1.1,0.6c1.7-2.9,2.4-4.2,3.5-5.3c2.3,1.2,4-0.2,0.7,11.9l1.9,0.5
				c1.6-5.8,2.1-7.9,3.8-10.3c3.1,0.5,3.4-1,3.4,6.9h1.3c0-8,0-6.3,3.3-6.9c1.6,2.5,2.4,4.4,4,10.5l1.9-0.5c-1.6-6-2.2-8-1.8-11.1
				c2.5-0.9,2-2.3,5.8,4.2l1.1-0.6c-3.8-6.6-3.1-5.2-0.5-7.3c2.5,1.3,4.2,2.7,8.6,7l1.4-1.4c-9-9-7.1-7.9-5.2-11.1
				c1.4,0.4,2.8,1.1,5.7,2.7l0.6-1.1c-2.9-1.7-4.2-2.4-5.3-3.5c1.2-2.3-0.2-4,11.9-0.7l0.5-1.9c-5.8-1.6-7.9-2.1-10.3-3.8
				C98.39,30.85,96.89,30.45,104.79,30.45z"/>
		</g>
		<g>
			<path fill="#08073F" d="M86.89-1.75c-0.3,1.2-2,1.8-3.7,1.4s-2.9-1.8-2.6-3s2-1.8,3.7-1.4C85.99-4.25,87.19-2.95,86.89-1.75z"/>
			<path fill="#08073F" d="M101.59,8.35c-0.8,0.9-2.6,0.8-3.9-0.4s-1.8-2.8-1-3.8c0.8-0.9,2.6-0.8,3.9,0.4
				C101.99,5.65,102.39,7.35,101.59,8.35z"/>
			<path fill="#08073F" d="M108.49,24.05c-1.2,0.2-2.5-1-2.8-2.8s0.4-3.4,1.7-3.6s2.5,1,2.8,2.8
				C110.49,22.25,109.69,23.85,108.49,24.05z"/>
			<path fill="#08073F" d="M106.59,41.55c-1.2-0.4-1.6-2.1-1-3.8s2-2.7,3.2-2.3s1.6,2.1,1,3.8S107.79,42.05,106.59,41.55z"/>
			<path fill="#08073F" d="M96.79,56.15c-0.9-0.9-0.5-2.6,0.8-3.9s3-1.5,3.9-0.6s0.5,2.6-0.8,3.8
				C99.39,56.75,97.69,57.05,96.79,56.15z"/>
			<path fill="#08073F" d="M80.89,62.85c-0.3-1.2,1-2.5,2.7-2.8c1.8-0.3,3.4,0.3,3.6,1.6s-1,2.5-2.7,2.8
				C82.79,64.75,81.19,64.05,80.89,62.85z"/>
			<path fill="#08073F" d="M63.29,61.35c0.3-1.2,1.9-1.9,3.6-1.5s2.9,1.7,2.7,2.9s-1.9,1.9-3.6,1.5
				C64.29,63.85,63.09,62.65,63.29,61.35z"/>
			<path fill="#08073F" d="M48.89,52.15c0.7-1,2.4-1.1,3.9-0.2c1.5,1,2.2,2.6,1.5,3.6s-2.4,1.1-3.9,0.2
				C48.89,54.75,48.29,53.15,48.89,52.15z"/>
			<path fill="#08073F" d="M41.39,35.95c1.2-0.4,2.6,0.5,3.3,2.2c0.6,1.7,0.2,3.4-0.9,3.8c-1.2,0.4-2.6-0.5-3.3-2.2
				C39.79,38.15,40.19,36.45,41.39,35.95z"/>
			<path fill="#08073F" d="M43.49,18.15c1.2,0.3,1.8,2,1.4,3.7c-0.4,1.7-1.8,2.9-3,2.6s-1.8-2-1.4-3.7
				C40.99,19.05,42.29,17.85,43.49,18.15z"/>
			<path fill="#08073F" d="M53.79,3.45c0.9,0.9,0.6,2.6-0.6,3.9s-3,1.6-3.8,0.8c-0.9-0.9-0.6-2.6,0.6-3.9
				C51.09,2.95,52.89,2.65,53.79,3.45z"/>
			<path fill="#08073F" d="M69.49-4.05c0.3,1.2-0.8,2.6-2.5,3c-1.7,0.5-3.4-0.1-3.7-1.3c-0.3-1.2,0.8-2.6,2.5-3
				S69.09-5.15,69.49-4.05z"/>
			<path fill="#08073F" d="M77.49,0.35c0,0.8-0.9,1.6-2.1,1.6s-2.2-0.6-2.3-1.5c0-0.8,0.9-1.6,2.1-1.6
				C76.49-1.15,77.49-0.55,77.49,0.35z"/>
			<path fill="#08073F" d="M91.79,5.65c-0.4,0.8-1.6,0.9-2.7,0.4s-1.7-1.6-1.3-2.4c0.4-0.8,1.6-0.9,2.7-0.4
				C91.59,3.85,92.19,4.85,91.79,5.65z"/>
			<path fill="#08073F" d="M101.49,17.45c-0.7,0.5-1.8,0-2.5-1s-0.7-2.2,0-2.7s1.8,0,2.5,1S102.19,16.95,101.49,17.45z"/>
			<path fill="#08073F" d="M104.59,32.05c-0.8,0-1.5-1-1.5-2.2s0.7-2.2,1.6-2.2s1.5,1,1.5,2.2
				C106.09,31.15,105.49,32.05,104.59,32.05z"/>
			<path fill="#08073F" d="M99.29,45.95c-0.7-0.5-0.7-1.7,0-2.7s1.8-1.4,2.5-1c0.7,0.5,0.7,1.7,0,2.7S99.99,46.45,99.29,45.95z"/>
			<path fill="#08073F" d="M87.79,56.15c-0.5-0.7,0-1.8,1-2.5s2.2-0.6,2.7,0.1c0.5,0.7,0,1.8-1,2.5
				C89.49,56.85,88.29,56.85,87.79,56.15z"/>
			<path fill="#08073F" d="M73.19,59.45c-0.1-0.8,0.8-1.7,2-1.8c1.2-0.2,2.3,0.4,2.4,1.2c0.1,0.8-0.8,1.7-2,1.8
				C74.39,60.85,73.29,60.25,73.19,59.45z"/>
			<path fill="#08073F" d="M59.09,54.25c0.4-0.8,1.6-0.9,2.7-0.3c1.1,0.6,1.6,1.6,1.2,2.4c-0.4,0.8-1.6,0.9-2.7,0.3
				C59.29,56.05,58.79,54.95,59.09,54.25z"/>
			<path fill="#08073F" d="M48.69,42.75c0.6-0.6,1.8-0.3,2.6,0.6s1,2.1,0.4,2.7c-0.6,0.6-1.8,0.3-2.6-0.6S48.09,43.35,48.69,42.75z"
				/>
			<path fill="#08073F" d="M45.89,27.55c0.8,0,1.5,1,1.6,2.2c0,1.2-0.6,2.2-1.5,2.2c-0.8,0-1.5-1-1.6-2.2
				C44.39,28.65,44.99,27.65,45.89,27.55z"/>
			<path fill="#08073F" d="M50.89,13.35c0.8,0.3,1.1,1.5,0.7,2.6s-1.4,1.8-2.2,1.5s-1.1-1.5-0.7-2.6
				C49.19,13.75,50.09,13.05,50.89,13.35z"/>
			<path fill="#08073F" d="M62.59,3.35c0.5,0.7,0.1,1.8-0.9,2.5s-2.2,0.7-2.7,0s-0.1-1.8,0.9-2.5C60.89,2.65,62.09,2.65,62.59,3.35z
				"/>
		</g>
		<g>
			<path fill="#08073F" d="M82.99,48.45c0,1.4-2.8,2.5-6.4,2.5s-6.4-1.1-6.4-2.5c0-1.4,2.8-2.5,6.4-2.5
				C80.09,45.95,82.99,47.05,82.99,48.45z"/>
			<path fill="#08073F" d="M77.19,11.95c0,1.2-2.4,2.1-5.3,2.1s-5.3-1-5.3-2.1c0-1.2,2.4-2.1,5.3-2.1
				C74.79,9.85,77.19,10.75,77.19,11.95z"/>
			<path fill="#08073F" d="M64.59,43.85c-1.1,0.9-3.8-0.7-5.9-3.4c-2.2-2.8-3.1-5.7-2-6.5s3.8,0.7,5.9,3.4
				C64.79,40.05,65.69,42.95,64.59,43.85z"/>
			<path fill="#08073F" d="M92.29,33.75c1.4,0.7,1.4,3.4,0.1,6.1c-1.3,2.7-3.5,4.3-4.8,3.7s-1.4-3.4-0.1-6.1
				C88.69,34.65,90.89,33.05,92.29,33.75z"/>
			<path fill="#08073F" d="M61.89,15.85c1.4,0.7,1.4,3.4,0.1,6.1c-1.3,2.6-3.5,4.3-4.8,3.6s-1.4-3.4-0.1-6.1
				C58.39,16.85,60.49,15.15,61.89,15.85z"/>
			<path fill="#08073F" d="M91.89,19.55c1-0.2,2.1,1.2,2.5,3.1s-0.1,3.6-1,3.8c-1,0.2-2.1-1.2-2.5-3.1S90.99,19.75,91.89,19.55z"/>
			<path fill="#08073F" d="M82.39,11.85c0.7-0.7,2.4,0,3.7,1.4c1.3,1.5,1.8,3.2,1.1,3.8s-2.4,0-3.7-1.4
				C82.09,14.15,81.59,12.45,82.39,11.85z"/>
			<path fill="#08073F" d="M71.59,27.15c0,1.7-1.4,3.1-3.1,3.1s-3.1-1.4-3.1-3.1c0-1.7,1.4-3.1,3.1-3.1
				C70.29,24.15,71.59,25.45,71.59,27.15z"/>
			<path fill="#08073F" d="M81.09,19.95c0,1.6-1.3,2.8-2.8,2.8s-2.8-1.3-2.8-2.8s1.3-2.8,2.8-2.8S81.09,18.45,81.09,19.95z"/>
			<path fill="#08073F" d="M86.99,27.75c0,1-0.8,1.9-1.9,1.9s-1.9-0.8-1.9-1.9s0.8-1.9,1.9-1.9C86.09,25.85,86.99,26.75,86.99,27.75
				z"/>
			<circle fill="#08073F" cx="78.49" cy="35.45" r="1.8"/>
			<path fill="#08073F" d="M71.39,37.35c0,1.4-1.2,2.6-2.6,2.6s-2.6-1.2-2.6-2.6s1.2-2.6,2.6-2.6S71.39,35.95,71.39,37.35z"/>
			<path fill="#08073F" d="M82.49,40.55c0,1-0.8,1.9-1.9,1.9s-1.9-0.9-1.9-1.9s0.8-1.9,1.9-1.9S82.49,39.45,82.49,40.55z"/>
			<path fill="#08073F" d="M68.89,19.55c0,0.6-0.5,1.1-1.1,1.1s-1.1-0.5-1.1-1.1s0.5-1.1,1.1-1.1S68.89,18.95,68.89,19.55z"/>
			<path fill="#08073F" d="M65.59,30.35c0,0.9-0.7,1.7-1.7,1.7c-1,0-1.7-0.7-1.7-1.7s0.7-1.7,1.7-1.7
				C64.89,28.75,65.59,29.45,65.59,30.35z"/>
			<path fill="#08073F" d="M78.69,28.95c0,0.9-0.7,1.7-1.7,1.7s-1.7-0.7-1.7-1.7s0.7-1.7,1.7-1.7S78.69,28.05,78.69,28.95z"/>
			<path fill="#08073F" d="M88.79,20.55c0,1.4-1.1,2.5-2.5,2.5s-2.5-1.1-2.5-2.5s1.1-2.5,2.5-2.5S88.79,19.15,88.79,20.55z"/>
			<path fill="#08073F" d="M95.69,32.55c0,0.6-0.5,1.1-1.1,1.1s-1.1-0.5-1.1-1.1c0-0.6,0.5-1.1,1.1-1.1
				C95.29,31.45,95.69,31.95,95.69,32.55z"/>
			<path fill="#08073F" d="M65.89,47.85c0,0.7-0.6,1.3-1.3,1.3c-0.7,0-1.4-0.6-1.4-1.3s0.6-1.3,1.3-1.3
				C65.29,46.55,65.89,47.15,65.89,47.85z"/>
			<path fill="#08073F" d="M57.09,29.75c0,0.7-0.6,1.3-1.3,1.3s-1.3-0.6-1.3-1.3s0.6-1.3,1.3-1.3S57.09,29.05,57.09,29.75z"/>
		</g>
	</g>
</g>
<text id="MASTER" transform="matrix(1 0 0 1 -38.9743 482.5884)" display="none" fill="#FFFFFF" enable-background="new    " font-family="'Montserrat-Bold'" font-size="120.0399px" letter-spacing="3">COVID-19</text>
<path fill="#D71F30" d="M390.29,6.35h71.7v47.7h-71.7V6.35L390.29,6.35z"/>
<path fill="#FFFFFF" d="M390.29,31.35h71.7v25h-71.7V31.35L390.29,31.35z"/>
<g>
	<path fill="#FFFFFF" d="M106.02,36.38c0.09,2.25,1.67,4.27,3.97,4.79c2.75,0.63,5.51-1.1,6.14-3.85c0.63-2.75-1.1-5.51-3.85-6.14
		c-2.3-0.53-4.6,0.6-5.66,2.59l-2.75-0.63c0.55-3.64-0.03-7.45-1.85-10.91l6.33-3.97c0.65,0.6,1.43,1.04,2.32,1.24
		c1.33,0.31,2.71,0.07,3.87-0.65c1.16-0.73,1.97-1.86,2.27-3.2c0.31-1.33,0.07-2.71-0.65-3.87c-0.73-1.16-1.86-1.97-3.2-2.27
		c-1.33-0.31-2.71-0.07-3.87,0.65c-1.16,0.73-1.97,1.86-2.27,3.2c-0.2,0.89-0.15,1.78,0.11,2.63l-6.33,3.97
		c-2.32-3.14-5.5-5.32-9.01-6.41l0.63-2.75c2.25-0.09,4.27-1.67,4.79-3.97c0.63-2.75-1.1-5.51-3.85-6.14
		c-2.75-0.63-5.51,1.1-6.14,3.85c-0.53,2.3,0.6,4.6,2.59,5.66l-0.63,2.75c-3.55-0.54-7.26-0.01-10.65,1.7l-3.82-6.09
		c1.53-1.66,1.84-4.18,0.59-6.18C73.6,0,70.43-0.72,68.04,0.78c-2.39,1.5-3.12,4.67-1.62,7.06c0,0,0,0,0,0
		c0.75,1.2,1.92,1.98,3.2,2.27c0.86,0.2,1.76,0.15,2.63-0.11l3.8,6.06c-3.27,2.33-5.54,5.58-6.65,9.19l-2.75-0.63
		c-0.09-2.25-1.67-4.27-3.97-4.79c-2.75-0.63-5.51,1.1-6.14,3.85c-0.63,2.75,1.1,5.51,3.85,6.14c2.3,0.53,4.6-0.6,5.66-2.59
		l2.75,0.63c-0.55,3.64,0.03,7.45,1.85,10.91l-5.82,3.65c-1.66-1.53-4.18-1.84-6.18-0.59c-2.39,1.5-3.12,4.67-1.62,7.06
		c0.75,1.2,1.92,1.98,3.2,2.27c1.28,0.29,2.67,0.1,3.87-0.65c0,0,0,0,0,0c2-1.25,2.81-3.67,2.16-5.82l5.82-3.65
		c2.32,3.14,5.5,5.32,9.01,6.41l-0.63,2.75c-2.25,0.09-4.27,1.67-4.79,3.97c-0.63,2.75,1.1,5.51,3.85,6.14
		c2.75,0.63,5.51-1.1,6.14-3.85c0.53-2.3-0.6-4.6-2.59-5.66l0.63-2.75c3.73,0.56,7.65-0.06,11.17-1.99l3.8,6.06
		c-0.6,0.65-1.04,1.43-1.24,2.32c-0.31,1.33-0.07,2.71,0.65,3.87c0.73,1.16,1.86,1.97,3.2,2.27c1.33,0.31,2.71,0.07,3.87-0.65
		c1.16-0.73,1.97-1.86,2.27-3.2c0.31-1.33,0.07-2.71-0.65-3.87c-0.73-1.16-1.86-1.97-3.2-2.27c-0.89-0.2-1.78-0.15-2.63,0.11
		l-3.82-6.09c3.02-2.3,5.11-5.42,6.17-8.84L106.02,36.38z M82.56,20.97c0.4-1.76,2.16-2.86,3.91-2.46c1.76,0.4,2.86,2.15,2.46,3.91
		c-0.4,1.76-2.15,2.86-3.91,2.46C83.25,24.48,82.16,22.73,82.56,20.97z M85.81,32.1c-1.22-0.28-1.99-1.5-1.71-2.72
		c0.28-1.22,1.5-1.99,2.72-1.71c1.22,0.28,1.99,1.5,1.71,2.72C88.25,31.62,87.03,32.38,85.81,32.1z M93.13,30.69
		c-1.39-0.32-2.25-1.7-1.93-3.08c0.32-1.39,1.7-2.25,3.08-1.93c1.39,0.32,2.25,1.7,1.93,3.08C95.9,30.14,94.52,31.01,93.13,30.69z"
		/>
	<g>
		<path fill="#FFFFFF" d="M14.52,55.12c-4.51-2.43-8.06-5.8-10.64-10.1S0,35.85,0,30.42s1.29-10.3,3.87-14.6S10,8.15,14.52,5.72
			c4.51-2.42,9.59-3.64,15.23-3.64c4.75,0,9.04,0.83,12.88,2.5s7.06,4.07,9.66,7.2l-8.14,7.52c-3.71-4.28-8.3-6.42-13.78-6.42
			c-3.39,0-6.42,0.74-9.08,2.23c-2.66,1.49-4.73,3.56-6.22,6.22s-2.23,5.69-2.23,9.08s0.75,6.42,2.23,9.08s3.56,4.73,6.22,6.23
			c2.66,1.49,5.69,2.23,9.08,2.23c5.48,0,10.07-2.17,13.78-6.5l8.14,7.52c-2.61,3.18-5.84,5.61-9.7,7.28
			c-3.86,1.67-8.17,2.51-12.91,2.51C24.08,58.76,19.03,57.54,14.52,55.12z"/>
		<path fill="#FFFFFF" d="M176.59,3.02l-23.72,54.79h-12.53L116.71,3.02h13.7l16.67,39.14l16.9-39.14H176.59z"/>
		<path fill="#FFFFFF" d="M181.12,3.02h12.68v54.79h-12.68V3.02z"/>
		<path fill="#FFFFFF" d="M206.8,3.02h24.89c5.95,0,11.21,1.14,15.78,3.41s8.11,5.47,10.64,9.59s3.79,8.92,3.79,14.4
			c0,5.48-1.26,10.28-3.79,14.4c-2.53,4.12-6.08,7.32-10.64,9.59c-4.57,2.27-9.82,3.41-15.78,3.41H206.8V3.02z M231.06,47.41
			c5.48,0,9.85-1.53,13.12-4.58c3.26-3.05,4.89-7.19,4.89-12.4s-1.63-9.35-4.89-12.41c-3.27-3.05-7.63-4.58-13.12-4.58h-11.58v33.97
			H231.06z"/>
		<path fill="#FFFFFF" d="M269.34,30.89h22.15v9.78h-22.15V30.89z"/>
		<path fill="#FFFFFF" d="M318.02,3.02v54.79h-12.68V13.2h-10.96V3.02H318.02z"/>
		<path fill="#FFFFFF" d="M364.83,9.09c4.33,4.67,6.5,11.39,6.5,20.16c0,6.21-1.17,11.53-3.49,15.97c-2.32,4.44-5.59,7.8-9.82,10.1
			c-4.22,2.29-9.11,3.44-14.64,3.44c-2.92,0-5.71-0.33-8.37-0.98c-2.67-0.65-4.93-1.58-6.81-2.78l4.7-9.32
			c2.66,1.83,6.08,2.74,10.25,2.74c4.64,0,8.32-1.37,11.04-4.11c2.71-2.74,4.18-6.69,4.39-11.86c-3.3,3.29-7.84,4.93-13.63,4.93
			c-3.5,0-6.68-0.71-9.55-2.12c-2.88-1.41-5.14-3.4-6.81-5.99c-1.67-2.58-2.5-5.57-2.5-8.96c0-3.65,0.91-6.86,2.74-9.63
			c1.83-2.77,4.31-4.89,7.47-6.38c3.15-1.49,6.66-2.23,10.53-2.23C354.5,2.09,360.51,4.42,364.83,9.09z M354.54,25.61
			c1.75-1.54,2.62-3.51,2.62-5.91c0-2.4-0.85-4.36-2.54-5.87c-1.7-1.51-4.03-2.27-7-2.27c-2.71,0-4.92,0.73-6.62,2.19
			c-1.69,1.46-2.54,3.44-2.54,5.95s0.85,4.5,2.54,5.99c1.7,1.49,3.96,2.23,6.77,2.23C350.53,27.91,352.79,27.14,354.54,25.61z"/>
	</g>
</g>
</svg>
