<?xml version="1.0" encoding="utf-8"?>
<!-- Generator: Adobe Illustrator 24.1.1, SVG Export Plug-In . SVG Version: 6.00 Build 0)  -->
<svg version="1.1" id="Layer_1" xmlns="http://www.w3.org/2000/svg" xmlns:xlink="http://www.w3.org/1999/xlink" x="0px" y="0px"
	 viewBox="0 0 360 180" enable-background="new 0 0 360 180" xml:space="preserve">
<g>
	<path d="M255.94,62.77c0.03,0,0.07,0.01,0.11,0.01c0.15,0,0.27-0.1,0.38-0.2c0.09-0.08,0.18-0.16,0.29-0.19
		c0.01-0.17,0.05-0.33,0.11-0.49c-0.1,0.12-0.25,0.2-0.38,0.29c-0.24,0.14-0.48,0.29-0.52,0.58
		C255.93,62.77,255.93,62.77,255.94,62.77z"/>
	<path d="M216.62,78.03c0.02,0,0.05-0.01,0.07-0.02c-0.02,0-0.03-0.01-0.05-0.02c-0.06-0.01-0.13-0.02-0.19-0.04
		C216.51,78.01,216.57,78.03,216.62,78.03z"/>
	<path d="M221.47,75.98c-0.03,0.06-0.06,0.11-0.1,0.16c0.02-0.01,0.04-0.03,0.05-0.05c0.03-0.03,0.06-0.06,0.08-0.09L221.47,75.98z"
		/>
	<path d="M116.16,83.57c-0.01-0.01-0.02-0.02-0.02-0.02c-0.03-0.02-0.06-0.04-0.1-0.07c0,0.01,0.01,0.01,0.01,0.01
		C116.09,83.55,116.13,83.57,116.16,83.57z"/>
	<path d="M257.08,61.48c-0.03,0.02-0.06,0.04-0.1,0.04c0,0.04,0,0.08-0.01,0.11C257,61.59,257.04,61.54,257.08,61.48z"/>
	<path d="M293.82,95.58c-0.02,0.03-0.03,0.06-0.04,0.12c0.02-0.05,0.04-0.1,0.07-0.14C293.83,95.56,293.82,95.57,293.82,95.58z"/>
	<path d="M90.99,117.72c-0.02-0.04-0.04-0.08-0.09-0.12c0.03,0.06,0.06,0.1,0.09,0.15C90.99,117.74,90.99,117.73,90.99,117.72z"/>
	<path d="M165.86,99.94l-0.02,0.02c-0.01,0.01-0.01,0.05,0.08,0.18c0.01-0.02,0.02-0.02,0.03-0.04l0.07-0.12
		c-0.01,0-0.01,0-0.02-0.01c-0.05,0-0.11-0.02-0.14-0.02L165.86,99.94C165.86,99.94,165.86,99.94,165.86,99.94z"/>
	<path d="M1.98,24.86c0.4-0.32,0.27-0.64,0.13-0.95c-0.07-0.17-0.15-0.34-0.15-0.53c-0.13,0-0.26,0.01-0.39,0.01
		c-0.13,0.01-0.26,0.01-0.39,0.01c-0.18,0-0.32-0.01-0.45-0.04c-0.12-0.03-0.22-0.04-0.31-0.04c-0.14,0-0.24,0.03-0.31,0.11
		c-0.03,0.03-0.03,0.07-0.05,0.11c0,0.01-0.01,0.02-0.01,0.03C0.01,23.7,0,23.84,0,24c0,0.08,0.01,0.15,0.01,0.24
		c0.37,0.41,0.78,0.79,1.32,0.79C1.54,25.03,1.75,24.97,1.98,24.86z"/>
	<path d="M360,98.71l-0.01-8.05c-0.06-0.03-0.12-0.04-0.17-0.04c-0.04,0-0.09,0.01-0.11,0.03c-0.22-0.09-0.46-0.11-0.69-0.13
		c-0.37-0.03-0.74-0.06-1.03-0.38l-0.45-0.59c-0.31-0.72-0.85-0.82-1.35-0.82c-0.19,0-0.38,0.02-0.63,0.04
		c-0.11-0.03-0.23-0.05-0.38-0.05c-0.1,0-0.2,0.01-0.29,0.01c-0.1,0.01-0.19,0.01-0.29,0.01c-0.23,0-0.5-0.03-0.74-0.27
		c-0.28-0.43-0.6-0.64-1.01-0.64c-0.38,0-0.76,0.18-1.16,0.37l-1.11-0.01l-1.03-0.33c-0.92-0.75-2.03-1.1-3.1-1.44
		c-0.66-0.21-1.33-0.42-1.96-0.73c-0.67-0.28-1.29-0.7-1.89-1.1c-0.98-0.66-2-1.35-3.31-1.46c-1.37-0.11-2.29-0.42-2.74-0.92
		c-0.46-0.5-0.94-0.74-1.53-0.74c-0.39,0-0.78,0.1-1.19,0.21l-0.26,0.07c-0.45,0.11-0.87,0.35-1.28,0.57
		c-0.18,0.1-0.37,0.2-0.56,0.29c-0.2,0.08-0.4,0.17-0.6,0.26c-0.46,0.21-0.94,0.42-1.43,0.57c-0.07,0.02-0.15,0.04-0.22,0.06
		c-0.34,0.09-0.64,0.19-0.72,0.57c0,0,0,0.01,0,0.01c-0.01,0.07-0.04,0.13-0.03,0.22l-0.01,0.74c-0.09,0.15,0.05,0.32,0.17,0.48
		c0.11,0.14,0.22,0.29,0.18,0.41c-0.04,0.11-0.18,0.19-0.46,0.27c-0.02,0.05-0.03,0.11-0.03,0.15l-0.31,0.18l-0.15,0.05
		c-0.1-0.03-0.2-0.06-0.31-0.06c-0.21,0.01-0.4,0.1-0.57,0.2c-0.12,0.11-0.27,0.13-0.38,0.13c-0.07,0-0.13-0.01-0.2-0.01
		c-0.07-0.01-0.13-0.01-0.2-0.01c-0.18,0-0.38,0.03-0.51,0.28c-0.05,0.02-0.11,0.04-0.16,0.06c-0.1,0.05-0.21,0.09-0.33,0.09
		c0,0,0,0,0,0c-0.26-0.02-0.51-0.04-0.75-0.04c-0.95,0-1.93,0.22-2.08,1.88c-0.01,0.07-0.02,0.14-0.05,0.21
		c0,0.01-0.01,0.02-0.01,0.03c-0.19,0.52-0.79,0.89-1.06,1.03c-1.27,0.29-1.95,1-2.08,2.18c-0.02,0.18-0.12,0.31-0.22,0.44
		c-0.06,0.08-0.12,0.16-0.16,0.25c-0.08,0.09-0.18,0.17-0.27,0.25c-0.29,0.27-0.6,0.54-0.62,0.99c-0.11,0.05-0.23,0.09-0.35,0.13
		c-0.28,0.09-0.57,0.18-0.72,0.49l-0.57,0.8l-0.25,0.05c-0.65,0.13-1.33,0.27-1.97,0.27c-1.04,0-1.82-0.36-2.47-1.13l-0.2-0.47
		c0-0.06-0.02-0.11-0.05-0.11c0.05-0.08,0.05-0.16,0-0.23c0.04-0.17,0.15-0.33,0.25-0.48c0.23-0.35,0.48-0.7,0.01-1.16
		c-0.14-0.13-0.27-0.2-0.4-0.2c-0.19,0-0.36,0.14-0.52,0.27c-0.06,0.05-0.12,0.1-0.16,0.14c0,0-0.01,0.01-0.01,0.01l-0.28-0.8
		c-0.02-0.23-0.01-0.48,0.01-0.71c0.05-0.7,0.1-1.42-0.84-1.79c-0.02-0.07-0.04-0.14-0.05-0.22c-0.16-0.04-0.31-0.06-0.44-0.06
		c-0.06,0-0.09,0.03-0.14,0.03c-0.04,0.01-0.08,0.02-0.12,0.03c-0.11,0.03-0.21,0.08-0.29,0.15c-0.02,0.02-0.04,0.03-0.06,0.05
		c-0.21,0.22-0.33,0.55-0.43,0.92l-0.57-0.74L307,89.07c0.04-0.13,0.06-0.24,0.06-0.37c-0.69-0.91-0.67-1.96-0.65-2.98
		c0-0.22,0.01-0.45,0-0.67c-0.16-0.71,0.08-1.34,0.32-1.95c0.13-0.35,0.27-0.71,0.34-1.08l0.02-1.02c0.09-0.79-0.25-1.44-1.02-1.98
		l-0.4-0.51c-0.03-0.07-0.07-0.15-0.1-0.22c-0.11-0.22-0.22-0.43-0.09-0.66c0.23-0.41,0.3-0.73,0.23-0.98
		c-0.1-0.35-0.48-0.55-0.91-0.77c-0.12-0.06-0.24-0.13-0.37-0.2c-0.34-0.19-0.7-0.29-1.14-0.29c-0.26,0-0.52,0.03-0.78,0.06
		c-0.25,0.03-0.51,0.06-0.75,0.06c-0.28,0-0.52-0.04-0.73-0.12c-0.3-0.23-0.56-0.34-0.82-0.34c-0.09,0-0.17,0.01-0.23,0.05
		c0.02-0.06-0.01-0.12-0.1-0.17c-0.39,0-0.61-0.24-0.85-0.49c-0.15-0.16-0.31-0.33-0.52-0.43l-0.11,0.03l-0.08,0.03
		c-0.03-0.05-0.06-0.09-0.1-0.14c-0.16-0.1-0.34-0.14-0.59-0.14c0,0-0.01,0-0.01,0c-0.09,0.01-0.16,0.03-0.22,0.05
		c-0.78-0.5-1.68-0.87-2.77-1.15l-0.37-0.04c-0.28-0.04-0.56-0.07-0.84-0.07c-0.27,0-0.51,0.03-0.73,0.1l-1.66,0.02l-0.89,0.49
		l-0.72,0.35l-0.21,0.33c-0.04,0.01-0.09,0.02-0.13,0.03c-0.39,0.05-0.66,0.27-0.84,0.67c-0.2,0.24-0.42,0.35-0.72,0.35
		c0,0,0,0-0.01,0c-0.06,0-0.1,0.02-0.13,0.05c-0.01,0-0.01,0.01-0.01,0.01c-0.01,0.01-0.02,0.02-0.03,0.03
		c-0.25-0.06-0.45-0.09-0.62-0.09c-0.33,0-0.58,0.11-0.78,0.36c-0.05,0.06-0.1,0.13-0.15,0.22c-0.01,0.01-0.02,0.03-0.02,0.04
		c-0.04-0.08-0.07-0.16-0.11-0.25c-0.17-0.05-0.34-0.08-0.53-0.08c-0.39,0-0.77,0.12-1.13,0.24l-0.29,0.09
		c-0.74,0.62-1.11,1.3-1.16,2.08c-0.01,0.17-0.02,0.35,0,0.53c-0.09-0.13-0.14-0.29-0.2-0.45c-0.12-0.35-0.25-0.71-0.71-0.81
		c-0.06-0.01-0.12-0.02-0.18-0.02c-0.12-0.01-0.24-0.03-0.34-0.06c-0.13-0.19-0.1-0.45-0.07-0.71c0.01-0.11,0.02-0.23,0.01-0.35
		l-0.25-0.08c-0.14-0.09-0.26-0.13-0.37-0.13c-0.15,0-0.27,0.07-0.36,0.22c-0.04,0-0.12-0.01-0.12-0.01
		c-0.41,0.05-0.83,0.15-1.31,0.3c-0.13,0.1-0.27,0.17-0.44,0.22l-0.5-0.03l-0.52-0.03l-0.14,0.13c-0.07,0-0.13,0.01-0.21,0.02
		c-0.14,0.06-0.23,0.17-0.28,0.32c-0.02,0.04-0.04,0.07-0.05,0.11c0,0.01,0,0.02,0,0.03c0,0.01-0.01,0.02-0.01,0.03
		c-0.26,0.31-0.2,0.7-0.13,1.06c0,0.01,0,0.01,0,0.01c0,0,0,0,0,0c0,0.01,0,0.01,0,0.02c0.19-0.04,0.37-0.1,0.55-0.17
		c0.25-0.1,0.51-0.19,0.78-0.19c0.11,0,0.22,0.02,0.32,0.04c0.12,0.21,0.15,0.47,0.17,0.71c0.03,0.36,0.07,0.73,0.4,0.99
		c0.41,0.83,1.03,1.47,1.9,1.95c0.1,0.26,0.32,0.3,0.48,0.31c0.2,0.22,0.47,0.28,0.73,0.33c0.16,0.03,0.33,0.07,0.47,0.14l0.11,0.09
		l0.11-0.01c0.2,0.16,0.4,0.24,0.61,0.24c0.2,0,0.41-0.07,0.62-0.22c0.06-0.01,0.12-0.01,0.18-0.01c0.23,0,0.47-0.01,0.6-0.25
		l3.3,1.26c0.44,0.35,0.41,0.79,0.37,1.26c-0.03,0.35-0.05,0.72,0.14,1.02c-0.01,0.98,0.64,1.44,1.43,1.89
		c0.15,0.09,0.33,0.14,0.5,0.18c0.39,0.11,0.76,0.21,0.86,0.73c0.23,0.25,0.43,0.41,0.66,0.41c0.16,0,0.31-0.08,0.47-0.24
		c0.04-0.19,0.16-0.38,0.36-0.38c0.03,0,0.06,0.01,0.09,0.02c0.18,0.05,0.37,0.08,0.56,0.12c0.06,0.01,0.11,0.03,0.17,0.04
		c0.52,0.1,1.06,0.16,1.67,0.16c0.77,0,1.56-0.07,2.32-0.14l0.62-0.06c0.52,0.09,1.13,0.17,1.75,0.17c0.5,0,0.95-0.06,1.39-0.17
		c0.13-0.07,0.24-0.16,0.37-0.26c0.17,0,0.36-0.05,0.55-0.1c0.18-0.05,0.37-0.1,0.54-0.1s0.29,0.05,0.39,0.14
		c0.03,0.2,0,0.36-0.08,0.51c-0.48,0.7-0.81,1.05-1.26,1.05c-0.31,0-0.7-0.18-1.18-0.45l-0.18-0.1c-0.34-0.2-0.69-0.4-1.06-0.4
		c-0.23,0-0.45,0.08-0.66,0.23c-0.78,0.13-1.44,0.52-1.93,1.16c-0.39,0.11-0.59,0.38-0.6,0.8c-0.09,0-0.17,0.02-0.24,0.06
		c-0.3,0.04-0.4,0.29-0.49,0.54c-0.1,0.27-0.2,0.52-0.57,0.52c-0.61-0.57-2.17-0.83-3.45-0.83c-1.25,0-2.25,0.23-2.66,0.61
		c-0.14,0.13-0.22,0.27-0.1,0.53c0.37,0.83,0.76,1.68,1.82,1.68c0.1,0,0.2-0.01,0.3-0.02c0.17-0.02,0.33-0.03,0.49-0.03
		c0.97,0,1.72,0.44,2.29,1.32c0.14,0.22,0.27,0.46,0.38,0.73c0,0.01-0.01,0.01-0.01,0.02c0.21,0.75,0.72,1.24,1.65,1.59l0.11,0.52
		l-0.6,1.11c-0.29,0.74-0.28,1.59,0.02,2.28c0.23,0.53,0.62,0.92,1.08,1.09c0.12,0.16,0.24,0.24,0.37,0.29c0.01,0,0.01,0,0.02,0.01
		c0.06,0.02,0.11,0.05,0.18,0.05c0.23,0,0.46-0.15,0.68-0.29l0.16-0.11l0.8,0.05c0.19,0.25,0.46,0.32,0.73,0.38
		c0.14,0.03,0.29,0.07,0.42,0.13c0.23,0.39,0.61,0.59,0.97,0.79c0.19,0.1,0.38,0.21,0.55,0.33l0.11,0.09
		c0.18,0.14,0.37,0.3,0.56,0.3c0.14,0,0.26-0.09,0.37-0.26c0.28-0.48-0.34-0.87-0.54-1c-0.17-0.11-0.36-0.2-0.54-0.29
		c-0.49-0.24-0.99-0.49-1.22-1.06l0.62-0.71c0.68-0.24,0.61-0.7,0.53-1.15c-0.04-0.22-0.07-0.45-0.02-0.63
		c0.39-0.24,0.71-0.35,1.01-0.35c0.31,0,0.59,0.12,0.86,0.36c0.19,0.3,0.48,0.33,0.76,0.36c0.14,0.01,0.29,0.03,0.41,0.08l0.42,0.25
		c1.01,0.6,2.06,1.21,2.71,2.3c0.04,0.01,0.09,0.02,0.13,0.02c0.16,0,0.28-0.09,0.35-0.25c0.09-0.05,0.16-0.18,0.23-0.29
		c0.09-0.15,0.17-0.3,0.3-0.3c0.09,0,0.19,0.06,0.31,0.19c0.71,0.74,1.55,1.38,2.72,2.08l0.59,0.31l0.2-0.06
		c0.02,0.03,0.04,0.06,0.06,0.11c0.06,0.03,0.14,0.05,0.21,0.05c0.21,0.56,0.71,0.73,1.2,0.89l0.24,0.08l0.86,0.22
		c0.51,0.08,1.01,0.14,1.52,0.21c0.7,0.09,1.4,0.18,2.1,0.31c3.22,0.6,6.13,1.92,8.55,3.13l1.41,0.46c0.46,0.17,0.93,0.31,1.4,0.46
		c0.68,0.2,1.37,0.42,2.02,0.7c0.01,0.01,0.03,0.01,0.04,0.02c0.21,0.09,0.41,0.19,0.61,0.3c0.05,0.22,0.22,0.25,0.38,0.27
		c0.09,0.01,0.17,0.03,0.23,0.07l0.15,0.07l0.21,0.1c0,0,0.01,0.09,0.02,0.09c0.39,0.39,0.85,0.71,1.3,1.02
		c0.91,0.62,1.85,1.27,2.16,2.51l0.05,0.24l0.06,0.25c0.1,0.06,0.2,0.12,0.3,0.18c0.56,0.33,1.08,0.64,1.27,1.35l0.09,0.33
		c0.39,1.52,0.8,3.09,2.16,4.17c0.41,0.32,0.58,0.87,0.47,1.48c-0.1,0.19-0.17,0.39-0.24,0.59c-0.07,0.22-0.15,0.45-0.27,0.66
		c-0.04,0.07-0.05,0.12-0.08,0.19c0,0,0,0.01,0,0.01c-0.05,0.12-0.08,0.23-0.09,0.33c0,0.05,0,0.09,0.01,0.14
		c0.01,0.03-0.01,0.08,0,0.11c0.05,0.13,0.16,0.23,0.31,0.32c0.01,0,0.02,0.01,0.02,0.01c0.05,0.03,0.1,0.06,0.17,0.09l-0.03,0.02
		c0,0,0,0,0,0c0,0,0.01-0.01,0.02-0.02c0.01,0,0.01,0.01,0.02,0.01c0,0,0,0,0,0l-0.05,0.03l0.05-0.03c0.02,0.09,0.09,0.17,0.15,0.24
		c0.13,0.14,0.24,0.28,0.04,0.52c-0.29,0.35-0.2,0.73-0.05,1.07c0.02,0.04,0.03,0.08,0.05,0.12c-0.29,0.02-0.56,0.11-0.81,0.28
		c-0.31,0.4-0.79,0.45-1.24,0.51c-0.49,0.06-1,0.12-1.31,0.58c-1.87,1.05-2.69,2.87-3.48,4.63c-0.14,0.31-0.28,0.62-0.41,0.91
		c-0.04,0.01-0.06,0.04-0.08,0.06c0,0-0.01,0.01-0.01,0.01c-0.04,0.04-0.06,0.09-0.06,0.15c0,0,0,0.01,0,0.01
		c0,0.03-0.01,0.05,0,0.09c-0.06,0.13-0.13,0.26-0.21,0.39c-0.26,0.45-0.53,0.91-0.14,1.48c0.11,0.16,0.24,0.25,0.38,0.29
		c0.01,0,0.03,0.01,0.04,0.01c0.04,0.01,0.08,0.03,0.12,0.03c0.18,0,0.35-0.08,0.53-0.15c0.17-0.07,0.34-0.15,0.53-0.15l0.54,0.03
		c0.27-0.07,0.52-0.11,0.77-0.11c0.45,0,0.88,0.11,1.32,0.35c0.53,0.28,0.98,0.41,1.39,0.41c0.27,0,0.52-0.06,0.74-0.18
		c0.32-0.17,0.64-0.26,0.99-0.26c0.42,0,0.83,0.12,1.26,0.25l0.1,0.03c0.15-0.03,0.3-0.08,0.43-0.13c0.11,0.02,0.2,0.03,0.29,0.03
		c0.24,0,0.44-0.08,0.62-0.25l-0.01-0.01c0,0,0,0,0,0l0.11,0.02c0.29-0.07,0.48-0.28,0.64-0.49c0.67-0.91,0.94-1.29,1.42-1.29
		c0.33,0,0.78,0.18,1.53,0.49c0.6-0.01,1.22-0.06,1.71-0.53c0.04-0.04,0.08-0.07,0.1-0.1c0.11,0.04,0.23,0.06,0.37,0.06
		c0.18,0,0.36-0.03,0.54-0.06c0.18-0.03,0.36-0.06,0.54-0.06c0.06,0,0.11,0,0.17,0.01l0.1,0c0.2,0,0.4,0.02,0.59,0.06
		c0.04,0.01,0.09,0.02,0.13,0.02c0.12,0.02,0.23,0.04,0.32,0.13c0.07,0.03,0.15,0.05,0.22,0.05c0.01,0,0.02,0,0.02,0
		c0.1,0.34,0.37,0.5,0.63,0.66c0.19,0.12,0.38,0.23,0.51,0.41c0.13,0.39,0.45,0.57,0.77,0.74l0.1,0.06l0.38,0.22l0.13,0.07
		c0.07,0.32,0.34,0.42,0.6,0.53c0.46,0.4,0.8,0.91,1.13,1.4c0.43,0.64,0.88,1.3,1.58,1.73c0.28,0.17,0.5,0.45,0.7,0.72
		c0.29,0.38,0.61,0.76,1.11,0.85c0.01,0,0.02,0,0.03,0.01c0.07,0.01,0.13,0.04,0.2,0.04c0.07,0,0.13,0,0.2-0.01l0.29-0.02v-18
		c0-0.01-0.08,0-0.08-0.01c0,0-0.09,0-0.09,0c-0.5-1.24-0.29-2.45,0.18-3.87V98.71z M293.82,95.58c0.01-0.01,0.02-0.02,0.03-0.02
		c-0.02,0.05-0.04,0.09-0.07,0.14C293.78,95.64,293.8,95.6,293.82,95.58z"/>
	<path d="M78.93,115.88l0.12-0.09c0.15-0.11,0.3-0.22,0.31-0.38c0.01-0.11-0.05-0.23-0.18-0.36c-0.31-0.21-0.26-0.48-0.21-0.76
		c0.02-0.12,0.04-0.24,0.03-0.34c0.11-0.15,0.24-0.22,0.38-0.22c0.13,0,0.27,0.07,0.41,0.13c0.08,0.04,0.16,0.07,0.26,0.14
		c0.05,0.08,0.1,0.16,0.2,0.16c0.01,0,0.02,0,0.03,0c0.02,0,0.04,0,0.07,0.02l0.27,0.6l1.15,1.26l0.53,0.58
		c0.08,0.01,0.16,0.01,0.24,0.01c0.45,0,0.82-0.14,1.09-0.41c0.39-0.39,0.58-1.07,0.57-2.01l0.06-2.69l0.2-0.15l0.03-0.52l0-0.38
		c0-0.04,0-0.08,0.01-0.13c0-0.01,0-0.02-0.01-0.03l0-0.06l0.14-0.17c0.07-0.09,0.15-0.18,0.22-0.28c0.05-0.15,0.07-0.29,0.11-0.43
		c0.02-0.06,0.03-0.12,0.05-0.18c0.07-0.27,0.12-0.53,0.15-0.78c0.02-0.12,0.02-0.24,0.03-0.36c0.01-0.21,0.01-0.42,0-0.62
		c-0.01-0.1-0.02-0.2-0.04-0.3c-0.03-0.22-0.08-0.44-0.15-0.65c-0.03-0.08-0.06-0.16-0.09-0.24c-0.04-0.11-0.07-0.23-0.12-0.34
		l-0.06-0.69c-0.27-1.44-0.08-2.93,0.59-4.58c-1.24-2.09-1.23-2.64,0.1-4.22c0.12-0.14,0.23-0.29,0.34-0.44l0.14-0.2
		c0.09-0.02,0.17-0.05,0.24-0.11c0.21-0.34,0.35-0.71-0.04-1.07c-0.29-0.09-0.27-0.32-0.26-0.59c-0.13-0.1-0.17-0.26-0.21-0.43
		c-0.04-0.16-0.08-0.32-0.25-0.44c-0.02-0.02-0.04-0.03-0.07-0.05c0,0-0.01-0.01-0.01-0.01c0.05,0.02,0.1,0.04,0.15,0.06
		c0.37,0.18,0.77,0.26,1.17,0.34c0.5,0.1,1.01,0.2,1.44,0.5c0.46,0.76,1.07,1.13,1.85,1.13c0.36,0,0.75-0.08,1.2-0.24l0.06-0.07
		l0.12,0c1.41-0.45,1.53-0.67,1.17-2.2c-0.2-0.1-0.42-0.15-0.66-0.15c-0.33,0-0.65,0.1-0.97,0.19l-0.22,0.08
		c-0.22-0.58,0.07-0.95,0.34-1.3c0.24-0.31,0.47-0.6,0.38-1.01c0.05-0.25-0.03-0.43-0.25-0.52c-0.32-0.53-0.78-0.6-1.23-0.6
		c-0.1,0-0.5,0.01-0.6,0.01c-0.1,0-0.2,0-0.37-0.02c-0.1,0-0.21,0.02-0.32,0.04c-0.11,0.02-0.23,0.04-0.34,0.04
		c-0.22,0-0.46-0.07-0.48-0.61c0-0.05-0.02-0.08-0.03-0.12c-0.01-0.04-0.02-0.08-0.03-0.12c-0.02-0.07-0.06-0.12-0.11-0.17
		c-0.03-0.02-0.06-0.05-0.09-0.06c-0.03-0.02-0.05-0.05-0.09-0.07c-0.45-0.27-0.68-0.75-0.66-1.42c0.03-1.33-0.25-2.5-0.87-3.66
		c-0.55-1.03-1-1.6-1.8-1.6c-0.34,0-0.75,0.1-1.29,0.31c-0.04,0.01-0.09,0.01-0.13,0.01c-0.22,0-0.45-0.08-0.67-0.16
		c-0.23-0.08-0.46-0.16-0.68-0.16c-0.32,0-0.57,0.17-0.77,0.54c-0.53,0.27-0.78,0.76-0.78,1.51c0,0.7-0.33,1-1.11,1.02
		c-0.18,0.01-0.34,0.1-0.47,0.28c-0.13,0.3-0.32,0.52-0.58,0.68c-0.21,0.17-0.28,0.4-0.21,0.71c0.08,0.18,0.2,0.34,0.36,0.48
		c0.25,0.2,0.55,0.33,0.92,0.4c0.24,0.03,0.48,0.09,0.71,0.15l0.26,0.07c0.33,0.07,0.69,0.11,1.1,0.11c0.18,0,0.36-0.01,0.54-0.02
		c0.06,0,0.12-0.01,0.18-0.01c0.83,0,1.28,0.37,1.67,1.37c0.2,0.52,0.31,1.06,0.43,1.58c0.04,0.2,0.09,0.39,0.15,0.58
		c0.01,0.05,0.02,0.11,0.04,0.16c-0.07-0.1-0.14-0.19-0.21-0.28c-0.24-0.3-0.48-0.62-0.58-1.01c-0.36-1.47-0.43-1.78-1.5-1.78
		c-0.24,0-0.54,0.02-0.92,0.04l-0.13,0.03c-0.18,0.04-0.37,0.07-0.49,0.18c-0.27-0.03-0.53-0.06-0.81-0.08
		c-2.31-0.15-2.31-0.15-2.42-2.45l-1.05-0.12c-0.91-0.31-1.17-1.07-1.41-1.81c-0.14-0.42-0.29-0.86-0.55-1.21
		c-0.46-0.53-0.51-1.19-0.55-1.82c-0.02-0.3-0.06-0.6-0.12-0.89c0-0.01-0.01-0.02-0.01-0.03c-0.03-0.12-0.05-0.25-0.09-0.36
		c0.06-0.32-0.05-0.59-0.16-0.86c-0.06-0.14-0.12-0.29-0.15-0.44c-0.15-0.43-0.41-0.62-0.92-0.67c-0.2-0.02-0.4-0.02-0.6-0.03
		c-0.42-0.01-0.85-0.02-1.26-0.18c-0.32,0-0.69,0.02-1.08,0.13c-0.15,0.04-0.31,0.06-0.48,0.06c-1.27,0-2.79-1.16-3.12-2.37
		l0.87-1.06c0.19-0.14,0.42-0.25,0.65-0.37c0.44-0.22,0.87-0.45,1.05-0.84c0,0,0,0,0-0.01c0.04-0.09,0.08-0.17,0.09-0.27
		c0.06-0.57-0.44-0.73-0.92-0.9c-0.23-0.08-0.46-0.16-0.64-0.28c-0.13-0.09-0.2-0.17-0.2-0.24c0-0.08,0.11-0.15,0.23-0.22
		c0.13-0.08,0.26-0.15,0.26-0.26l0.4-0.11l0.5-0.12c0.09,0,0.18,0.01,0.27,0.01c0.26,0,0.53-0.02,0.64-0.2
		c0.1-0.16,0.05-0.41-0.14-0.78l-0.31-0.48c-0.02-0.14-0.01-0.28,0-0.42c0.02-0.34,0.03-0.7-0.28-1.04l-0.04-0.39
		c-0.22-1.09-1.11-1.27-2-1.44l-0.68-0.18l-0.56-0.13c0.05-0.18,0.14-0.27,0.29-0.27c0.07,0,0.15,0.02,0.22,0.03l0.12,0.02
		c0.07,0.01,0.13,0.01,0.19,0.01c0.2,0,0.35-0.07,0.48-0.16c0.03-0.02,0.05-0.04,0.08-0.07c0.04-0.04,0.08-0.06,0.11-0.1
		c0.02-0.04,0.02-0.09,0.04-0.13c0.01-0.02,0.02-0.05,0.02-0.07c0.03-0.1,0.03-0.19,0.02-0.29c0-0.02-0.01-0.05-0.01-0.07
		c-0.01-0.05-0.01-0.1-0.03-0.14c-0.18-0.38-0.27-0.79-0.35-1.18c-0.08-0.39-0.16-0.79-0.34-1.15l-0.04-0.08
		c-0.15-0.31-0.31-0.66-0.66-0.66c-0.09,0-0.19,0.02-0.29,0.07c-0.41,0.19-0.79,0.48-0.54,1.21l0.08,0.2
		c0.15,0.4,0.32,0.84,0.13,1.24c-0.03,0.05-0.06,0.11-0.1,0.16c-0.01,0.01-0.01,0.02-0.02,0.03c-0.06,0.07-0.14,0.13-0.23,0.19
		c0-0.07-0.01-0.14-0.05-0.21c-0.04,0-0.07-0.01-0.11-0.01c-0.04,0-0.08,0.02-0.12,0.03c0,0-0.01,0-0.01,0
		c-0.13,0.02-0.25,0.07-0.37,0.15c-0.01,0.01-0.03,0.02-0.04,0.03c-0.05,0.04-0.1,0.06-0.15,0.11c-0.03,0-0.06,0.03-0.09,0.11
		c-0.01,0.04,0,0.09-0.01,0.11c-0.13,0.13-0.25,0.21-0.36,0.29c-0.04,0.02-0.09,0.05-0.13,0.07c0.09-0.12,0.16-0.28,0-0.47
		c0.16-0.09,0.25-0.24,0.32-0.41c0.02-0.04,0.05-0.08,0.07-0.13c0.01-0.02,0.01-0.03,0.01-0.05c0.09,0.04,0.18,0.07,0.25,0.07
		c0.21,0,0.36-0.16,0.45-0.5c-0.17-1.25-1.11-1.79-1.91-2.12c-0.08-0.03-0.16-0.05-0.24-0.05l-0.3-0.55
		c-0.24-0.47-0.62-0.56-0.9-0.56c-0.13,0-0.27,0.02-0.41,0.06c-0.17,0.05-0.32,0.08-0.45,0.08c-0.48,0-0.64-0.35-0.77-0.99
		c-0.02-0.1-0.03-0.2-0.03-0.31c-0.02-0.26-0.04-0.52-0.23-0.72c-0.31-0.48-0.65-0.79-1.03-0.97c0,0,0,0,0,0
		c-0.25-0.12-0.51-0.2-0.8-0.2c-0.07,0-0.14,0.02-0.21,0.03c-0.01,0-0.02,0-0.03,0c-0.13,0.01-0.25,0.02-0.38,0.05
		c-0.06,0.03-0.11,0.06-0.15,0.1l-0.49-0.23l-0.51-0.24c-0.08,0.03-0.16,0.07-0.24,0.11c-0.19,0-0.34,0.13-0.48,0.25
		c-0.14,0.12-0.27,0.24-0.45,0.24c-0.06,0-0.12-0.01-0.17-0.02c-0.01-0.07-0.02-0.13-0.05-0.21l-0.33-0.12l-0.32-0.1
		c0.01-0.05,0.02-0.1,0.03-0.16c0-0.57-0.02-1.07-0.08-1.57c0-0.03-0.01-0.06-0.01-0.09c-0.02-0.16-0.03-0.33-0.06-0.49l-0.33-0.49
		l-0.2-0.11c-0.02-0.08-0.01-0.15,0.02-0.23c0.06-0.27,0.03-0.47-0.07-0.6c-0.1-0.13-0.29-0.2-0.58-0.2c-0.01,0-0.01,0-0.02,0
		c-0.54,0.31-1.08,0.46-1.6,0.46c-0.87,0-1.72-0.43-2.62-1.32c-0.16-0.15-0.33-0.29-0.49-0.43l-0.23-0.19
		c-0.3-0.27-0.56-0.41-0.79-0.41c-0.42,0-0.7,0.41-0.98,0.81l-0.16,0.23l-0.07,0.72c-0.18,0.1-0.35,0.15-0.54,0.15
		c-0.32,0-0.63-0.15-0.93-0.29l-0.12-0.05c-0.03-0.07-0.09-0.11-0.13-0.17c-0.03-0.05-0.06-0.09-0.1-0.14
		c-0.17-0.19-0.36-0.37-0.61-0.52c-0.25-0.26-0.33-0.6-0.39-0.93c-0.07-0.36-0.15-0.72-0.44-0.98l-0.59-1.3
		c-0.13-0.31-0.41-0.47-0.68-0.62c-0.27-0.15-0.54-0.31-0.69-0.63c-0.47-1.01-1.44-1.54-2.22-1.89l-5.79-4.49
		c-0.11-0.08-0.24-0.15-0.38-0.19l-0.16,0.06c-0.17-0.07-0.36-0.09-0.54-0.1l-0.16-0.01c-0.52-0.8-1.14-1.58-2.19-1.88l-0.45-0.24
		l-0.55-0.62c-0.14-0.33-0.42-0.53-0.69-0.73c-0.25-0.18-0.51-0.37-0.65-0.66l-0.05-0.83c0.05-0.99-0.67-1.29-1.36-1.58l-0.13-0.05
		c-0.04-0.02-0.09-0.03-0.14-0.04c-0.09-0.03-0.2-0.05-0.21-0.1l-0.04-0.13c-0.6-1.77-1.22-3.61-3.37-4.24
		c-0.11-0.03-0.17-0.18-0.25-0.33c-0.06-0.12-0.12-0.25-0.2-0.33l-0.15-0.16c-0.25-0.28-0.49-0.54-0.82-0.54
		c-0.05,0-0.1,0.03-0.15,0.04c-0.01,0-0.03,0.01-0.04,0.01c-0.17,0.05-0.34,0.14-0.53,0.32c-0.16,0.15-0.38,0.23-0.64,0.23
		c-0.28,0-0.63-0.09-1.05-0.27c-0.67-0.29-1.4-0.44-2.14-0.44c-0.51,0-1.03,0.07-1.53,0.21c-1.05,0.29-2.05,0.43-3.06,0.43l-0.17,0
		L7,27.75c-0.98-1.3-2.08-2.1-3.37-2.45c-0.13,0-0.26-0.01-0.39-0.02c-0.14-0.01-0.27-0.02-0.4-0.02c-0.17,0-0.31,0.02-0.43,0.07
		c-0.18,0.07-0.38,0.1-0.58,0.13c-0.56,0.09-1.13,0.19-1.26,0.99c-0.14,0.63-0.14,1.28,0.02,1.93c-0.04,0.23-0.06,0.48,0.22,0.6
		c0.11,0.16,0.01,0.3-0.11,0.46c-0.09,0.13-0.18,0.26-0.15,0.39c0.02,0.09,0.08,0.17,0.22,0.25c0,0,0,0-0.01,0
		c0.03,0.08,0.03,0.16,0.01,0.26l1.89,3.09c0.15,0.36,0.47,0.55,0.77,0.73l0.16,0.1L5,35.59l0.81,1.14c0.16,0.49,0.59,0.66,1,0.82
		c0.4,0.16,0.81,0.32,0.97,0.78c0.1,0.3,0.3,0.49,0.58,0.57l1.29,1.18c0.07,0.1,0.13,0.21,0.19,0.32c0.17,0.31,0.34,0.62,0.71,0.77
		c1.87,0.28,3.25,1.2,4.23,2.8c0.12,0.19,0.31,0.33,0.5,0.47c0.1,0.07,0.2,0.14,0.28,0.23l-0.02,0.02c0,0,0,0,0,0
		c0,0,0.01-0.01,0.02-0.02c0,0,0.01,0.01,0.01,0.01l-0.03,0.03l0.04-0.03c0,0,0,0,0,0c0.1,0.41,0.2,0.84,0.56,1.12
		c0.38,0.6,0.95,1.06,1.5,1.52c0.68,0.56,1.39,1.14,1.74,1.98c0,0.01,0.01,0.02,0.01,0.03c0.05,0.12,0.09,0.25,0.12,0.38
		c0.02,0.08,0.03,0.17,0.05,0.26c0.02,0.1,0.04,0.2,0.04,0.31c-0.39,0.62-0.36,1.25,0.06,1.93c0.26,0.66,0.86,0.68,1.38,0.7
		l0.15,0.01c1.14,0.06,2.19,0.49,3.25,0.93l0.22,0.36c0.75,0.17,1.27,0.69,1.76,1.2c0.15,0.15,0.29,0.3,0.44,0.44
		c0.18,0.29,0.42,0.58,0.8,0.58c0.05,0,0.09-0.01,0.12-0.03c0,0,0,0,0,0c-0.01,0.18-0.01,0.37,0,0.55c0.01,0.28,0.02,0.58-0.04,0.87
		c0.14,0.45,0.3,0.89,0.46,1.33c0.4,1.1,0.82,2.24,0.91,3.45c0.05,0.97,0.4,1.88,0.73,2.75c0.31,0.82,0.64,1.68,0.72,2.58
		c0.03,0.29,0.31,0.48,0.56,0.59l0.09-0.01l0.09,0.07c1.74,0.42,3.37,0.94,4.13,2.73c0.14,0.53,0.48,0.95,0.81,1.35
		c0.22,0.26,0.44,0.54,0.6,0.84c0.09,0.18,0.2,0.37,0.41,0.37c0.05,0,0.1-0.01,0.13-0.02c0.22,0.42,0.49,0.68,0.84,0.8l0.35,0.52
		l0.35,0.51c-0.02,0.07-0.02,0.14-0.01,0.21c0.13,0.23,0.26,0.46,0.38,0.7c0.41,0.76,0.83,1.54,1.4,2.24l0.04-0.03l0.02-0.01
		c-0.05,0.3-0.08,0.63,0.24,0.87c0.94,0.62,1.26,1.6,1.56,2.55c0.17,0.54,0.35,1.11,0.65,1.59c0.17,0.48,0.4,0.96,0.89,1.28
		c0.22,0.12,0.31,0.34,0.39,0.55l0.05,0.08c0,0.01,0.01,0.01,0.01,0.02c0,0,0.01,0.01,0.01,0.01c-1.13,1.06-1.09,1.46,0.31,3.04
		l1.43,1.81c0.08,0.26,0.26,0.45,0.42,0.6c0.14,0.11,0.29,0.21,0.44,0.31c0.21,0.14,0.41,0.29,0.61,0.45
		c0.15,0.1,0.31,0.2,0.49,0.27c0.05,0.16,0.1,0.32,0.25,0.41c0.22,0.78,0.68,1.39,1.3,2.06c-0.02,0.49,0.29,0.73,0.6,0.98
		c0.08,0.07,0.17,0.13,0.25,0.21c0.75,0.69,1.65,1.33,2.82,2c0.07,0.18,0.16,0.34,0.34,0.41c0.06,0.02,0.12,0.04,0.2,0.04
		c0.01,0,0.02,0,0.03-0.01l0.02,0.03l0,0.07l0.29,0.13l0.35,0.17c-0.05,0.21-0.01,0.41,0.13,0.57c0.21,0.32,0.31,0.71,0.41,1.09
		c0.18,0.68,0.37,1.39,1.18,1.72c0.17,0.36,0.45,0.54,0.87,0.54c0.01,0,0.01,0,0.02,0l1.13,0.94c0.18,0.23,0.37,0.47,0.73,0.47
		c0,0,0.01,0,0.01,0l0.64,0.5c0.18,0.31,0.44,0.5,0.79,0.59c0.33,0.11,0.51,0.41,0.68,0.7c0.22,0.37,0.45,0.75,0.98,0.75
		c0,0,0,0,0,0c0.02,0.08,0.06,0.12,0.12,0.15c0.01,0.01,0.02,0.01,0.04,0.01c0.03,0.01,0.05,0.03,0.1,0.03c0.02,0,0.04,0,0.06,0
		c0.68,0.79,1.58,1.28,2.44,1.76l0.44,0.24c1.65,0.9,3.36,1.84,4.12,3.79c0.26,0.63,0.79,1,1.3,1.36c0.11,0.08,0.22,0.16,0.33,0.23
		l0.02,0.11c0.09,0.53,0.19,1.08,0.85,1.11c0.1,0.31,0.3,0.47,0.6,0.48l0.42,0.04c0.33,0.67,0.67,0.98,1.06,0.98
		c0.27,0,0.55-0.14,0.88-0.45c0.01-0.06,0.01-0.12,0.02-0.17c0.01-0.12,0.01-0.25,0.07-0.34c0.12-0.2-0.01-0.41-0.13-0.62
		c-0.1-0.17-0.2-0.32-0.16-0.47c0.03-0.1,0.13-0.18,0.31-0.26c0.13-0.05,0.25-0.08,0.38-0.08c0.48,0,0.88,0.38,1.14,0.67
		c0.58,0.65,1.31,0.73,1.95,0.73C78.72,115.89,78.82,115.89,78.93,115.88z"/>
	<path d="M163.42,100.5c0.05,0.07,0.09,0.15,0.13,0.23c0.05,0.09,0.1,0.18,0.15,0.26c0.02,0.21,0.08,0.37,0.18,0.5
		c-0.06,0.32,0.07,0.59,0.35,0.71c0.05,0.02,0.1,0.03,0.15,0.03c0.18,0,0.28-0.16,0.37-0.32c0.03-0.05,0.05-0.09,0.07-0.12
		l0.54-0.23c0.12-0.15,0.27-0.28,0.41-0.41c0.38-0.34,0.78-0.68,0.67-1.34l-0.02,0c0,0,0,0,0,0l0.05-0.1
		c-0.01-0.04-0.03-0.09-0.06-0.18c-0.01-0.11-0.07-0.21-0.12-0.31c-0.06-0.11-0.12-0.23-0.12-0.35c0-0.03,0.01-0.05,0.01-0.08
		c0-0.02,0.01-0.04,0.02-0.07c0.06,0,0.12,0.01,0.19,0.01c0.07,0.01,0.15,0.01,0.22,0.01c0.13,0,0.29-0.01,0.39-0.12
		c0.08-0.09,0.11-0.22,0.1-0.42c-0.01-0.17-0.01-0.38,0-0.6c0.01-0.48,0.03-0.97-0.15-1.15c-0.05-0.05-0.11-0.07-0.25-0.07
		c-0.01,0-0.01,0-0.02,0c-0.54,0-0.58-0.24-0.62-0.5c-0.02-0.11-0.03-0.22-0.08-0.31c-0.5-0.94-0.06-1.7,0.44-2.4
		c0.24-0.17,0.18-0.38,0.09-0.56c-0.12-0.33-0.02-0.64,0.08-0.94c0.04-0.13,0.09-0.26,0.11-0.39c-0.04-0.28-0.02-0.47,0.06-0.57
		c0.06-0.06,0.13-0.1,0.25-0.1c0.08,0,0.18,0.02,0.31,0.05c0.51-0.24,1.04-1.23,1.27-2.05c0.18-0.64,0.2-1.16,0.03-1.41
		c-0.1-0.15-0.24-0.33-0.4-0.37c-0.28-0.06-0.45-0.16-0.53-0.3c-0.1-0.18-0.06-0.44,0.04-0.76c0.15-0.49,0.25-1.21-0.15-1.87
		c-0.13-0.21-0.17-0.36-0.14-0.46c0.02-0.05,0.06-0.08,0.12-0.1c0.58-0.2,0.72-0.66,0.85-1.11c0.07-0.23,0.14-0.47,0.26-0.66
		c0.38-0.31,0.84-0.51,1.29-0.71c0.76-0.34,1.54-0.68,1.95-1.53l0.87-0.85c0.46-0.67,1.16-0.78,1.83-0.89
		c0.32-0.05,0.66-0.1,0.97-0.23l0.07-0.12c0.1-0.19,0.19-0.37,0.42-0.43c0.27-0.23,0.49-0.45,0.37-0.83
		c-0.41-0.75-0.39-1.33,0.05-1.88c0.13-0.16,0.18-0.3,0.2-0.43c0-0.01,0-0.02,0-0.03c0.01-0.06,0.02-0.12,0.01-0.17
		c-0.05-0.16-0.19-0.28-0.44-0.36c-0.6-0.19-0.91-0.4-1-0.67c-0.09-0.26,0.02-0.6,0.35-1.1c0.26-0.38,0.44-0.7,0.28-1.15
		c-0.6-1.7,0.26-2.97,1.07-3.89c0.14-0.22,0.32-0.42,0.49-0.63c0.31-0.36,0.62-0.74,0.73-1.22c0.03-0.11,0.04-0.23,0.04-0.36
		c0.14,0.01,0.29,0.06,0.44,0.1c0.17,0.05,0.35,0.1,0.51,0.1c0.14,0,0.26-0.04,0.34-0.12c0.18-0.02,0.34-0.06,0.5-0.12
		c0.61,0.09,1.23,0.1,1.84,0.1c0.87,0.01,1.77,0.02,2.63,0.27c0.26,0.08,0.5,0.12,0.72,0.12c0.63,0,1.12-0.32,1.48-0.97l0.57-0.82
		c0.26-0.5,0.36-0.75,0.28-0.92c-0.1-0.18-0.41-0.24-1.11-0.32c-0.13-0.2-0.28-0.37-0.42-0.56c-0.05-0.06-0.09-0.13-0.14-0.19
		c-0.16-0.19-0.34-0.38-0.52-0.55c-0.03-0.03-0.07-0.07-0.11-0.1c-0.72-0.68-1.53-1.24-2.34-1.77c-0.58-0.38-1.18-0.78-1.73-1.22
		c-0.19-0.34-0.48-0.54-0.86-0.58l-0.31-0.2c-0.67-0.33-0.95-0.96-1.22-1.58l-0.07-0.13c0.07-0.09,0.06-0.17-0.01-0.23
		c0.14-0.37,0.41-0.67,0.67-0.97c0.32-0.36,0.65-0.74,0.75-1.25c0.31-0.45,0.06-0.76-0.17-1.06c-0.05-0.06-0.1-0.13-0.15-0.2
		c-1.43-0.97-2.02-2.48-2.58-3.93c-0.2-0.51-0.39-1.02-0.63-1.5c-0.14-0.3-0.11-0.42,0.16-0.63c0.81-0.64,0.54-1.47,0.22-2.11
		c-0.07-0.09-0.16-0.17-0.27-0.21c0.04-0.37,0.32-0.54,0.71-0.72c0.47-0.22,0.76-0.51,0.88-0.85c0.1-0.31,0.06-0.65-0.13-1.04
		c-0.11-0.11-0.24-0.12-0.36-0.12l-0.21,0.01c-0.12,0-0.25-0.02-0.35-0.13c-0.13-0.02-0.22-0.07-0.27-0.14
		c-0.05-0.09-0.06-0.21-0.01-0.38c0.3,0,0.56-0.16,0.8-0.31c0.25-0.16,0.51-0.32,0.82-0.32c0.08,0,0.16,0.01,0.31,0.04
		c0.03,0,0.05-0.03,0.08-0.04c0.01-0.01,0.02-0.01,0.03-0.02c0.02-0.01,0.05-0.01,0.07-0.03c0.07-0.1,0.08-0.28,0.02-0.44
		l-0.06-0.17c-0.16-0.44-0.34-0.88-0.78-1.09c0,0-0.01,0-0.01-0.01c-0.16-0.07-0.36-0.12-0.6-0.12c0,0,0,0,0,0
		c-0.2,0.01-0.4,0.01-0.61,0.01c-0.33,0-0.67-0.01-1.01-0.02c-0.21-0.01-0.41-0.01-0.61-0.01c-0.03,0-0.06,0-0.09,0
		c-0.47-0.5-0.96-0.82-1.51-1c0,0-0.01,0-0.01,0c-0.33-0.11-0.68-0.19-1.06-0.19c-0.25,0-0.52,0.02-0.79,0.07
		c-0.89,0.16-1.74,0.23-2.54,0.23c-0.93,0-1.82-0.11-2.64-0.31c-0.13-0.17-0.25-0.25-0.38-0.3c-0.01,0-0.01,0-0.02-0.01
		c-0.05-0.01-0.09-0.04-0.14-0.04c-0.11,0-0.22,0.04-0.34,0.11c-0.19,0.08-0.37,0.18-0.56,0.29c-0.34,0.2-0.7,0.4-1.06,0.4
		c-0.34,0-0.66-0.18-0.96-0.56c-0.08-0.1-0.2-0.15-0.34-0.15c-0.19,0-0.41,0.09-0.57,0.23c-0.14,0.13-0.3,0.24-0.45,0.36
		c-0.45,0.34-0.92,0.69-1.08,1.31c-0.03,0.06-0.05,0.12-0.05,0.18c-0.06,0.25-0.12,0.49-0.18,0.74c-0.16,0.68-0.32,1.38-0.59,2.02
		c-0.28,0.65-0.24,1.31-0.19,1.94c0.03,0.52,0.07,1.07-0.08,1.59c-0.21,0.26-0.21,0.56-0.21,0.86l0,0.18
		c-0.02,1-0.44,1.49-1.28,1.49c-0.13,0-0.26-0.01-0.41-0.03c-0.11-0.02-0.21-0.03-0.3-0.03c-0.85,0-1.1,0.7-1.28,1.36
		c-0.04,0.16-0.02,0.33,0.01,0.49c0.04,0.24,0.07,0.48-0.1,0.7c-0.03,0.1-0.08,0.19-0.13,0.29c-0.17,0.35-0.34,0.71,0.12,1.07
		c0.17,0.13,0.25,0.25,0.25,0.34c0,0.12-0.13,0.21-0.26,0.29c-0.1,0.07-0.21,0.15-0.24,0.23c-0.37,0.15-0.65,0.41-0.85,0.78
		c-0.57,0.23-0.95,0.55-1.12,0.97c-0.2,0.47-0.14,1.06,0.18,1.79c0.11,0.25,0.09,0.44,0.05,0.74c-0.55,0.39-0.91,0.95-1.11,1.75
		c-0.37,0.09-0.49,0.49-0.58,0.82c-0.07,0.24-0.13,0.45-0.27,0.45c-0.03,0-0.06-0.01-0.09-0.02c-0.28-0.13-0.57-0.19-0.89-0.19
		c-0.43,0-0.86,0.12-1.27,0.24c-0.4,0.11-0.81,0.23-1.21,0.23c-0.21,0-0.4-0.03-0.59-0.09c-0.06-0.01-0.12-0.01-0.18-0.01
		c-0.61,0-1.12,0.25-1.5,0.75c-0.32,0.38-0.7,0.55-1.17,0.55c-0.29,0-0.59-0.06-0.89-0.13c-0.29-0.06-0.6-0.13-0.89-0.13
		c-0.1,0-0.19,0.01-0.27,0.03c-0.03-0.07-0.05-0.14-0.08-0.23l-0.55-0.33l-0.53,0.01c-0.1-0.12-0.22-0.21-0.33-0.32
		c-0.04-0.04-0.08-0.08-0.13-0.12c-0.38-0.34-0.8-0.6-1.27-0.76c-0.06-0.02-0.12-0.04-0.18-0.06c-0.25-0.08-0.52-0.13-0.8-0.16
		c-0.06-0.01-0.13-0.01-0.19-0.02c-0.11-0.01-0.22-0.03-0.33-0.03c-0.24,0-0.48,0.02-0.73,0.05c-0.28,0.03-0.57,0.04-0.86,0.04
		l-0.81-0.01c-0.93,0-1.91,0.07-2.71,0.93c-0.5,0.26-0.58,0.73-0.65,1.18c-0.06,0.35-0.12,0.72-0.37,0.97
		c-0.05,0-0.09,0.02-0.12,0.04c-0.03,0.03-0.04,0.07-0.01,0.1c-0.42,0.08-0.81,0.3-1.19,0.52c-0.46,0.27-0.94,0.54-1.5,0.54
		c-0.18,0-0.36-0.03-0.56-0.09c-0.03,0.02-0.06,0.03-0.09,0.05c-0.07,0.04-0.15,0.07-0.19,0.13c-0.07,0.01-0.14,0.01-0.2,0.01
		c-0.37,0-0.73-0.12-1.08-0.23c-0.35-0.11-0.71-0.23-1.09-0.23c-0.05,0-0.1,0-0.15,0.01l-0.53-0.05c-0.17-0.1-0.36-0.15-0.56-0.15
		c-0.23,0-0.45,0.06-0.68,0.12c-0.22,0.06-0.44,0.11-0.67,0.11c-0.06,0-0.11,0-0.17-0.01c-0.7,0.14-1.26,0.4-1.7,0.77
		c-0.32,0.27-0.64,0.41-0.98,0.41c-0.31,0-0.62-0.11-0.97-0.34l-0.09-0.03c-0.17-0.07-0.35-0.13-0.54-0.13c-0.04,0-0.08,0-0.11,0.02
		c-0.37-0.85-1.14-1.31-1.87-1.75l-0.22-0.13l-0.27-0.09c-0.06-0.09-0.15-0.16-0.22-0.24c-0.06-0.08-0.13-0.15-0.2-0.22
		c-0.29-0.29-0.6-0.56-0.99-0.83c-0.11-0.28-0.29-0.47-0.55-0.55c-0.67-0.98-1.5-2.2-1.92-3.55c0.26-0.11,0.43-0.25,0.49-0.4
		c0.04-0.1,0.03-0.21-0.02-0.32c-0.05-0.1-0.11-0.16-0.18-0.16c-0.11,0-0.23,0.12-0.35,0.24l-0.28,0c-0.81,0-1.66,0.07-2.25,0.87
		c0,0-0.04,0.13-0.04,0.13c-0.21,0.3-0.43,0.59-0.66,0.88c-0.57,0.73-1.15,1.49-1.44,2.43c-0.09,0.44-0.15,0.89-0.21,1.34
		c-0.16,1.22-0.33,2.49-1.14,3.55c-0.14,0.11-0.22,0.24-0.24,0.37c-0.01,0.14,0.05,0.29,0.19,0.46c0.22,0.15,0.26,0.37,0.3,0.61
		c0.03,0.18,0.07,0.36,0.18,0.5l0.01,0.26c0.02,0.24-0.01,0.5-0.04,0.76c-0.07,0.67-0.14,1.35,0.55,1.78
		c0.96,0.59,1.4,1.41,1.45,2.73L109.65,71c-1.09,0.64-1.28,1.45-0.63,2.7c0.13,0.25,0.28,0.5,0.44,0.75c0.49,0.79,1,1.61,0.75,2.65
		c-0.09,0.08-0.12,0.15-0.1,0.19c0.02,0.05,0.08,0.07,0.2,0.08c0.57,0.03,1.19,0.11,1.41,0.49c0.16,0.27,0.12,0.65-0.13,1.18
		c-0.31,0.33-0.32,0.69-0.03,1.14c0.29,0.35,0.62,0.52,0.97,0.52c0.37,0,0.76-0.19,1.17-0.57c0.38-0.36,0.74-0.53,1.11-0.53
		c0.29,0,0.59,0.1,0.92,0.3l0.87,1.92l-0.58,1.62c0-0.01,0-0.01-0.01-0.02c-0.5,0.63-0.73,0.92-0.7,1.18
		c0.03,0.24,0.27,0.42,0.75,0.77l-0.03,0.12c0.08,0.03,0.15,0.05,0.23,0.08c0.22,0.07,0.42,0.13,0.57,0.29
		c0.03,0.03,0.06,0.05,0.08,0.09c0.14,0.43,0.11,0.89,0.08,1.33c-0.04,0.49-0.07,1,0.14,1.49c0.24,0.27,0.31,0.61,0.39,0.94
		c0.08,0.36,0.16,0.72,0.44,1.05l-0.06,1.82c-0.12,0.15-0.16,0.31-0.18,0.47c0,0.01,0,0.01,0,0.02c0,0.06-0.02,0.12-0.01,0.19
		c0.08,0.39,0.4,0.69,0.55,0.77c0.06,0.03,0.13,0.04,0.19,0.05c0.02,0,0.04,0.01,0.05,0.01c0.04,0.01,0.07,0.03,0.11,0.03
		c0.31,0,0.61-0.21,0.89-0.41c0.14-0.1,0.28-0.2,0.42-0.27l0.81,0.05l0.07,0.13c0.22,0.4,0.46,0.78,0.82,0.91
		c0.01,0,0.02,0.01,0.03,0.01c0.06,0.02,0.12,0.05,0.19,0.05c0.22,0,0.46-0.09,0.74-0.27c0.05-0.03,0.12-0.05,0.2-0.05
		c0.16,0,0.36,0.08,0.45,0.31c0.19,0.32,0.44,0.48,0.77,0.48c0.18,0,0.38-0.05,0.63-0.14c0.17-0.11,0.34-0.22,0.51-0.34
		c0.68-0.46,1.39-0.94,2.16-0.94c0.49,0,0.97,0.19,1.5,0.6c0.05,0,0.13-0.04,0.21-0.08l0.12-0.06l0.14,0l0.11-0.11
		c0.25-0.1,0.51-0.2,0.79-0.2c0.09,0,0.17,0.01,0.24,0.01c0,0,0,0,0,0c-0.03,0.2-0.08,0.4-0.13,0.6c-0.1,0.4-0.21,0.82-0.11,1.25
		c0.03,0.2,0.09,0.39,0.15,0.58c0.1,0.3,0.2,0.62,0.15,0.97c0.1,0.22,0,0.4-0.1,0.59c-0.1,0.18-0.2,0.36-0.12,0.59
		c0.35,0.09,0.67,0.16,0.99,0.16c0.49,0,0.86-0.18,1.17-0.58c0.7-0.89,1.36-1.3,2.08-1.3c0.5,0,1.03,0.2,1.6,0.62
		c0.23,0.16,0.56,0.36,0.88,0.36c0.36,0,0.61-0.26,0.71-0.76c0.22-0.12,0.46-0.23,0.69-0.33c0.87-0.39,1.78-0.79,1.85-2.12
		c0.01-0.1,0.05-0.11,0.08-0.11c0.09,0,0.23,0.1,0.37,0.19c0.1,0.07,0.19,0.13,0.26,0.16l0.21,0.27c0.16,0.28,0.37,0.45,0.65,0.5
		c0.27,0.28,0.63,0.37,0.98,0.45c0.13,0.03,0.26,0.06,0.39,0.1c0.06,0.02,0.12,0.03,0.18,0.03c0.17,0,0.33-0.06,0.5-0.13
		c0.16-0.06,0.33-0.13,0.49-0.13c0.18,0,0.33,0.08,0.47,0.22l-0.25,0.54c-0.26,0.66,0.14,1.06,0.57,1.42
		c0.2,0.09,0.39,0.17,0.58,0.17c0.18,0,0.33-0.07,0.47-0.21c0.68-0.58,1.31-0.85,1.98-0.85c0.18,0,0.38,0.02,0.56,0.06
		c0.26,0.25,0.59,0.3,0.91,0.35c0.19,0.03,0.39,0.06,0.64,0.14c0.53,0,0.9,0.33,1.21,0.64c0.68,0.73,0.52,1.66,0.37,2.47
		c-0.17,0.95-0.01,1.71,0.5,2.45c0.2,0.18,0.42,0.26,0.64,0.26c0.22,0,0.46-0.09,0.72-0.26c0.61-0.21,1.23-0.43,1.84-0.65
		c0.63-0.23,1.25-0.45,1.88-0.67l0.15-0.05c0.4-0.13,0.77-0.26,0.97-0.69c0,0-0.02-0.02-0.04-0.04c-0.01-0.01-0.02-0.03-0.03-0.04
		c0.1,0.05,0.2,0.07,0.28,0.07c0.22,0,0.38-0.16,0.49-0.49c0.02-0.14,0.09-0.2,0.28-0.2c0,0,0,0,0.01,0
		c0.17-0.12,0.38-0.13,0.56-0.13c0.08,0,0.41,0.02,0.49,0.02c0.37,0,0.74-0.08,0.88-0.64c0.18,0.08,0.38,0.09,0.55,0.09l0.43-0.01
		C162.85,99.71,163.28,99.77,163.42,100.5z M166,99.98c0.01,0,0.01,0,0.02,0.01l-0.07,0.12c-0.01,0.01-0.02,0.02-0.03,0.04
		c-0.08-0.13-0.08-0.17-0.08-0.18l0.02-0.02c0,0,0,0,0,0v0.01C165.89,99.95,165.95,99.97,166,99.98z M116.04,83.47
		c0.04,0.03,0.07,0.05,0.1,0.07c0.01,0.01,0.02,0.02,0.02,0.02c-0.03,0-0.07-0.02-0.12-0.08C116.04,83.48,116.04,83.48,116.04,83.47
		z"/>
	<path d="M252.47,135.95c-0.08-0.04-0.16-0.08-0.23-0.14c-0.89-0.32-1.6-0.46-2.24-0.46c-0.84,0-1.6,0.25-2.29,0.78
		c-0.26,0.2-0.61,0.42-1,0.42c-0.2,0-0.4-0.06-0.58-0.18c-0.03-0.21-0.18-0.25-0.32-0.28c-0.07-0.02-0.13-0.03-0.19-0.06
		c-0.13,0.03-0.26,0.04-0.39,0.04l-0.18,0.01l-0.45-0.04c-0.27,0.01-0.53,0.1-0.83,0.25c-0.35,0.23-0.76,0.25-1.15,0.25
		c-0.31,0.01-0.63,0.02-0.91,0.13c-0.22,0-0.44,0.01-0.65,0.04c-0.22-0.11-0.46-0.16-0.78-0.17c-0.94,0.04-1.86,0.16-2.73,0.35
		c-0.22,0.05-0.46,0.08-0.7,0.12c-0.91,0.14-1.86,0.28-2.25,1.14c-0.75,1.66-2.12,2.26-3.57,2.9c-0.31,0.14-0.62,0.27-0.93,0.42
		c-2.54,0.81-4.47,1.82-6.1,3.18c-0.51,0.43-1.04,0.87-1.09,1.56c-0.05,0.71-0.29,1.38-0.52,2.02c-0.12,0.33-0.23,0.68-0.32,1.05
		c-0.01,0.04-0.02,0.07-0.03,0.11c0,0.02-0.01,0.03-0.01,0.05c-0.06-0.01-0.12-0.02-0.18-0.02c-0.41,0-0.72,0.32-1,0.61l-0.14,0.19
		c-0.24,0.33-0.5,0.66-0.44,1.04c0.2,1.33-0.71,1.89-1.59,2.43l-0.2,0.12c-0.18,0.1-0.34,0.22-0.49,0.35
		c-0.01,0.01-0.02,0.02-0.03,0.03c-0.06,0.06-0.12,0.1-0.17,0.17c-0.35,0.05-0.61,0.27-0.87,0.49c-0.01,0.01-0.07,0.07-0.07,0.08
		c0.11,0.18,0.03,0.46-0.05,0.73c-0.08,0.29-0.17,0.59-0.02,0.78c0.01,0.02,0.05,0.03,0.06,0.04c0.01,0.01,0.02,0.01,0.02,0.01
		c0.12,0.09,0.29,0.15,0.57,0.15c0.07,0,0.15,0,0.24-0.01l0.34-0.19c0.05,0.02,0.11,0.05,0.18,0.07c0.23-0.04,0.47-0.06,0.71-0.09
		c1.01-0.1,2.05-0.19,2.34-1.6c0.66-0.51,0.61-1.19,0.57-1.86c-0.01-0.14-0.02-0.28-0.02-0.42c0-0.29,0.04-0.48,0.13-0.57
		c0.05-0.05,0.12-0.08,0.21-0.08c0.15,0,0.35,0.08,0.52,0.16c0.4,0.06,0.99,0.15,1.57,0.15c1,0,1.8-0.25,2.42-0.75
		c0.68-0.55,1.37-0.8,2.23-0.8c0.22,0,0.44,0.02,0.67,0.04c0.1,0.02,0.2,0.02,0.29,0.02c0.24,0,0.42-0.07,0.58-0.18
		c0,0,0.01,0,0.01-0.01c0.22-0.17,0.36-0.43,0.42-0.84c0.04-0.01,0.08-0.02,0.13-0.03l0.27-0.3l0.33-0.33
		c0.28-0.14,0.57-0.28,0.53-0.63c0.25-0.06,0.41-0.22,0.49-0.49l0.12-0.16c0.25-0.34,0.49-0.65,0.99-0.65
		c0.12-0.04,0.22-0.1,0.3-0.2c0.27-0.24,0.37-0.59,0.47-0.94c0.14-0.47,0.27-0.91,0.79-1.09c0.62-0.21,1.2-0.54,1.77-0.85
		c0.83-0.46,1.7-0.94,2.7-1.07c0.1-0.06,0.22-0.09,0.38-0.09c0.09,0,0.19,0.01,0.28,0.02c0.1,0.01,0.19,0.02,0.28,0.02
		c0.22,0,0.38-0.06,0.51-0.18c0.1-0.06,0.2-0.12,0.3-0.17c0.22-0.12,0.44-0.24,0.63-0.4c0.63-0.54,1.46-0.7,2.27-0.85
		c1.11-0.21,2.25-0.43,2.9-1.64c0.03-0.05,0.14-0.09,0.23-0.09c0.91-0.03,1.68-0.43,2.44-0.81c0.36-0.18,0.73-0.37,1.1-0.52
		c0.11-0.02,0.19-0.07,0.28-0.11c0.01,0,0.02-0.01,0.03-0.01c0.54-0.24,0.88-0.7,1.2-1.16c0.08-0.11,0.16-0.23,0.25-0.35
		C252.99,136.23,252.72,136.09,252.47,135.95z"/>
	<path d="M219.68,138.09c0.41,0,0.79,0.07,1.19,0.22c0.07-0.01,0.14-0.03,0.19-0.06c0.11,0.1,0.23,0.15,0.37,0.15
		c0.04,0,0.1-0.03,0.14-0.04c0.01,0,0.01,0,0.02-0.01c0.06-0.02,0.12-0.02,0.19-0.05c0.13-0.04,0.14-0.12,0.12-0.15
		c1.27-0.4,2.24-1.28,3.2-2.18c0.02,0.01,0.04,0.01,0.06,0.01c0.02,0,0.03-0.01,0.04-0.01c0,0,0.01,0,0.01,0
		c-0.23,0.38-0.29,0.71-0.2,1c0.11,0.32,0.42,0.59,0.92,0.79c0.38,0.36,0.76,0.54,1.15,0.54c0.05,0,0.09-0.02,0.14-0.03
		c0.03,0,0.07-0.01,0.1-0.02c0.14-0.03,0.28-0.08,0.42-0.16c0.02-0.01,0.05-0.03,0.07-0.05c0.08-0.05,0.15-0.08,0.23-0.15
		c0.37-0.32,0.8-0.35,1.21-0.37c0.2-0.01,0.39-0.02,0.59-0.06c0.55-0.4,1.16-0.44,1.75-0.44l0.49,0c0.35,0,0.72-0.01,1.16-0.11
		c0.36,0,0.63-0.18,0.88-0.53c0.47,0,0.83-0.05,1.05-0.28c0.19-0.2,0.28-0.52,0.26-1.01c-0.03-0.86-0.38-1.03-0.92-1.03
		c-0.09,0-0.45,0.02-0.54,0.02c-0.58,0-1.16,0.01-1.75,0.03l-1.55,0.03l-0.17,0c-0.23,0-0.45,0.01-0.68,0.03
		c-0.23,0.01-0.45,0.03-0.68,0.03c-0.37,0-0.68-0.04-0.97-0.12l-0.58,0.55c-0.34,0.38-0.68,0.57-1.01,0.57
		c-0.39,0-0.76-0.26-1.15-0.8c-0.17-0.25-0.38-0.38-0.62-0.38c-0.18,0-0.37,0.08-0.56,0.23c-0.56,0.47-1.18,0.53-1.65,0.53
		c-0.24,0-0.48-0.02-0.72-0.03c-0.24-0.02-0.49-0.03-0.73-0.03l-0.17,0l-0.25-0.07c-0.13-0.12-0.26-0.18-0.4-0.18
		c-0.18,0-0.36,0.1-0.52,0.19c-0.29,0.17-0.51,0.26-0.69,0.26c-0.39,0-0.47-0.42-0.56-0.85c-0.03-0.14-0.05-0.27-0.09-0.4
		c-0.18-0.21-0.38-0.32-0.59-0.32c-0.16,0-0.34,0.06-0.51,0.18c-0.51,0.04-0.84,0.17-0.99,0.41c-0.23,0.38-0.01,0.94,0.24,1.55
		l0.04,0.05c0,0.01,0.01,0.02,0.01,0.02c-0.23-0.03-0.44-0.05-0.64-0.05c-0.27,0-0.49,0.05-0.69,0.13
		c-0.02,0.01-0.04,0.02-0.06,0.03c-0.16,0.07-0.29,0.17-0.4,0.29c-0.01,0.01-0.03,0.03-0.04,0.04c-0.14,0.17-0.26,0.36-0.34,0.62
		c-0.23,0.74-0.63,1.12-1.2,1.12c-0.33,0-0.72-0.13-1.14-0.38c-0.09-0.16-0.21-0.18-0.31-0.18c-0.05,0-0.1,0.01-0.14,0.01
		c-0.05,0.01-0.09,0.01-0.13,0.02c-0.09-0.1-0.16-0.21-0.24-0.32c-0.2-0.3-0.41-0.61-0.86-0.61c-0.08,0-0.16,0.01-0.25,0.03
		c-0.42,0.09-0.84,0.21-1.26,0.34c-0.81,0.24-1.64,0.48-2.46,0.48c-0.92,0-1.72-0.32-2.43-0.97c-0.08-0.07-0.22-0.07-0.36-0.07
		c-0.04,0-0.15,0-0.17,0c-0.36-0.54-0.9-0.55-1.42-0.57c-0.38-0.01-0.77-0.02-1.08-0.23c-0.05-0.16-0.18-0.19-0.31-0.22
		c-0.09-0.02-0.17-0.04-0.24-0.11l-0.8-0.06c-0.31-0.25-0.63-0.37-0.98-0.37c-0.42,0-0.82,0.17-1.21,0.34
		c-0.34,0.14-0.69,0.29-1.02,0.33c-0.02-0.03-0.06-0.06-0.1-0.06c-0.04,0-0.07,0.02-0.1,0.07c-0.31,0.23-0.67,0.42-1.01,0.6
		c-0.87,0.47-1.78,0.95-2.01,2.13c-0.11,0.09-0.21,0.14-0.3,0.14c-0.16,0-0.29-0.11-0.43-0.23c-0.14-0.12-0.28-0.24-0.45-0.24
		c-0.04,0-0.09,0.01-0.11,0.04c0,0,0,0,0,0c-0.07-0.71-0.57-1.1-1.05-1.48l-0.12-0.09l-0.59,0.26c-0.3,0.3-0.36,0.68-0.41,1.05
		c-0.03,0.19-0.05,0.39-0.12,0.57c-0.03,0.05-0.06,0.07-0.17,0.07c-0.01,0-0.02,0-0.03,0c-0.38,0.46-0.38,0.93,0.02,1.41
		c0.3,0.2,0.56,0.3,0.81,0.3c0.38,0,0.65-0.25,0.89-0.58c0.06-0.08,0.12-0.16,0.18-0.24c0.08,0.38,0.3,0.69,0.69,0.96
		c0.11,0.08,0.23,0.15,0.36,0.22c0.01,0,0.02,0,0.03,0c0.01,0.01,0.02,0.01,0.04,0.02c0.06,0,0.09-0.02,0.14-0.03
		c0.03,0,0.07-0.01,0.1-0.02c0.1-0.02,0.18-0.05,0.26-0.1c0.08-0.05,0.15-0.11,0.22-0.19c0.1,0.16,0.23,0.28,0.39,0.37
		c0.14,0.07,0.28,0.11,0.42,0.13c0.52,0.05,1.04,0.06,1.42,0.06l1.35-0.01c0.18,0,0.37,0,0.56,0.01c0.26-0.06,0.54-0.1,0.86-0.1
		c0.29,0,0.58,0.02,0.87,0.05c0.29,0.02,0.58,0.05,0.87,0.05c0.27,0,0.51-0.02,0.8-0.09l-0.06,0.08c0.22,0.44,0.55,0.5,0.85,0.5
		c0.12,0,0.25-0.01,0.37-0.02l0.25-0.02c0.12-0.07,0.22-0.11,0.3-0.11c0.03,0,0.07,0.01,0.14,0.04c0.08,0.06,0.13,0.19,0.16,0.41
		c0.15,0.1,0.32,0.16,0.48,0.16c0.06,0,0.12-0.01,0.18-0.02l0.71-0.19c1.13-0.31,2.29-0.62,3.47-0.62c0.53,0,1.02,0.06,1.54,0.19
		c0.06,0,0.12-0.03,0.23-0.09c0.54-0.27,1.1-0.39,1.73-0.51c0.2-0.04,0.4-0.08,0.6-0.14c0.42-0.13,0.84-0.13,1.29-0.13
		c0.26,0,0.52,0,0.78-0.03c0.24-0.03,0.46-0.12,0.68-0.2c0.22-0.09,0.42-0.17,0.64-0.19c0.73-0.08,1.43-0.36,2.11-0.63
		C218,138.42,218.82,138.09,219.68,138.09z"/>
	<path d="M161.43,135.34c-0.96-1.17-1.97-2.23-3.62-2.29c-0.03,0.02-0.06,0.02-0.09,0.02c-0.05,0-0.09-0.02-0.13-0.05
		c-0.11-0.08-0.21-0.13-0.32-0.13c-0.03,0-0.06,0.02-0.1,0.03c-0.01,0-0.03,0.01-0.04,0.01c-0.04,0.02-0.09,0.02-0.13,0.04
		l-0.29,0.21c-0.2,0.14-0.4,0.29-0.6,0.42c-0.43,0.28-1.01,0.43-1.62,0.43c-0.96,0-1.84-0.36-2.3-0.92
		c-0.01-0.01-0.01-0.01-0.02-0.02c-0.06-0.08-0.12-0.15-0.16-0.24c-0.01-0.18,0-0.37,0.01-0.56c0.04-0.54,0.08-1.1-0.57-1.48
		l-0.79,0.01c-0.27-0.05-0.51-0.18-0.75-0.3c-0.32-0.16-0.66-0.33-1.05-0.33c-0.04,0-0.08,0-0.1,0.01l-0.24-0.26
		c-0.22-0.16-0.45-0.23-0.68-0.23c-0.4,0-0.77,0.23-1.14,0.49l-2.22,0.1c-0.08,0-0.15-0.01-0.23-0.02
		c-0.08-0.01-0.16-0.02-0.23-0.02c-0.16,0-0.37,0.03-0.52,0.28c-0.04,0.02-0.09,0.03-0.16,0.03c-0.01,0-0.02,0-0.03,0
		c-1.05-0.06-2.08-0.42-3.13-1.11c-0.67-0.44-1-0.84-1-1.24c0-0.24,0.14-0.49,0.39-0.77c0.16-0.16,0.35-0.31,0.6-0.47
		c0-0.02-0.01-0.04-0.01-0.06c0,0,0,0,0,0l0.38,0.02c0.14,0.14,0.27,0.28,0.39,0.43c0.43,0.32,0.89,0.48,1.42,0.48
		c0.52,0,1.04-0.15,1.67-0.37l0.45-0.29c0.35-0.08,0.43-0.35,0.48-0.69c0.01-0.03,0.01-0.07,0.02-0.1c0-0.01,0-0.01,0-0.02
		l0.72,0.02l0.46-0.2c0.05-0.02,0.1-0.04,0.14-0.06c0.67-0.24,1.23-0.36,1.77-0.36c0.12,0,0.24,0.01,0.38,0.02
		c0.58-0.23,0.88-0.49,0.93-0.8c0.05-0.29-0.15-0.62-0.58-0.98c-0.12-0.11-0.27-0.12-0.41-0.12l-0.2,0c-0.22,0-0.38-0.04-0.49-0.25
		c-0.13-0.12-0.25-0.18-0.38-0.18c-0.2,0-0.37,0.16-0.54,0.33c-0.77,0.18-1.53,0.2-2.25,0.2l-1.17-0.01c-0.35,0-0.7,0.01-1.05,0.03
		c-0.26,0.02-0.52,0.02-0.77,0.02l-0.79-0.01c-0.7,0-1.51,0.03-2.29,0.36l-0.31,0.3c-0.3,0.16-0.61,0.33-0.9,0.33
		c-0.24,0-0.43-0.11-0.59-0.34c-0.4-0.56-0.87-0.63-1.24-0.63c-0.22,0-0.44,0.03-0.69,0.06c-0.18-0.08-0.37-0.1-0.57-0.1
		c-0.01,0-1.16-0.18-1.16-0.18c-0.44-0.75-1.1-0.82-1.73-0.82l-0.48,0c-0.16,0-0.33,0-0.48-0.02c-0.19-0.12-0.38-0.28-0.56-0.44
		c-0.38-0.33-0.77-0.67-1.26-0.67c-0.27,0-0.55,0.1-0.84,0.31l-0.53,0.02c-0.15,0.07-0.3,0.1-0.43,0.1c-0.45,0-0.68-0.42-0.85-0.81
		c-0.31-0.7-0.78-1.08-1.48-1.22l-1.66-0.01c-1.42,0.15-1.59,1.15-1.76,2.11c-0.05,0.26-0.09,0.51-0.16,0.75
		c-0.3,0.98-0.6,1.3-1.23,1.3c-0.3,0-0.69-0.07-1.27-0.24c-0.33-0.09-0.61-0.14-0.89-0.14c-0.18,0-0.35,0.02-0.51,0.07l0.01,0.02
		l-0.07-0.05l-0.04,0.04l-0.02,0c-0.19-0.02-0.4-0.06-0.6-0.09c-0.26-0.04-0.52-0.09-0.78-0.11l-0.24-0.06
		c-0.54-0.13-1.11-0.26-1.68-0.26c-0.15,0-0.29,0.01-0.44,0.03l-0.28,0c-0.13-0.04-0.27-0.06-0.43-0.06c-0.33,0-0.67,0.1-1,0.2
		c-0.32,0.1-0.66,0.2-0.99,0.2c-0.33,0-0.62-0.1-0.9-0.32l-0.25-0.03c-0.19-0.02-0.38-0.05-0.56-0.08c-0.2-0.03-0.39-0.06-0.59-0.09
		c-1.24-0.17-2.42-0.33-2.67-2.26c-0.12-0.89-1.1-2.24-2.32-2.24c-0.12,0-0.23,0.01-0.35,0.04c-0.39,0.09-0.78,0.13-1.19,0.13
		c-0.99,0-1.93-0.25-2.84-0.5c-0.37-0.1-0.73-0.2-1.1-0.28c-0.16-0.16-0.31-0.33-0.46-0.51c-0.38-0.45-0.78-0.9-1.38-1.06
		c-0.03-0.01-0.07-0.01-0.1-0.02c-0.1-0.02-0.2-0.06-0.31-0.06c-0.21-0.04-0.43-0.13-0.65-0.21c-0.32-0.12-0.66-0.24-0.95-0.24
		c-0.52,0-0.82,0.4-0.93,1.23c-0.29,0.18-0.59,0.27-0.92,0.27c-0.22,0-0.46-0.05-0.72-0.12c-0.08-0.03-0.16-0.05-0.24-0.08
		c0-0.01-0.01-0.02-0.01-0.02c-0.23-0.07-0.46-0.14-0.69-0.22c-0.77-0.25-1.57-0.51-2.4-0.51c-0.29,0-0.56,0.03-0.84,0.1
		c-0.09,0.05-0.17,0.07-0.25,0.07c-0.14,0-0.27-0.07-0.47-0.28l-0.11-0.42c-0.06-0.01-0.13-0.03-0.19-0.05
		c-0.1-0.03-0.19-0.06-0.29-0.06c-0.14,0-0.25,0.06-0.38,0.2l-0.2,0.01c-1.14,0.7-1.49,1.86-1.69,3c-0.1,0.13-0.02,0.28,0.09,0.48
		c-0.04,0.13-0.05,0.27-0.05,0.4c-0.05,0.03-0.11,0.06-0.17,0.08c-0.24-0.1-0.46-0.14-0.66-0.14c-0.2,0-0.37,0.07-0.52,0.16
		c-0.01,0.01-0.02,0.01-0.02,0.02c-0.27,0.18-0.48,0.5-0.61,0.99c-0.13,0.48-0.27,1.03-0.33,1.63v0.31
		c-0.04,0.02-0.07,0.04-0.1,0.04c-0.13,0-0.23-0.19-0.33-0.37c-0.11-0.19-0.22-0.39-0.42-0.39c0,0-0.17,0-0.17,0
		c-0.13,0-0.25-0.01-0.31-0.09c-0.05-0.08-0.03-0.23,0.07-0.47c0.08-0.2,0.06-0.41-0.06-0.6c-0.16-0.25-0.47-0.42-0.64-0.42
		c-0.38,0-0.63,0.31-0.87,0.6c-0.11,0.14-0.23,0.28-0.36,0.39c-0.34,0.29-0.19,0.48-0.03,0.67c0.05,0.07,0.11,0.13,0.15,0.21
		c0.6,1.1,1.55,1.62,3,1.62c0.14,0,0.29,0,0.43-0.01c0.2-0.01,0.4-0.01,0.6-0.02c0.43-0.01,0.88-0.02,1.31-0.07
		c0.2-0.02,0.4-0.03,0.6-0.03c0.98,0,2,0.28,3.19,0.88c0.45,0.23,0.89,0.48,0.97,0.87c0.05,0.25-0.06,0.53-0.34,0.86
		c-0.41,0.47-0.04,0.82,0.23,1.07c0.67,0.64,1.37,0.95,2.19,0.95c0,0,6.75,0.78,6.75,0.78l0.29,0.26c0.21,0.12,0.41,0.26,0.6,0.4
		c0.19,0.14,0.39,0.26,0.6,0.38c0.14,0.08,0.29,0.15,0.45,0.2c0,0,0.01,0,0.01,0c0.02,0.07,0.05,0.1,0.07,0.15c0,0,0,0,0,0
		c0.04,0.06,0.08,0.11,0.13,0.13c0.02,0.01,0.03,0.02,0.05,0.02c0.03,0.01,0.04,0.03,0.07,0.03c0.14,0,0.3-0.07,0.51-0.17
		c0.08-0.02,0.16-0.03,0.25-0.03c0.23,0,0.45,0.08,0.67,0.16c0.15,0.06,0.31,0.11,0.45,0.13l0.28,0.29c0.3,0.08,0.6,0.24,0.88,0.4
		c0.42,0.23,0.85,0.46,1.32,0.46c0.29,0,0.57-0.09,0.86-0.28c0.04-0.12,0.08-0.24,0.13-0.42l0.96-0.71
		c0.08-0.01,0.17-0.01,0.25-0.01l0.41,0.01c0.12,0,0.29-0.01,0.44-0.05c0.08,0.04,0.18,0.07,0.31,0.09c0.15,0.02,0.3,0.03,0.46,0.03
		c0.2,0,0.38-0.02,0.57-0.06c0.08-0.03,0.17-0.06,0.24-0.08l0.1,0.07c0.38-0.07,0.76-0.1,1.17-0.1c1.13,0,2.24,0.26,3.32,0.5
		c0.79,0.18,1.61,0.37,2.42,0.45c0.67,0.28,1.33,0.64,1.96,0.99c0.96,0.53,1.96,1.07,3.05,1.34c0.04,0.01,0.09,0.02,0.14,0.03
		c0.22,0.05,0.43,0.11,0.66,0.14c0.14,0.29,0.38,0.44,0.7,0.44c0.06,0,0.13-0.01,0.19-0.02c0,0,0.12-0.03,0.12-0.03
		c0.47,0.42,0.99,0.62,1.61,0.62c0.14,0,0.29-0.01,0.44-0.03c0.3-0.04,0.69-0.09,1.09-0.09c0.44,0,0.83,0.06,1.19,0.17l0.41,0.06
		c0.27,0.22,0.62,0.24,0.95,0.25c0.43,0.02,0.83,0.04,1.11,0.44c0.11,0.16,0.24,0.24,0.39,0.27c0,0,0.01,0,0.01,0
		c0.04,0.01,0.07,0.03,0.11,0.03c0.2,0,0.41-0.1,0.6-0.21c0.23-0.55,0.6-0.63,0.93-0.63c0.13,0,0.27,0.01,0.41,0.03
		c0.14,0.01,0.28,0.03,0.41,0.03c0.06,0,0.11,0,0.16-0.01l0.83,0.03c0.28,0.06,0.54,0.14,0.81,0.23c0.47,0.15,0.95,0.3,1.46,0.3
		c0.07,0,0.15,0,0.22-0.01l1.38,0.3c0.07,0.05,0.15,0.07,0.23,0.11c0.06,0.03,0.11,0.06,0.17,0.08c0.13,0.06,0.27,0.1,0.41,0.13
		c0.1,0.02,0.19,0.04,0.29,0.04c0.07,0.01,0.13,0.03,0.2,0.03c0,0,0.01,0,0.01,0c0.08-0.03,0.15-0.07,0.22-0.1
		c0.15,0.03,0.29,0.05,0.44,0.05c0.6,0,1.14-0.28,1.71-0.54c0.08,0,0.14-0.02,0.18-0.05c0.11,0.01,0.21,0.02,0.32,0.02
		c0.15,0,0.29-0.01,0.44-0.03c0.13-0.02,0.25-0.04,0.37-0.08c0.26-0.08,0.54-0.15,0.81-0.15c0.2,0,0.38,0.04,0.55,0.11l0.29,0.18
		l0.16,0.13c0.25,0.21,0.51,0.4,0.79,0.57c0.03,0.02,0.06,0.03,0.08,0.05c0.1,0.06,0.2,0.13,0.31,0.17
		c0.13,0.04,0.25,0.07,0.36,0.08c0.04,0,0.08-0.01,0.12-0.01l0.1,0.11l0.36,0.11c0.07,0.08,0.14,0.18,0.21,0.31
		c0.27,0.28,0.61,0.41,0.94,0.54c0.1,0.04,0.2,0.08,0.3,0.12c0.62,0.24,1.29,0.35,2.11,0.35l0.24,0c0.4,0,0.86,0.04,1.25,0.34
		c0.4,0.31,0.84,0.46,1.35,0.46c0.06,0,0.13-0.02,0.19-0.03c0.01,0,0.02,0,0.02,0c0.17-0.01,0.35-0.02,0.54-0.07
		c0.14-0.05,0.26-0.13,0.36-0.24c0.25-0.45,0.21-0.9-0.11-1.39c-0.09-0.12-0.18-0.21-0.28-0.29c-0.27-0.21-0.61-0.39-1.01-0.54
		c-0.07-0.02-0.15-0.05-0.21-0.07l-0.28-0.56l-0.02,0.01l0.1-0.06c0.13-0.14,0.26-0.21,0.39-0.21c0.16,0,0.32,0.1,0.51,0.3
		c0.35,0.39,0.74,0.59,1.19,0.63c1.05,0.08,1.95,0.55,2.78,1.05c0.06,0.02,0.12,0.04,0.17,0.05c0.04,0.15,0.07,0.29,0.07,0.41
		c-0.22,0.23-0.43,0.46-0.49,0.8c0.21,0.71,0.63,0.81,0.97,0.81c0.18,0,0.38-0.03,0.57-0.06c0.16-0.03,0.32-0.05,0.48-0.06
		c0.5-0.19,0.6-0.63,0.69-1.06l0.03-0.13c0.1-0.2,0.19-0.31,0.26-0.31c0.07,0,0.13,0.11,0.19,0.22c0.05,0.09,0.1,0.18,0.16,0.22
		c0.03,0.03,0.06,0.05,0.1,0.07c0.13,0.44,0.5,0.71,0.98,0.71l0.1,0c0.45-0.04,0.5-0.4,0.55-0.76c0.02-0.11,0.03-0.22,0.06-0.34
		l-0.06-0.13c-0.08-0.2-0.17-0.41-0.42-0.41h0c-0.18-0.43,0.08-0.56,0.36-0.7c0.1-0.05,0.2-0.1,0.27-0.16l0.13-0.1
		c0.48-0.38,0.99-0.77,0.54-1.55L161.43,135.34z M90.99,117.72c0,0.01,0,0.02,0.01,0.03c-0.03-0.05-0.06-0.09-0.09-0.15
		C90.94,117.64,90.97,117.68,90.99,117.72z"/>
	<path d="M311.42,119.14c-0.37-0.18-0.36-0.72-0.36-1.23c0-1.08-0.12-1.98-0.37-2.81c-0.14-0.29-0.12-0.6-0.1-0.91
		c0.03-0.37,0.05-0.75-0.2-1.08c-0.49-0.44-0.89-0.73-1.21-0.73c-0.04,0-0.07,0.02-0.1,0.03c0,0-0.01,0-0.01,0
		c-0.34,0.08-0.6,0.49-0.91,1.17c-0.26,0.56-0.68,0.89-1.34,1.02c-0.35,0.07-0.58,0.29-0.62,0.58c-0.03,0.23,0.07,0.46,0.26,0.56
		c0.33,0.18,0.5,0.36,0.51,0.53c0,0.25-0.34,0.44-0.61,0.59c-1.17,0.68-1.45,1.49-1.01,2.9c0.32,1.01-0.03,2.07-0.93,2.79
		c-0.27,1-0.2,1.14,1.03,1.91c0.11,0.03,0.21,0.08,0.31,0.14c0.16,0.08,0.33,0.17,0.52,0.17c0.09,0,0.18-0.02,0.27-0.06l0.71-0.41
		c0.06-0.02,0.11-0.05,0.16-0.09c0.93-0.5,1.39-1.4,1.83-2.28l0.16-0.07c0.07-0.03,0.13-0.07,0.18-0.11
		c0.02-0.01,0.05-0.02,0.08-0.04c0,0.07,0,0.15,0.01,0.22c0.02,0.19,0.04,0.37-0.13,0.5c-0.26,0.26-0.38,0.57-0.34,0.83
		c0.03,0.19,0.15,0.34,0.35,0.44c0.13,0.06,0.24,0.1,0.35,0.1c0.32,0,0.49-0.3,0.66-0.6c0.07-0.13,0.15-0.27,0.24-0.37
		c0.17-0.13,0.26-0.27,0.27-0.41c0.01-0.16-0.08-0.32-0.27-0.5c-0.08-0.03-0.11-0.09-0.11-0.18c-0.11-0.3-0.25-0.45-0.41-0.45
		c0,0,0,0,0,0c-0.01,0-0.01,0-0.02,0c0.13-0.11,0.28-0.13,0.41-0.13c0.06,0,0.32,0.02,0.38,0.02c0.14,0,0.31-0.02,0.46-0.15
		c0.06-0.08,0.12-0.16,0.18-0.23c0.27-0.34,0.53-0.66,0.46-0.99C312.08,119.57,311.85,119.35,311.42,119.14z"/>
	<path d="M152.33,103.14C152.34,103.14,152.34,103.14,152.33,103.14C152.34,103.15,152.34,103.14,152.33,103.14L152.33,103.14z"/>
	<path d="M289.48,126.63c-0.09-0.37-0.48-0.65-0.92-0.88c-0.34-0.18-0.73-0.27-1.15-0.27c-0.09,0-0.17,0.02-0.26,0.03
		c-0.03,0-0.05,0.01-0.08,0.01c-0.47,0.06-0.9,0.22-1.27,0.47c-0.03,0.02-0.06,0.04-0.09,0.07c-0.11,0.09-0.22,0.17-0.31,0.28
		c-0.01,0.01-0.02,0.03-0.03,0.04c-0.1,0.11-0.2,0.21-0.27,0.34c-0.61,1.09-1.37,1.6-2.39,1.6c-0.12,0-0.24-0.01-0.37-0.02
		c-0.07-0.01-0.14-0.01-0.21-0.01c-0.18,0-0.38,0.02-0.61,0.07c-0.39,0.08-0.57,0.34-0.5,0.72c0.05,0.27,0.22,0.42,0.48,0.42
		c0.05,0,0.1-0.01,0.15-0.02c0.17-0.04,0.32-0.06,0.44-0.06c0.18,0,0.29,0.04,0.35,0.12c0.11,0.16,0,0.44-0.09,0.7
		c-0.04,0.11-0.08,0.21-0.1,0.3c-0.06,0.26-0.23,0.51-0.39,0.74c-0.35,0.53-0.72,1.07,0,1.89c-0.02,0.13-0.28,0.31-0.4,0.39
		l-1.25,0.84c-0.1,0.07-0.21,0.13-0.32,0.2c-0.53,0.32-1.08,0.66-1,1.49c0.12,0.05,0.23,0.07,0.35,0.07c0.3,0,0.56-0.16,0.81-0.31
		c0.23-0.14,0.47-0.29,0.73-0.31c0.98-0.01,2.04-0.18,2.51-1.43c0.09-0.15,0.24-0.23,0.4-0.31c0.2-0.1,0.4-0.2,0.46-0.46l1.16-1.92
		c1.14-1.01,2.04-1.98,1.47-3.6c-0.03-0.09-0.03-0.15,0-0.21c0.06-0.1,0.21-0.13,0.41-0.17c0.11,0,0.23-0.02,0.35-0.04
		c0.11-0.02,0.23-0.04,0.34-0.04c0.17,0,0.3,0.04,0.45,0.14c0.52-0.03,1.16-0.07,1.21-0.68c0-0.05-0.02-0.1-0.02-0.15
		C289.48,126.67,289.48,126.65,289.48,126.63z"/>
	<path d="M188.91,138.49c0-0.16-0.02-0.3-0.07-0.44c-0.13-0.38-0.46-0.55-0.75-0.68l-0.34-0.25c-0.05-0.52,0.08-1.03,0.22-1.58
		c0.05-0.12,0.16-0.21,0.27-0.31c0.23-0.2,0.47-0.4,0.12-0.87c-0.05-0.11-0.11-0.21-0.3-0.21c-0.01,0-0.12,0-0.12,0
		c-0.52,0-0.93,0.28-1.33,0.55c-0.28,0.19-0.56,0.38-0.88,0.47c-0.14,0.01-0.28,0.04-0.48,0.07c0,0-0.09-0.02-0.09-0.02
		c-0.06,0-0.12,0.02-0.16,0.07l-1.13-0.25c-0.25-0.24-0.48-0.36-0.7-0.36c-0.32,0-0.58,0.25-0.83,0.49
		c-0.14,0.13-0.27,0.26-0.41,0.35c-0.89-0.18-1.07-0.85-1.25-1.56c-0.03-0.12-0.06-0.24-0.11-0.37c-0.18-0.06-0.33-0.09-0.5-0.14
		c-0.01,0-0.01,0-0.02-0.01c-0.32-0.09-0.63-0.15-0.92-0.18c-0.03,0-0.06-0.01-0.09-0.01c-0.1-0.01-0.21-0.03-0.3-0.03
		c-0.76,0-1.43,0.23-2.06,0.69c-0.19,0.16-0.46,0.17-0.64,0.17c-0.12,0-0.23-0.01-0.34-0.02c-0.1-0.01-0.2-0.01-0.29-0.01
		c-0.21,0-0.42,0.03-0.44,0.26c-0.14,1.26-0.53,1.47-1.37,1.47c-0.21,0-0.44-0.01-0.71-0.03l-0.15-0.01c-0.79,0-2.15,0.77-3.02,1.71
		c-0.56,0.54-0.65,1.24-0.74,1.92c-0.06,0.41-0.11,0.84-0.28,1.23c-0.01,0.39,0.08,1.07,0.73,1.23c0.24,0.06,0.48,0.13,0.73,0.2
		c0.73,0.21,1.49,0.43,2.29,0.43c0.1,0,0.2-0.02,0.3-0.03c0.07,0,0.13-0.01,0.2-0.02c0.13-0.02,0.27-0.01,0.4-0.04
		c0.63-0.14,1.25-0.31,1.87-0.48c1-0.28,2.03-0.56,3.09-0.69c0.17-0.17,0.35-0.34,0.52-0.51c0.26-0.08,0.55-0.11,0.83-0.14
		c0.47-0.05,0.96-0.12,1.34-0.4c0.06-0.04,0.11-0.1,0.16-0.15c0.03-0.03,0.07-0.05,0.1-0.09c0.06,0.05,0.13,0.09,0.19,0.14
		c0.08,0.06,0.17,0.13,0.25,0.2c0.34,0.28,0.69,0.57,1.13,0.57c0.11,0,0.23-0.02,0.34-0.06c0.69-0.23,1.42-0.29,2.11-0.34
		c0.43-0.04,0.86-0.07,1.29-0.14C187.59,140.09,188.74,139.9,188.91,138.49z"/>
	<path d="M247.97,130.13l-0.19-0.11c-0.38-0.53-0.82-0.79-1.33-0.79c-0.41,0-0.85,0.16-1.45,0.5c-0.7,0.41-1.23,0.59-1.74,0.59
		c-0.5,0-0.96-0.18-1.39-0.56c0,0,0,0,0,0c-0.01,0-0.03,0.03-0.03,0.03c-0.01,0-0.03,0.03-0.03,0.04c-0.29,0.47-0.56,0.92-1.14,1.22
		c-0.59,0.31-0.9,1.03-0.81,1.93c0.04,0.4,0.17,0.6,0.41,0.6c0.11,0,0.26-0.05,0.42-0.14c1.02-0.58,2.1-0.66,3.12-0.66
		c0.3,0,0.59,0.01,0.89,0.02l0.64,0.01c0.14,0.08,0.26,0.11,0.39,0.11c0.29,0,0.52-0.22,0.71-0.44c0.36-0.54,0.82-0.81,1.41-0.83
		l0.48-0.3c0.15-0.18,0.21-0.34,0.23-0.49c0-0.01,0-0.02,0-0.03c0-0.04,0.02-0.09,0.02-0.13
		C248.53,130.46,248.25,130.29,247.97,130.13z"/>
	<path d="M97.98,95.82c0.07,0.1,0.16,0.15,0.28,0.15c0.25,0,0.56-0.22,0.82-0.4l0.12-0.08c0.15,0,0.28-0.09,0.41-0.17
		c0.13-0.08,0.24-0.16,0.39-0.16c0.07,0,0.14,0.02,0.2,0.05c0.17,0.73,0.49,0.88,0.73,0.88c0.26,0,0.55-0.18,0.82-0.51
		c0.9-1.1,1.41-2.28,1.52-3.49c0-0.09-0.02-0.18-0.06-0.27l-0.45-0.3l-0.1-0.08l-0.1-0.06c0,0,0.02-0.1,0.02-0.1
		c-0.1-0.34-0.32-0.55-0.65-0.61l-1.06-0.58c-0.51-0.15-1.02-0.22-1.49-0.22c-0.47,0-0.94,0.07-1.4,0.23
		c-0.32,0.58-0.4,1.23-0.49,1.85c-0.08,0.63-0.17,1.28-0.49,1.88c-0.25,0.48,0.22,1.04,0.63,1.54
		C97.76,95.53,97.89,95.68,97.98,95.82z"/>
	<path d="M73.66,68.06c-0.14-0.07-0.29-0.15-0.44-0.15c-0.1,0-0.18,0.03-0.26,0.1c-0.11,0.09-0.17,0.22-0.18,0.37
		c-0.01,0.15,0.04,0.3,0.14,0.39c0.46,0.46,0.19,0.76-0.12,1.13c-0.36,0.41-0.43,0.9-0.47,1.41c-0.14,0.31,0.02,0.52,0.19,0.74
		c0.11,0.14,0.21,0.28,0.27,0.44c0,0.02,0.01,0.03,0.01,0.05c-0.12-0.02-0.24-0.03-0.35-0.03c-0.11,0-0.2,0.03-0.29,0.05
		c-0.04,0.01-0.08,0.01-0.11,0.02c-0.09,0.02-0.17,0.05-0.25,0.09c-0.06,0.03-0.12,0.07-0.17,0.11c-0.1,0.07-0.18,0.14-0.26,0.23
		c-0.03,0.04-0.06,0.08-0.09,0.12c-0.08,0.12-0.14,0.25-0.19,0.4c-0.01,0.04-0.02,0.07-0.03,0.11c-0.02,0.08-0.06,0.15-0.07,0.24
		c-0.06,0.47,0.29,0.53,0.64,0.59c0.24,0.04,0.49,0.08,0.62,0.25c0.03,0.03,0.07,0.05,0.13,0.07c0.11,0.05,0.22,0.12,0.33,0.19
		c0.19,0.13,0.38,0.26,0.59,0.26c0.15,0,0.3-0.07,0.45-0.21l0.13-0.13c0.4-0.38,0.81-0.78,0.52-1.53c-0.14-0.35-0.15-0.6-0.04-0.76
		c0.09-0.13,0.26-0.2,0.52-0.2c0.15,0,0.33,0.02,0.53,0.07c0.21,0.05,0.4,0.15,0.59,0.25c0.27,0.14,0.56,0.28,0.88,0.28
		c0.07,0,0.13-0.01,0.22-0.03c0.04-0.48,0.06-0.98-0.22-1.3c-0.04-0.05-0.11-0.08-0.17-0.12c-0.02-0.01-0.03-0.03-0.05-0.04
		c-0.16-0.1-0.35-0.17-0.6-0.19c-0.58-0.14-0.65-0.6-0.74-1.14C75.16,69.23,74.63,68.53,73.66,68.06z"/>
	<path d="M259.8,54.83C259.8,54.83,259.81,54.83,259.8,54.83c2.2-0.02,3.48-1.36,3.52-3.66c0.01-0.7-0.29-1.5-0.72-1.95
		c-0.2-0.21-0.42-0.32-0.62-0.32c-0.07,0-0.14,0.01-0.21,0.04c-1.14,0.47-2.15,1.54-2.58,2.74c-0.25,0.7-0.42,1.76,0.18,2.85
		C259.45,54.69,259.56,54.83,259.8,54.83z"/>
	<path d="M253.18,80.98c-0.15,0-0.31,0.02-0.39,0.22c-0.38,0.55-0.38,1.13,0,1.77l0.07,0.41c0.21,0.41,0.44,0.81,0.8,0.92
		c0.01,0,0.02,0.01,0.03,0.01c0.05,0.01,0.08,0.04,0.13,0.04c0.2,0,0.42-0.09,0.68-0.28c0.47-0.27,0.95-0.3,1.31-0.3
		c0.21,0,0.41,0.01,0.62,0.02c0.21,0.01,0.41,0.02,0.62,0.02c0.25,0,0.46-0.02,0.65-0.06c0.03-0.01,0.07-0.01,0.11-0.01
		c0.12,0,0.25,0.03,0.37,0.05c0.13,0.03,0.27,0.06,0.39,0.06c0.28,0,0.44-0.16,0.48-0.51c0.01-0.09,0-0.16,0-0.25
		c0-0.05,0-0.1,0-0.15c0-0.15-0.01-0.29-0.04-0.42c-0.02-0.1-0.05-0.2-0.09-0.29c-0.03-0.07-0.07-0.14-0.12-0.21
		c-0.04-0.06-0.09-0.11-0.15-0.16c-0.08-0.08-0.18-0.15-0.28-0.21c-0.04-0.02-0.08-0.04-0.12-0.06c-0.08-0.04-0.15-0.09-0.24-0.11
		c-0.65-0.18-1.15-0.46-1.54-0.85c-0.12-0.22-0.3-0.37-0.57-0.46c-0.06-0.01-0.1-0.02-0.14-0.03l-0.15-0.28l-0.36-0.26l-0.13-0.31
		c-0.24-0.23-0.55-0.5-0.91-0.5c-0.23,0-0.45,0.11-0.68,0.33c-0.03,0.05-0.04,0.1-0.06,0.14c-0.01,0.03-0.02,0.05-0.03,0.08
		c-0.01,0.04-0.04,0.08-0.05,0.12l-0.24,0.23c-0.22,0.3-0.07,0.54,0.07,0.77c0.11,0.17,0.21,0.33,0.18,0.51
		c-0.03,0.01-0.07,0.01-0.16,0.01C253.22,80.98,253.2,80.98,253.18,80.98z"/>
	<path d="M276.58,73.02c0.05,0,0.1,0,0.15-0.01c0.06-0.01,0.11-0.03,0.15-0.05c0,0,0,0,0,0c0.03,0.15-0.04,0.3-0.11,0.45
		c-0.08,0.17-0.17,0.35-0.09,0.55l0.49,0.43l0.3,0.28c0.25,0.09,0.49,0.13,0.74,0.13c0.74,0,1.37-0.4,1.98-0.79l0.32-0.22
		c0.1,0.1,0.21,0.16,0.37,0.18c0.31,0,0.61-0.08,0.9-0.17l0.26-0.07c0.19-0.08,0.4-0.1,0.61-0.13c0.39-0.04,0.79-0.09,1.05-0.5
		c0.02-0.06,0.03-0.12,0.03-0.18l0.1-0.05c0.29-0.16,0.59-0.33,0.62-0.77l-0.55-0.61l-0.35-0.48l-1.17-0.82
		c-0.12,0.04-0.25,0.07-0.38,0.07c-0.28,0-0.55-0.1-0.81-0.2c-0.26-0.1-0.54-0.2-0.82-0.2c-0.04,0-0.07,0-0.1,0.01
		c-0.25-0.05-0.51-0.07-0.77-0.07c-0.88,0-1.73,0.25-2.55,0.5c-0.45,0.13-0.91,0.27-1.37,0.37c-0.35,0.07-0.59,0.25-0.68,0.52
		c-0.12,0.34,0.02,0.79,0.37,1.21C275.68,72.82,276.11,73.02,276.58,73.02z"/>
	<path d="M68.42,62.17l0.12,0.08c0.83,0.53,1.69,1.08,2.03,2.11c0,0.01,0.01,0.01,0.02,0.01c0,0,0,0,0,0
		c0.89-0.11,1.39-0.51,1.56-1.23c0.01-0.02,0.02-0.04,0.02-0.06c0.15,0.09,0.27,0.21,0.38,0.32c0.17,0.18,0.33,0.34,0.6,0.34
		c0.18,0.01,0.34,0.02,0.49,0.02c1.15,0,1.35-0.47,1.45-2.19c-0.2-0.3-0.45-0.62-0.85-0.8c-0.44-0.4-0.94-0.45-1.36-0.45
		c-0.17,0-0.33,0.01-0.5,0.02c-0.17,0.01-0.33,0.02-0.5,0.02c-0.07,0-0.15,0-0.22-0.01c-0.08,0.01-0.17,0.02-0.25,0.02
		c-0.18,0-0.37-0.02-0.56-0.04c-0.19-0.02-0.38-0.04-0.56-0.04c-0.46,0-0.78,0.14-1.06,0.46c-0.11,0.26-0.33,0.28-0.57,0.3
		c-0.22,0.02-0.45,0.04-0.57,0.27c-0.1,0.17-0.13,0.33-0.08,0.47C68.05,61.94,68.19,62.06,68.42,62.17z"/>
	<path d="M271.02,84.93c0.03,0.1,0.08,0.19,0.16,0.28c0,0,0,0,0.01,0.01c0.05,0.05,0.09,0.11,0.15,0.16c0.63,0.47,1.39,1,2.21,1.39
		c0.19,0.09,0.45,0.14,0.75,0.14c1.05,0,2.48-0.59,2.57-1.21c0.13-0.86,0.19-1.76-0.5-2.49c-0.08-0.04-0.15-0.1-0.22-0.16
		c-0.13-0.1-0.26-0.18-0.41-0.22c0,0-0.01,0-0.01,0c-0.04-0.01-0.08-0.04-0.12-0.04c-0.12,0-0.23,0.04-0.35,0.12
		c-0.48,0.3-1.08,0.61-1.82,0.61c-0.07,0-0.32-0.02-0.38-0.02c-0.55,0-1.1,0.2-1.64,0.6c-0.29,0.21-0.44,0.45-0.44,0.69
		c0,0.03,0.02,0.07,0.03,0.1C271.01,84.91,271.01,84.92,271.02,84.93z"/>
	<path d="M250.91,76.44c-0.01,0.02,0,0.03,0.16,0.09l0.09,0.03c0.67,0.39,1.03,0.61,1.24,0.61c0.21,0,0.26-0.2,0.27-0.62
		c0.01-0.1,0.01-0.21,0.02-0.34c0.31,0.85,1.08,1.01,1.83,1.16c0.25,0.05,0.5,0.1,0.74,0.18c0.07-0.01,0.13-0.02,0.18-0.05
		c0.08,0.04,0.15,0.07,0.23,0.09c0.11,0.02,0.21,0.04,0.3,0.04c0.36,0,0.6-0.18,0.73-0.55l0.31-0.47c0.14-0.05,0.28-0.14,0.42-0.23
		c0.2-0.13,0.41-0.27,0.64-0.27c0.17,0,0.33,0.07,0.49,0.21c0.1,0.15,0.26,0.21,0.42,0.27c0.22,0.09,0.46,0.18,0.54,0.52
		c0.01,0.05,0.05,0.07,0.07,0.11c0.02,0.03,0.03,0.06,0.05,0.08c0.04,0.05,0.09,0.08,0.15,0.11c0.04,0.01,0.07,0.03,0.11,0.03
		c0.04,0.01,0.06,0.03,0.1,0.03c0.12,0,0.25-0.02,0.38-0.04c0.12-0.02,0.23-0.04,0.33-0.04c0.27,0,0.46-0.16,0.49-0.41
		c0.05-0.39-0.21-0.55-0.46-0.7c-0.06-0.03-0.11-0.07-0.16-0.1l-0.77-0.52l-2.22-3.81c0.04-0.38-0.14-0.68-0.31-0.96
		c-0.07-0.11-0.13-0.22-0.19-0.34c-0.02-0.05-0.04-0.1-0.06-0.14l-0.01-0.41c0.51-0.57,0.54-1.25,0.57-1.92
		c0.01-0.29,0.03-0.59,0.06-0.86c0.08-0.01,0.17-0.01,0.25-0.01c0.02,0,0.04,0,0.07,0c0.35,0,0.69,0.08,1.01,0.16
		c0.83,0.22,1.69,0.36,2.52,0.5c0.34,0.06,0.68,0.11,1.01,0.17l0.61,0.4c0.2,0.11,0.44,0.13,0.66,0.15c0.31,0.03,0.61,0.05,0.84,0.3
		c0.1,0.1,0.24,0.22,0.39,0.22c0.08,0,0.15-0.04,0.2-0.11c0.13-0.17,0.03-0.33-0.06-0.48c-0.05-0.08-0.1-0.17-0.13-0.27l-1.64-1.11
		c-0.01-0.09-0.02-0.19-0.02-0.29c-0.02-0.29-0.03-0.58-0.23-0.82c0.05-0.21,0.01-0.39-0.1-0.53c-0.18-0.23-0.53-0.29-0.73-0.29
		c0,0-0.1,0.01-0.14,0.01c-0.39,0-0.69-0.17-0.99-0.34c-0.18-0.1-0.37-0.21-0.58-0.28c-0.33-0.1-0.61-0.23-0.56-0.62
		c0.05-0.36,0.36-0.47,0.67-0.58c2.99-1.09,3.06-1.35,3.15-4.49c0.02-0.73-0.07-1.14-0.29-1.37c-0.14-0.14-0.33-0.21-0.58-0.21
		c-0.2,0-0.44,0.04-0.73,0.13c-1.32,0.3-2.95,0.84-3.94,2.46c-0.13,0.18-0.18,0.37-0.15,0.56c0.01,0.04,0.04,0.08,0.07,0.11
		c0,0.01,0.01,0.02,0.01,0.02c-0.09,0.02-0.17,0.05-0.25,0.09c-0.12,0.08-0.23,0.17-0.33,0.26c-0.02,0.02-0.04,0.03-0.07,0.05
		l0.03-0.05c0.04-0.06,0.08-0.13,0.13-0.19c0.03-0.07,0.07-0.14,0.11-0.21c0.1-0.19,0.21-0.38,0.22-0.61
		c0.68-1.27,0.62-2.76-0.14-3.72c-0.76-0.96-0.48-1.37,0.11-2.09c0.26-0.32,0.66-0.8,0.24-1.25c-0.17-0.18-0.38-0.27-0.63-0.27
		c-0.25,0-0.53,0.1-0.8,0.27c-1.15,0.75-1.94,1.61-2.41,2.61c-0.29,0.3-0.38,0.69-0.48,1.06c-0.08,0.3-0.15,0.62-0.34,0.89
		l-0.31,2.01c-1.12,1.35-1.11,1.9,0.03,3.08c0.56,0.58,0.66,1.25,0.32,2.11c-0.2,0.48-0.13,0.96-0.06,1.43l0.03,0.2
		c0.04,0.12,0.07,0.24,0.09,0.36c0.05,0.25,0.1,0.5,0.3,0.7c0.09,0.1,0.18,0.21,0.27,0.3l0.3,1.31l0.22,1.32
		c-0.48,0.25-0.61,0.7-0.73,1.13c-0.07,0.22-0.13,0.45-0.25,0.65c-0.03,0.04-0.05,0.09-0.06,0.12c-0.06,0.01-0.12,0.02-0.18,0.02
		c-0.35,0-0.66-0.18-0.96-0.35c-0.3-0.17-0.62-0.35-0.98-0.35c-0.08,0-0.17,0.01-0.25,0.03c-0.69,0.32-1.04,0.75-1.06,1.32
		c-0.02,0.53,0.15,1.04,0.31,1.53C250.9,75.04,251.12,75.71,250.91,76.44z M256.45,62.2c0.14-0.09,0.28-0.17,0.38-0.29
		c-0.06,0.15-0.1,0.32-0.11,0.49c-0.11,0.03-0.2,0.11-0.29,0.19c-0.11,0.1-0.23,0.2-0.38,0.2c-0.04,0-0.08-0.01-0.11-0.01
		c0,0-0.01,0-0.01,0C255.97,62.49,256.21,62.34,256.45,62.2z M257.08,61.48c-0.04,0.05-0.07,0.1-0.11,0.15
		c0.01-0.03,0.01-0.07,0.01-0.11C257.02,61.52,257.05,61.51,257.08,61.48z"/>
	<path d="M321.16,82.53c-0.27,0-0.53,0.03-0.77,0.09c-0.54-0.09-1.1-0.13-1.64-0.17c-0.6-0.04-1.21-0.08-1.82-0.2
		c-0.1-0.02-0.2-0.04-0.3-0.07c-0.14-0.03-0.27-0.06-0.41-0.1c-0.36,0.42-0.5,0.74-0.41,0.99c0.09,0.26,0.41,0.45,0.99,0.57
		c0.31,0.07,0.64,0.08,0.95,0.09c0.62,0.02,1.26,0.04,1.8,0.5c0.94,0.62,2.03,0.86,3.09,1.09l0.45,0.1c0.29,0.07,0.56,0.1,0.81,0.1
		c0.61,0,1.12-0.2,1.49-0.6l1.38-0.19c0.07,0.01,0.15,0.01,0.22,0.01c0.26,0,0.46-0.04,0.64-0.13c0.2-0.17,0.29-0.3,0.27-0.41
		c0-0.03-0.04-0.05-0.05-0.07c0,0,0,0,0-0.01c-0.06-0.07-0.15-0.12-0.26-0.17c-0.14-0.06-0.28-0.11-0.3-0.23
		c-0.22-0.26-0.48-0.29-0.68-0.29c-0.1,0-0.21,0.01-0.31,0.02c-0.1,0.01-0.21,0.02-0.38,0.02l-0.42-0.28l-0.44-0.28
		c-0.23,0.05-0.46,0.08-0.71,0.08c-0.54,0-1.08-0.12-1.6-0.24C322.24,82.66,321.7,82.53,321.16,82.53z"/>
	<path d="M239.54,84.02l-1.41-0.31c-0.38,0-0.73-0.18-1.06-0.35c-0.34-0.17-0.7-0.35-1.08-0.35c-0.18,0-0.35,0.04-0.5,0.13
		c-0.01,0.01-0.02,0.01-0.03,0.01c0-0.08-0.01-0.16-0.03-0.26c-1.27-0.33-2.78-0.68-4.37-0.68c-0.3,0-0.6,0.01-0.91,0.04
		c-0.59,0.05-0.94,0.26-1.14,0.68c-0.02,0.38-0.16,0.75-0.29,1.1c-0.2,0.5-0.4,1.03-0.24,1.61c0.03,0.61,0.49,0.79,0.82,0.86
		c0.04,0.09,0.09,0.13,0.14,0.13c0.02,0,0.04-0.02,0.06-0.03c0,0,0,0,0,0c0.03-0.01,0.05-0.02,0.07-0.05l0.12,0
		c0.71,0,1.35-0.28,1.96-0.55c0.55-0.24,1.11-0.49,1.71-0.54l0.63,0.5c0.1,0.1,0.19,0.14,0.28,0.14c0.1,0,0.19-0.06,0.27-0.16
		c0.29-0.28,0.71-0.44,1.15-0.44c0.13,0,0.25,0.01,0.36,0.04c0.77,0.18,1.49,0.27,2.2,0.27c0.76,0,1.48-0.11,2.17-0.34
		c0.05-0.01,0.09-0.02,0.14-0.03c-0.4,1.13,0.05,2.08,0.54,2.85l0.1,0.15c0.17,0.25,0.33,0.49,0.29,0.8l0.51,0.64
		c0.14,0.08,0.3,0.15,0.44,0.15c0.16,0,0.29-0.09,0.39-0.27c0.4-0.47,0.42-0.9,0.07-1.5c-0.56-0.97-0.71-1.47-0.58-1.87
		c0.15-0.44,0.68-0.74,1.5-1.09c0.12-0.05,0.22-0.12,0.33-0.19c0.09-0.06,0.17-0.11,0.27-0.16c0.28-0.13,0.42-0.31,0.41-0.49
		c-0.01-0.17-0.18-0.33-0.42-0.41l-0.24-0.07c-0.86-0.27-1.76-0.55-2.64-0.55C240.79,83.44,240.13,83.63,239.54,84.02z"/>
	<path d="M101.17,40.19c0.14,0.08,0.26,0.15,0.16,0.36c-0.33,0.32-0.46,0.59-0.4,0.82c0.09,0.33,0.57,0.5,0.92,0.6
		c0.1,0.03,0.21,0.04,0.33,0.04c0,0,0,0,0,0c0.38,0,0.75-0.16,1.12-0.34c0.5-0.33,0.77-0.67,0.87-1.1c0.31-0.56,0.31-1.13-0.01-1.68
		l-1.13-1.38c-0.21-0.55-0.44-0.81-0.71-0.81c-0.3,0-0.61,0.33-0.9,0.65l-0.11,0.12c-0.73,0.48-1.06,0.85-1.09,1.24
		c-0.04,0.38,0.21,0.79,0.81,1.37C101.07,40.13,101.12,40.16,101.17,40.19z"/>
	<path d="M246.26,38.98c0.01,0.02,0.01,0.03,0.02,0.05c0.02,0.05,0.03,0.11,0.06,0.16c0.1,0.15,0.15,0.35,0.2,0.56
		c0.1,0.37,0.21,0.74,0.54,0.87c0,0,0,0,0,0c0.07,0.03,0.15,0.06,0.24,0.06c0.14,0,0.31-0.03,0.51-0.11
		c0.08-0.12,0.17-0.23,0.27-0.34c0.31-0.38,0.63-0.76,0.5-1.35c-0.05-0.45,0.17-0.82,0.38-1.17c0.09-0.14,0.17-0.29,0.24-0.44
		c0.31-0.67,0.31-1.36,0.02-1.94c-0.3-0.58-0.87-0.98-1.62-1.13c-0.19,0.09-0.4,0.21-0.46,0.4c-0.04,0.13-0.01,0.27,0.09,0.43
		l0.09,1.64c-0.01,0.13,0.04,0.24,0.14,0.32c0.09,0.28,0.07,0.53-0.04,0.72c-0.1,0.16-0.26,0.27-0.48,0.31
		c-0.37,0.07-0.62,0.25-0.73,0.49c-0.02,0.04-0.01,0.08-0.02,0.12c0,0.02-0.01,0.05-0.01,0.07
		C246.21,38.79,246.22,38.88,246.26,38.98z"/>
	<path d="M223.21,80.72c0.02-0.38-0.25-0.76-0.83-1.17c-0.26-0.1-0.52-0.22-0.79-0.34c-0.8-0.36-1.64-0.73-2.52-0.73
		c-0.46,0-0.9,0.1-1.34,0.31c-0.08,0.1-0.13,0.2-0.14,0.29c-0.27,0.04-0.47,0.2-0.6,0.47c-0.06,0.24-0.19,0.46-0.32,0.68
		c-0.28,0.48-0.56,0.98-0.19,1.61c0.39,0.67,0.78,0.97,1.24,0.97c0.21,0,0.44-0.07,0.67-0.2c0.15-0.08,0.27-0.12,0.36-0.12
		c0.14,0,0.25,0.07,0.4,0.26c0.25,0.31,0.47,0.46,0.67,0.46c0.26,0,0.48-0.25,0.68-0.8l0.23-0.25c0.09,0.01,0.19,0.02,0.28,0.02
		c0.4,0,0.79-0.1,1.15-0.31C222.85,81.49,223.19,81.11,223.21,80.72z"/>
	<path d="M242.4,94.29c-0.32,0-0.64,0.32-0.71,0.73c-0.46,0.92-0.37,1.56,0.3,2.07c1.25,1.87,3.3,2.76,5.12,3.45
		c0.14,0.05,0.28,0.08,0.43,0.08c0.59,0,1.21-0.4,1.8-0.79c0.33-0.21,0.67-0.43,0.99-0.58c0.82,0,1.53-0.07,1.98-0.82
		c0.13-0.64,0.26-1.3-0.07-1.95c-0.5-0.3-0.93-0.72-1.34-1.12c-0.57-0.55-1.16-1.13-1.95-1.42c-0.05-0.04-0.1-0.06-0.14-0.06
		c-0.04,0-0.07,0.02-0.1,0.02c0,0-0.01,0-0.01,0c-0.29-0.37-0.63-0.55-1.01-0.55c-0.13,0-0.27,0.02-0.41,0.07
		c-0.55,0.1-1.1,0.24-1.63,0.38c-0.95,0.25-1.94,0.5-2.96,0.5C242.6,94.3,242.51,94.3,242.4,94.29z"/>
	<path d="M299.01,112.76c0-0.02,0.01-0.03,0.01-0.05c0.03-0.13,0.04-0.27,0.03-0.41c0-0.03,0-0.06-0.01-0.1
		c-0.02-0.14-0.06-0.29-0.13-0.44c-0.01-0.02-0.01-0.03-0.02-0.05c-0.04-0.08-0.06-0.16-0.1-0.25c-0.32-0.23-0.59-0.34-0.82-0.34
		c-0.34,0-0.6,0.23-0.8,0.69c-0.05,0.12-0.05,0.27-0.05,0.42c0,0.3,0,0.58-0.46,0.67c0,0,0-0.01,0-0.01l0,0
		c0.01-0.01,0.01-0.01,0.01-0.01l-0.05-0.02l-0.04-0.03l0.02,0.03l-0.04-0.01l0.07,0.08c0,0,0.01-0.01,0.01-0.01l0,0c0,0,0,0,0.01,0
		c0,0-0.01,0-0.01,0c0.02,0.07,0,0.13-0.06,0.19c-0.07,0.18-0.12,0.36-0.17,0.55c-0.08,0.3-0.16,0.61-0.37,0.88
		c-0.21,0.13-0.43,0.26-0.64,0.35c0,0-0.01,0-0.01,0.01l-0.08-0.2c-0.11-0.3-0.24-0.59-0.47-0.79c-0.01-0.01-0.02-0.02-0.03-0.03
		c-0.09-0.07-0.21-0.12-0.34-0.16c-0.03-0.01-0.06-0.02-0.1-0.02c-0.06-0.01-0.09-0.03-0.16-0.03l-0.04,0.02c-0.02,0-0.04,0-0.07,0
		c0,0.02-0.01,0.04-0.01,0.05l-0.02,0.01l-0.02,0.11c-0.32,0.13-0.4,0.41-0.47,0.68c-0.02,0.07-0.04,0.14-0.06,0.22l0.52,0.87
		l0.02,0.23c0.02,0.36,0.06,0.73,0.34,1c0.02,0.01,0.03,0.03,0.05,0.04c0.04,0.03,0.07,0.07,0.12,0.1
		c-0.01,0.09,0.01,0.18,0.07,0.27l0.28,0.06l0.28-0.08l0.43-0.01c0.04,0.04,0.09,0.09,0.14,0.13c0.08,0.02,0.15,0.03,0.22,0.03
		c0.07,0,0.14-0.04,0.2-0.06c0.02-0.01,0.04-0.01,0.06-0.02c0.06-0.03,0.11-0.07,0.16-0.11c0.02-0.02,0.03-0.04,0.05-0.06
		c0.04-0.05,0.1-0.08,0.13-0.15c0.16-0.35,0.32-0.71,0.26-1.11c0.18-0.25,0.35-0.5,0.52-0.75c0.39-0.57,0.79-1.15,1.25-1.67
		c0.08-0.09,0.12-0.17,0.18-0.26c0,0,0,0,0,0C298.9,113.06,298.96,112.91,299.01,112.76z"/>
	<path d="M240.11,43.81c0.04,0.06,0.1,0.08,0.15,0.13c0.02,0.02,0.05,0.04,0.07,0.06c0.08,0.07,0.17,0.11,0.27,0.15
		c0.04,0.01,0.08,0.02,0.12,0.03c0.05,0.01,0.09,0.03,0.14,0.03c0.23,0,0.46-0.09,0.71-0.26c0.47-0.32,0.53-0.8,0.19-1.45
		c-0.1-0.13-0.22-0.25-0.34-0.38c-0.25-0.27-0.51-0.54-0.64-0.86c-0.22-0.54-0.51-0.81-0.88-0.81c-0.25,0-0.55,0.12-0.94,0.38
		c-0.17,0.39-0.31,0.89,0.05,1.39L240.11,43.81z"/>
	<path d="M210.27,72.07c-0.34,0-0.66,0.15-0.93,0.29l-0.19,0.04c-0.63,0.38-1.33,0.88-1.75,1.67c-0.06,0.12-0.09,0.24-0.09,0.38
		l0.1,0.16l0.28,0.26c0,0,0.01,0,0.01,0c0,0,0.5-0.15,0.75-0.23c0.56-0.17,1.11-0.33,1.66-0.54c0.67-0.25,1.1-0.47,1.17-0.77
		c0.07-0.31-0.24-0.69-0.81-1.26C210.4,72.07,210.33,72.07,210.27,72.07z"/>
	<path d="M157.75,125.74l0.08-0.02c0.32-0.2,0.69-0.24,1.06-0.27c0.54-0.05,1.06-0.1,1.38-0.64c0.08-0.13-0.11-0.47-0.22-0.63
		c-0.3-0.42-0.73-0.6-1.43-0.6c-0.07,0-0.15,0-0.23,0.01l-0.18,0.02c-0.44,0.05-1.05,0.11-1.14,0.84c-0.04,0.35,0.18,0.87,0.41,1.13
		C157.58,125.69,157.67,125.74,157.75,125.74z"/>
	<path d="M259.03,134.77c-0.02-0.04-0.04-0.1-0.06-0.15c-0.05-0.13-0.09-0.27-0.18-0.29c-0.31-0.08-0.61-0.22-0.9-0.35
		c-0.45-0.21-0.92-0.43-1.44-0.43c-0.1,0-0.2,0.01-0.3,0.02c-0.29,0.05-0.47,0.15-0.55,0.31c-0.07,0.15-0.05,0.35,0.08,0.59
		c0.33,0.62,0.93,0.84,1.51,1.05c0.22,0.08,0.43,0.16,0.63,0.25c0,0,0.07,0.02,0.07,0.02c0.23,0,0.71-0.3,0.98-0.73
		c0.03-0.04,0.05-0.09,0.07-0.13C258.98,134.87,259.01,134.82,259.03,134.77z"/>
	<path d="M311.21,79.34c0.14,0.19,0.31,0.21,0.45,0.21c0.06,0,0.12-0.01,0.18-0.01c0.06,0,0.12-0.01,0.18-0.01
		c0.09,0,0.16,0.01,0.22,0.04l0.02,0c0.25,0,0.38-0.16,0.51-0.31c0.05-0.06,0.1-0.12,0.15-0.17c0.25-0.32,0.34-0.59,0.28-0.85
		c-0.07-0.29-0.33-0.54-0.83-0.79c-0.26-0.13-0.49-0.19-0.7-0.19c-0.48,0-0.82,0.32-1.02,0.95
		C310.54,78.72,310.72,79.09,311.21,79.34z"/>
	<path d="M315.48,76.22l0.11,0.09c0.03,0.04,0.06,0.08,0.1,0.12c0.09,0.12,0.18,0.25,0.35,0.3c0,0,0.01,0,0.01,0
		c0.05,0.01,0.09,0.02,0.15,0.02c0.02,0,0.03,0,0.05,0c0.04,0.31,0.27,0.36,0.52,0.4c0.09,0.29,0.33,0.37,0.57,0.45
		c0.23,0.08,0.45,0.15,0.54,0.4c0.07,0.16,0.15,0.33,0.32,0.42c0.43,0.75,1.11,0.96,1.83,1.18c0.25,0.08,0.5,0.15,0.74,0.26
		c0.41,0.17,0.78,0.26,1.13,0.26c0.69,0,1.27-0.34,1.83-1.09c-0.02-0.54-0.4-0.82-0.83-1.15c-0.11-0.05-0.2-0.08-0.27-0.08
		c-0.13,0-0.21,0.08-0.26,0.23c-0.12,0.11-0.22,0.16-0.3,0.16c-0.17,0-0.25-0.22-0.29-0.41c-0.09-0.47-0.35-0.84-0.61-1.2
		c-0.07-0.1-0.14-0.2-0.21-0.3c-0.07-0.1-0.17-0.17-0.29-0.2c0,0-0.09,0.01-0.09,0.01l-0.16-0.21l-0.31-0.39l-0.54-0.03l-0.81,0
		c-0.39-0.24-0.83-0.28-1.26-0.33c-0.4-0.04-0.78-0.08-1.11-0.26c-0.27-0.15-0.49-0.22-0.68-0.22c-0.35,0-0.58,0.23-0.8,0.77
		C314.98,75.79,315.23,76.01,315.48,76.22z"/>
	<path d="M138.23,114.41c-0.45-0.46-0.89-0.69-1.37-0.69c-0.28,0-0.57,0.08-0.88,0.27c0.05,0.21,0.17,0.4,0.3,0.57
		c0.22,0.32,0.46,0.65,0.23,1.2c-0.06,0.14-0.06,0.26,0,0.35c0.14,0.23,0.63,0.26,0.97,0.28l0.08,0c0.21,0,0.37-0.06,0.49-0.15
		c0.01-0.01,0.02-0.01,0.03-0.02c0.03-0.02,0.06-0.03,0.08-0.06c0.09-0.13,0.11-0.3,0.04-0.5c-0.08-0.24-0.03-0.46,0.01-0.68
		C138.24,114.8,138.27,114.61,138.23,114.41z"/>
	<path d="M263.55,125.59c-0.1-0.06-0.2-0.13-0.3-0.2c-0.2-0.15-0.4-0.3-0.64-0.3c-0.16,0-0.32,0.07-0.49,0.22
		c-0.34,0.3-0.7,0.71-0.5,1.31c0.17,0.51,0.51,0.82,0.97,0.87c0.03,0,0.1,0.01,0.1,0.01c0.43,0,0.54-0.31,0.65-0.62
		c0.06-0.18,0.13-0.36,0.26-0.48c0.16-0.16,0.23-0.31,0.22-0.45C263.79,125.82,263.71,125.7,263.55,125.59z"/>
	<path d="M82.95,48.08c0.04,0,0.08,0,0.12-0.01c0.07-0.01,0.12-0.04,0.18-0.06c0.02-0.01,0.04-0.01,0.06-0.02
		c0.13-0.05,0.24-0.11,0.35-0.19c0.01-0.01,0.02-0.02,0.04-0.03c0.1-0.08,0.19-0.17,0.26-0.28c0.02-0.03,0.03-0.05,0.05-0.08
		c0.06-0.1,0.1-0.2,0.13-0.31c0.01-0.04,0.01-0.07,0.02-0.11c0.01-0.06,0.03-0.11,0.03-0.17c0-0.07-0.03-0.14-0.05-0.21c0,0,0,0,0,0
		c-0.12-0.39-0.51-0.72-1.22-0.98c-0.63,0.31-0.68,0.94-0.67,1.38C82.24,47.33,82.33,48.08,82.95,48.08z"/>
	<path d="M269.17,71.64c0.23,0.18,0.46,0.36,0.68,0.56c0.08,0.08,0.17,0.12,0.26,0.12c0.09,0,0.17-0.04,0.25-0.12
		c0.22-0.22,0.07-0.41-0.08-0.62c-0.61-0.86-1.42-1.54-2.23-2.21l-0.48,0.01c-0.02,0-0.04,0-0.06,0c0,0,0,0,0,0l-0.02,0
		C267.66,70.45,268.43,71.05,269.17,71.64z"/>
	<path d="M265.31,134.07c-0.13-0.02-0.25-0.02-0.37-0.02c-0.56,0-0.93,0.2-1.19,0.62c-0.09,0.14-0.11,0.26-0.08,0.35
		c0.01,0.04,0.05,0.06,0.08,0.09c0,0,0.01,0.01,0.01,0.01c0.08,0.08,0.19,0.13,0.31,0.18l0.08,0.03c0.28,0.27,0.64,0.42,1.14,0.47
		c0,0,0,0,0,0c0,0,0,0,0,0c0.64-0.11,1.02-0.46,1.01-0.94C266.29,134.37,265.78,134.13,265.31,134.07z"/>
	<path d="M107.29,83.7c0.05,0,0.11-0.01,0.16-0.02c0.47-0.11,1.36-0.33,1.35-1.02c0-0.58-0.47-0.58-0.85-0.58
		c-0.14,0-0.26,0-0.36-0.03c-0.11-0.01-0.21-0.02-0.3-0.02c-0.28,0-0.46,0.06-0.57,0.18c-0.11,0.12-0.14,0.31-0.1,0.57
		C106.71,83.39,106.94,83.7,107.29,83.7z"/>
	<path d="M200.77,127.74c0.01,0.01,0.03,0.03,0.05,0.04c0.03,0.02,0.04,0.05,0.08,0.06c0.22,0.06,0.44,0.18,0.66,0.29
		c0.33,0.18,0.68,0.36,1.06,0.36c0.21,0,0.4-0.05,0.61-0.18c0.01-0.1-0.01-0.17-0.02-0.26c0-0.03,0-0.06-0.01-0.09
		c-0.01-0.13-0.04-0.25-0.08-0.36c-0.03-0.08-0.06-0.15-0.1-0.2c-0.02-0.02-0.02-0.06-0.04-0.08c-0.27-0.29-0.71-0.31-1.14-0.32
		c-0.28-0.01-0.56-0.02-0.81-0.1l-0.09,0.16c-0.13,0.22-0.28,0.47-0.21,0.64C200.72,127.72,200.75,127.73,200.77,127.74z"/>
	<path d="M222.36,112.28c0.48,0.2,0.77,0.28,0.97,0.28c0.19,0,0.3-0.09,0.39-0.23c0.01-0.01,0.02-0.02,0.02-0.03
		c0.12-0.22,0.18-0.57,0.2-1.11c-0.28-0.23-0.58-0.34-0.9-0.34c-0.3,0-0.6,0.11-0.88,0.33c-0.33,0.27-0.14,0.58,0.03,0.86
		C222.27,112.12,222.32,112.2,222.36,112.28z"/>
	<path d="M185.78,90.38c-0.12,0.15-0.27,0.27-0.42,0.4c-0.37,0.31-0.76,0.64-0.63,1.27c-0.03,0.26,0.14,0.39,0.3,0.51
		c0.11,0.09,0.22,0.18,0.28,0.32c0.04,0.01,0.08,0.01,0.12,0.01c0.03,0,0.07,0,0.11-0.01c0.19,0.44,0.03,0.85-0.13,1.24
		c-0.16,0.4-0.32,0.82-0.13,1.25c0,0.11,0,0.22-0.01,0.33c-0.02,0.37-0.04,0.76,0.25,1.17c-0.01,0.19-0.01,0.38,0.21,0.48
		c0.28,0.55,0.59,0.92,1.17,0.92c0.22,0,0.47-0.05,0.77-0.16c0.14-0.05,0.29-0.11,0.44-0.17c0.55-0.21,1.11-0.43,1.71-0.43
		c0.15,0,0.29,0.01,0.43,0.03c0.03,0.07,0.07,0.14,0.12,0.21c0.09,0.14,0.18,0.29,0.14,0.39c-0.47,1.28,0.13,2.22,0.85,3.03
		c0.19,0.22,0.21,0.5,0.23,0.78c0.01,0.13,0.02,0.26,0.05,0.39c0.3,1.38-0.13,2.66-0.54,3.9c-0.3,0.91-0.6,1.84-0.62,2.82
		c0,0.01,0,0.02,0,0.03c0,0.15-0.02,0.3-0.01,0.45c0.01,0.13-0.2,0.31-0.31,0.41c-0.86,0.76-0.83,1.75-0.72,2.53
		c0.07,0.76,0.43,1.24,1.08,1.46c0.11,0.08,0.24,0.14,0.36,0.2c0.3,0.16,0.59,0.31,0.78,0.66c0.2,0.37,0.56,0.59,0.97,0.59
		c0.48,0,0.98-0.3,1.28-0.77c0.45-0.02,0.9-0.11,1.34-0.2c0.48-0.1,0.98-0.2,1.46-0.2c0.62,0,1.14,0.16,1.62,0.52
		c0.07,0.05,0.16,0.08,0.25,0.08c0.2,0,0.39-0.14,0.46-0.35c0.1-0.29-0.12-0.43-0.32-0.56l-0.1-0.05c0.08-0.25-0.06-0.41-0.19-0.55
		c-0.06-0.07-0.13-0.14-0.16-0.21c0.01-0.62-0.14-1.23-0.29-1.83c-0.22-0.89-0.45-1.81-0.13-2.74c0,0,0,0,0,0
		c0.05-0.13,0.1-0.27,0.17-0.4c0.49-0.96,1-1.96,0.28-3.05l-0.01-0.23c-0.01-0.41-0.02-0.83-0.23-1.2c0.06-0.44,0.07-0.89,0.08-1.33
		c0.02-0.92,0.05-1.88,0.48-2.76c0.09-0.15,0.1-0.31,0.03-0.5c-0.01-0.02,0-0.04-0.01-0.07c0,0,0,0,0,0c0-0.01,0-0.01,0-0.02
		l-0.07,0.02l-0.01-2.69c0.11-0.07,0.17-0.17,0.2-0.31c-0.02-0.06-0.02-0.14-0.02-0.22c-0.01-0.19-0.02-0.41-0.28-0.41
		c-0.01,0-0.01,0-0.02,0c0.03-0.29-0.12-0.53-0.28-0.73c-0.31-0.39-0.44-0.76-0.38-1.09c0.06-0.34,0.3-0.65,0.76-0.94
		c0.24-0.15,0.45-0.34,0.62-0.55c0.04-0.07,0.1-0.14,0.15-0.19c0.01-0.01,0.02-0.02,0.02-0.03c0.19-0.17,0.43-0.26,0.66-0.35
		c0.19-0.07,0.38-0.14,0.54-0.25c0.12,0.01,0.24,0.01,0.36,0.01l0.65-0.01c0.48,0,0.98,0.04,1.43,0.34l0.08,1.78
		c0.14,0.53-0.14,0.91-0.49,1.33c-0.29,0.34-0.59,0.77-0.61,1.33c-0.29,0.57-0.4,1.06-0.37,1.48c0,0.03,0.01,0.07,0.02,0.1
		c0.02,0.15,0.06,0.29,0.13,0.42c0.02,0.04,0.04,0.07,0.07,0.11c0.04,0.06,0.07,0.13,0.12,0.19c1.38,1.49,2.87,2.74,4.43,3.69
		c0.09,0.17,0.24,0.19,0.39,0.21c0.08,0.01,0.16,0.02,0.23,0.06c0.21,0.08,0.33,0.18,0.37,0.31c0.04,0.14-0.03,0.31-0.19,0.49
		c-0.31,0.35-0.3,0.75-0.25,1.14c-0.62,0.77-0.75,1.64-0.39,2.57c0.02,0.08,0.06,0.17,0.1,0.25c0.76,1.4,2.12,1.63,3.34,1.66
		c0.24,0.13,0.47,0.2,0.7,0.2c0.5,0,0.93-0.32,1.28-0.64c0.21-0.39,0.03-0.72-0.16-0.97c-0.07-0.02-0.13-0.03-0.18-0.12
		c-0.04-0.25-0.09-0.5-0.04-0.75c0.1-0.09,0.17-0.19,0.23-0.29c0.02-0.05,0.04-0.08,0.05-0.11c0.1-0.04,0.21-0.06,0.32-0.07
		c0.16-0.02,0.32-0.05,0.45-0.14l-0.01-0.01c0,0,0,0,0,0c0,0,0,0,0,0l0.1,0.03c0.13,0,0.25-0.01,0.38-0.05
		c0.23-0.07,0.47-0.15,0.72-0.27c0.04-0.02,0.08-0.03,0.12-0.05c0.01-0.01,0.02-0.01,0.02-0.02c0.01-0.01,0.02-0.01,0.03-0.02
		c0.09,0.04,0.18,0.07,0.27,0.07c0.12,0,0.25-0.04,0.36-0.12c0.15,0.22,0.37,0.35,0.57,0.46c0.13,0.08,0.27,0.14,0.42,0.2
		c0.07,0.03,0.14,0.05,0.21,0.08c0.05,0.02,0.1,0.04,0.15,0.07c-0.07-0.01-0.15-0.02-0.22-0.02c-0.65,0-1.18,0.42-1.69,0.82
		c-0.14,0.11-0.28,0.22-0.42,0.32c-0.09,0.03-0.17,0.07-0.26,0.11c-0.07,0.04-0.13,0.11-0.16,0.18l-0.25,0.25l-0.25,0.27
		c0.35,0.71,0.41,1.46,0.18,2.29c-0.12,0.19-0.26,0.35-0.46,0.51c-0.26,1.41-0.03,1.78,1.29,2.04c0.08,0.02,0.16,0.02,0.24,0.03
		c0.28,0.03,0.55,0.06,0.69,0.39l0.07,0.2c0.05,0.14,0.11,0.29,0.13,0.44c0.02,0.1,0.05,0.17,0.08,0.26
		c0.01,0.04,0.02,0.09,0.04,0.13c0.05,0.13,0.1,0.24,0.17,0.34c0.04,0.06,0.08,0.12,0.13,0.17c0.06,0.07,0.13,0.13,0.21,0.18
		c0.07,0.04,0.14,0.08,0.22,0.11c0.12,0.05,0.27,0.08,0.42,0.1c0.04,0.01,0.08,0.01,0.12,0.02c0.07,0.01,0.13,0.03,0.2,0.03l0.13,0
		c0.96-0.03,1.42-0.5,1.52-1.56c0.02-0.21,0.08-0.42,0.15-0.62c0.03-0.09,0.06-0.19,0.06-0.27l0.14,0.02l0.1-0.07
		c0.11,0.05,0.22,0.08,0.33,0.08c0.32,0,0.57-0.22,0.79-0.41c0.49-0.14,1.24-0.35,1.08-1.12c-0.09-0.43-0.32-0.73-0.62-0.9
		c0,0-0.01,0-0.01-0.01c-0.17-0.09-0.35-0.15-0.57-0.15c-0.05,0-0.11,0-0.16,0.01c-0.61-0.34-0.7-0.78-0.32-1.47
		c0.04-0.07,0.08-0.15,0.11-0.22c0.12-0.26,0.22-0.47,0.49-0.47c0.13,0,0.28,0.05,0.48,0.14c0.08,0.04,0.15,0.06,0.23,0.06
		c0.05,0,0.1-0.03,0.14-0.05c0,0,0,0,0,0c0.11-0.04,0.21-0.12,0.27-0.24c0.02-0.04,0.02-0.08,0.03-0.13
		c0.01-0.02,0.01-0.04,0.01-0.06c0.02-0.1,0.02-0.18,0-0.27c-0.01-0.03-0.02-0.05-0.03-0.08c-0.02-0.04-0.01-0.09-0.04-0.12
		c-0.27-0.36-0.38-0.84-0.48-1.3c-0.21-0.94-0.43-1.9-1.9-1.95c-0.04,0-0.07-0.02-0.09-0.03c-0.02-0.01-0.04-0.01-0.05-0.02
		c-0.09-0.07-0.11-0.22-0.13-0.39c-0.01-0.13-0.03-0.27-0.09-0.35c0.12-0.12,0.21-0.17,0.28-0.17c0.08,0,0.16,0.06,0.23,0.2
		c0.4,0.3,0.73,0.45,1.04,0.45c0.33,0,0.63-0.17,0.91-0.52c0.27-0.55,0.36-1.02,0.31-1.47c-0.05-0.43-0.18-0.95-0.49-0.95
		c-0.04,0-0.08,0.01-0.12,0.02c-0.25,0.09-0.54,0.1-0.82,0.11c-0.42,0.01-0.85,0.04-1.17,0.34c-0.01,0.01-0.03,0.03-0.04,0.05
		c-0.06,0.06-0.13,0.12-0.18,0.21l-0.82-0.17c-0.06-0.05-0.14-0.08-0.22-0.08c-0.14,0-0.29,0.08-0.42,0.15
		c-0.1,0.06-0.2,0.11-0.27,0.11c-0.04,0-0.1-0.01-0.13-0.13c-0.03-0.12-0.09-0.22-0.14-0.33c0-0.01-0.01-0.02-0.01-0.03
		c-0.3-0.65-0.84-1.15-1.38-1.63c-0.87-0.77-1.78-1.57-1.55-3.02c0.17-0.15,0.38-0.26,0.58-0.38c0.32-0.18,0.63-0.38,0.83-0.69
		c0.01-0.01,0.01-0.02,0.02-0.02c0.05-0.08,0.09-0.17,0.12-0.27c0-0.01,0-0.03,0.01-0.04c0.03-0.1,0.06-0.2,0.06-0.32
		c0.05-0.39-0.22-0.51-0.53-0.6l-0.8-0.59c0.01-0.11-0.01-0.21-0.02-0.31c0-0.01,0-0.03,0-0.04c-0.07-0.56-0.41-0.99-0.76-1.39
		c-0.12-0.14-0.24-0.28-0.35-0.42c-0.11-0.08-0.22-0.16-0.31-0.26c-0.01-0.01-0.03-0.03-0.05-0.04c-0.31-0.3-0.55-0.67-0.77-1.03
		c-0.18-0.29-0.37-0.58-0.6-0.84l-1.6-2.24c-0.08-0.08-0.18-0.14-0.28-0.21c-0.18-0.12-0.36-0.25-0.5-0.45
		c-0.05-0.08-0.1-0.16-0.13-0.27c0.77-0.18,1.14-0.77,1.5-1.34c0.23-0.36,0.46-0.73,0.79-1l0.25-0.07c0.07,0.01,0.14,0.01,0.21,0.01
		c0.59,0,1.07-0.17,1.48-0.52c0.09-0.11,0.19-0.21,0.29-0.31c0.02-0.01,0.03-0.03,0.04-0.04c0.34-0.31,0.73-0.54,1.11-0.77
		c0.34-0.2,0.69-0.41,1-0.66c0.48,0,0.67-0.35,0.82-0.72c0-0.09,0-0.17,0-0.24c0.48-0.4,0.99-0.92,1.14-1.68
		c0.24-0.2,0.48-0.41,0.55-0.7c0.07,0,0.12-0.01,0.18-0.02c0.25-0.12,0.51-0.21,0.77-0.31c0.15-0.05,0.3-0.11,0.45-0.17l0.27-0.03
		l0.24,0.08c0.34,0.11,0.69,0.22,0.98,0.54c0.24,0.27,0.54,0.41,0.87,0.41c0.06,0,0.12-0.03,0.18-0.04
		c0.04-0.01,0.08-0.01,0.12-0.02c0.11-0.03,0.23-0.07,0.34-0.13c0.07-0.03,0.13-0.07,0.19-0.12c0.04-0.03,0.09-0.05,0.13-0.08
		c-0.02-0.29,0.09-0.56,0.19-0.82c0.14-0.35,0.28-0.71,0.13-1.1c0.17-1-0.15-1.52-1.18-1.92c-0.42-0.16-0.85-0.24-1.31-0.24
		c-0.74,0-1.45,0.21-2.13,0.41c-0.49,0.15-1.01,0.3-1.53,0.37l-0.67,0.77c-0.06,0-0.12,0.02-0.15,0.06l-0.78-0.01
		c-0.43-0.01-0.86-0.01-1.29-0.01c-0.22,0-0.44,0-0.68,0.01l-0.27-0.01c-0.16,0-0.34,0.02-0.45,0.13c-0.09,0.09-0.13,0.24-0.12,0.44
		l-0.02,0.13l-0.01,0.12c-0.69,0.52-1.32,0.78-1.9,0.78c-0.68,0-1.32-0.35-1.95-1.07l-0.28-0.03c-0.13-0.06-0.24-0.09-0.34-0.09
		c-0.22,0-0.37,0.15-0.44,0.44l-0.4,0.29l-0.31,0.03c-0.77,0.33-1.18,0.92-1.21,1.76c0,0.09,0.02,0.18,0.06,0.28
		c-0.13,0.14-0.28,0.26-0.42,0.39c-0.35,0.29-0.71,0.59-0.77,1.08c-0.07,0.08-0.14,0.16-0.2,0.26c-0.04,0.09-0.07,0.18-0.08,0.27
		c-0.2,0.04-0.4,0.06-0.59,0.06c-0.23,0-0.45-0.03-0.66-0.07c-0.05-0.11-0.12-0.19-0.21-0.26c-0.06-0.02-0.11-0.03-0.2-0.03
		c-0.01,0-0.02,0-0.03,0l-0.19-0.06c-0.67-0.21-1.3-0.41-1.47-1.22c-0.06-0.14-0.15-0.26-0.24-0.38c-0.15-0.21-0.31-0.43-0.31-0.73
		c-0.07-0.08-0.08-0.18-0.09-0.28c-0.01-0.11-0.03-0.22-0.11-0.31c-0.05-0.03-0.1-0.05-0.16-0.05c-0.03,0-0.05,0-0.08,0.01
		l0.04-0.05c0.05-0.22,0-0.43-0.13-0.61c-0.25-0.25-0.59-0.36-0.92-0.47c-0.51-0.16-1.03-0.33-1.23-1.01
		c-0.73-2.47-1.17-5.33,1.15-7.81c0.52-0.62,1.14-0.7,1.62-0.7c0.26,0,0.52,0.02,0.78,0.05c0.22,0.02,0.44,0.04,0.71,0.05
		c0.08,0,0.16-0.02,0.24-0.06c0.03-0.01,0.05,0,0.08-0.01c0.01-0.01,0.03-0.03,0.04-0.04c0.19,0.44,0.56,0.5,0.9,0.5
		c0.08,0,0.16,0,0.25-0.01c0.08-0.04,0.15-0.08,0.2-0.13c0.17,0.15,0.33,0.23,0.5,0.23c0.25,0,0.47-0.17,0.68-0.33
		c0.16-0.12,0.32-0.25,0.51-0.31c0.02-0.04,0.02-0.08,0.09-0.18c0.16,0.05,0.32,0.1,0.48,0.16c0.37,0.13,0.75,0.27,1.12,0.27
		c0.08,0,0.15-0.03,0.23-0.04c0.01,0,0.01,0,0.02,0c0.21-0.04,0.42-0.11,0.59-0.26l0.3,0.07c0.19,0.03,0.39,0.04,0.58,0.04
		c0.14,0,0.28-0.01,0.42-0.02c0.12-0.02,0.24-0.04,0.34-0.08c0.36,0.18,0.64,0.27,0.93,0.27c0.18,0,0.36-0.04,0.52-0.11
		c0.03,0.03,0.07,0.03,0.1,0.05c0.04,0.02,0.08,0.05,0.13,0.06c0.04,0.02,0.07,0.05,0.12,0.06c0.16,0.04,0.33,0.06,0.52,0.06
		c0.27,0,0.55-0.04,0.82-0.08l0.27-0.04c0.16-0.09,0.28-0.19,0.35-0.29l2.57-0.2l1.92-0.04c0.04,0.05,0.08,0.1,0.14,0.16
		c0.19,0.04,0.39,0.05,0.58,0.05c0.11,0,0.56-0.01,0.67-0.01c0.24,0,0.53,0.01,0.82,0.12c0.25,0.11,0.45,0.33,0.63,0.54
		c0.27,0.3,0.54,0.62,0.99,0.62c0.11,0,0.22-0.02,0.33-0.05l0.27,0.01c0.43,0.01,0.85,0.03,1.28,0.05c0.48,0.03,0.95,0.05,1.43,0.05
		c1.03,0,1.82-0.13,2.55-0.42c0.16-0.03,0.31-0.03,0.47-0.03l0.31,0c0.28,0,0.61-0.01,0.9-0.17c0.08,0.01,0.17,0.01,0.25,0.01
		c0.1,0,0.18-0.03,0.27-0.05c0.03,0,0.05-0.01,0.08-0.01c0.08-0.02,0.16-0.05,0.23-0.09c0.02-0.01,0.04-0.03,0.07-0.05
		c0.07-0.04,0.14-0.08,0.2-0.14c1.14-0.38,1.69-1.35,2.17-2.21l0.11-0.2c0.28-0.5,0.56-1.01,1.07-1.28c1.52-0.8,2.06-2.25,2.59-3.66
		l0.14-0.4c0.51-0.11,0.82-0.29,0.95-0.55c0.18-0.35-0.01-0.79-0.19-1.22c-0.07-0.16-0.14-0.33-0.2-0.49
		c-0.13-0.09-0.26-0.18-0.39-0.27c-0.41-0.3-0.83-0.61-1.35-0.61c-0.16,0-0.32,0.03-0.5,0.09l-0.32,0.43
		c-0.2,0.21-0.38,0.45-0.56,0.68c-0.49,0.64-0.99,1.31-1.97,1.37c-0.15,0.01-0.33,0.23-0.41,0.38c-0.31,0.6-0.82,1.01-1.32,1.4
		c-0.2,0.16-0.4,0.32-0.59,0.49c-1.06,0.97-2.07,1.55-3.1,1.79c-0.03,0.01-0.06,0.01-0.09,0.02c-0.34,0.07-0.67,0.11-1.02,0.11
		c0,0,0,0-0.01,0c-0.24,0-0.49-0.02-0.74-0.05c-0.02,0-0.04-0.01-0.06-0.01c-0.78-0.12-1.62-0.4-2.55-0.86
		c-0.25-0.21-0.52-0.32-0.84-0.32c-0.2,0-0.41,0.04-0.66,0.13c-0.16,0.1-0.25,0.21-0.29,0.34l-1.54,0.71l-2.76-0.56
		c-0.32-0.32-0.69-0.36-0.98-0.36c-0.16,0-0.33,0.02-0.49,0.03l-0.12,0.02c-0.13-0.11-0.3-0.14-0.47-0.17
		c-0.22-0.04-0.44-0.07-0.56-0.28l0.01-0.06l0.03-0.05l-0.03,0.03l0.01-0.04l-0.05,0.08l-0.2,0l-0.18,0.01
		c-0.01-0.04-0.02-0.08-0.05-0.14c-0.52-0.36-1.1-0.56-1.61-0.7c-0.26,0.02-0.52,0.06-0.78,0.09c-0.37,0.05-0.74,0.1-1.1,0.1
		c-0.61,0-1.08-0.15-1.5-0.49c-0.13-0.11-0.25-0.23-0.37-0.38c-0.01,0-0.01,0-0.02,0c-0.01-0.01-0.01-0.01-0.02-0.02l-0.08-0.02
		c0-0.04-0.01-0.09-0.03-0.14l-0.55,0.01l-0.55,0.01c-0.05-0.05-0.09-0.07-0.15-0.07c-0.04,0-0.08,0.01-0.1,0.04
		c-0.7-0.48-1.47-0.52-2.19-0.52l-0.6,0c-0.19,0-0.39,0-0.58-0.02c-0.37,0.08-0.43,0.36-0.47,0.63c-0.02,0.09-0.03,0.19-0.06,0.27
		c0,0-0.11,1.01-0.11,1.01l-0.19,0.32l-0.6,0.5c-0.03-0.01-0.06-0.01-0.09-0.01c-0.3,0-0.41,0.24-0.52,0.47
		c-0.22,0.47-0.5,0.94-0.97,0.94c-0.06,0-0.11-0.01-0.17-0.02c-0.45-0.1-0.43-0.51-0.41-0.9c0.01-0.14,0.01-0.27-0.01-0.4
		c-0.24-0.19-0.48-0.29-0.73-0.29c-0.21,0-0.44,0.07-0.67,0.23c-0.02,0.05-0.04,0.07-0.11,0.07c-0.01,0-0.03,0-0.05,0
		c-0.41,0.16-0.4,0.5-0.39,0.9l0.13,0.23l-0.21,0.13c-0.34,0.22-0.69,0.45-0.92,0.8c-0.18,0.03-0.25,0.16-0.31,0.29
		c-0.02,0.04-0.05,0.09-0.08,0.14c0.08,0.44-0.17,0.69-0.43,0.96c-0.18,0.18-0.36,0.37-0.43,0.61c-0.1,0.15-0.2,0.29-0.31,0.44
		c-0.51,0.71-1.02,1.45-0.58,2.25c0.04,0.08,0.1,0.16,0.16,0.25c0.03,0.04,0.07,0.08,0.1,0.12c0.1,0.11,0.21,0.22,0.34,0.33
		c-0.08,0.06-0.17,0.09-0.28,0.09c-0.13,0-0.26-0.03-0.39-0.07s-0.28-0.08-0.42-0.08c-0.26,0-0.45,0.14-0.61,0.44
		c-0.28,0.54-0.06,0.89,0.14,1.22c0.07,0.12,0.15,0.24,0.2,0.36c0.28,1.6,0.41,3.13-1.01,4.34c-0.13,0.11-0.16,0.27-0.19,0.43
		c-0.03,0.15-0.06,0.31-0.19,0.44l-0.01,0.57l-0.59,1.08c-1.4,1.39-1.75,3.54-0.88,5.33l0.02,0.55l0.04,0.7
		c-1.34,0.79-1.37,2.15-1.38,3.34c-0.09,0.11-0.12,0.23-0.09,0.33c-0.31,0.87-1.12,1.29-1.9,1.65
		C185.93,90.37,185.86,90.37,185.78,90.38z M216.69,78.01c-0.02,0.01-0.05,0.02-0.07,0.02c-0.05,0-0.11-0.03-0.18-0.08
		c0.07,0.02,0.13,0.03,0.19,0.04C216.66,78,216.67,78.01,216.69,78.01z M221.38,76.14c0.03-0.05,0.07-0.11,0.1-0.16l0.04,0.03
		c-0.02,0.04-0.05,0.06-0.08,0.09C221.41,76.11,221.4,76.13,221.38,76.14z"/>
	<path d="M271.67,80.08c0.19,0.02,0.37,0.03,0.56,0.03c0.42,0,0.73-0.08,1.05-0.26l0.12-0.05c0.02,0,0.04-0.01,0.05-0.01
		c0,0,0,0-0.01-0.01l0.02-0.01l-0.17-0.15c-0.18-0.65-0.59-0.74-1.01-0.74c-0.11,0-0.21,0.01-0.32,0.01
		c-0.11,0.01-0.21,0.01-0.36,0.01c0,0-0.01,0-0.01,0c-0.38,0-0.57,0.19-0.58,0.6C270.99,79.98,271.32,80.05,271.67,80.08z"/>
	<path d="M200.38,126.76c0.12,0,0.25-0.02,0.4-0.07l0.54-0.62c0.05-0.36,0.01-0.63-0.14-0.8c-0.12-0.14-0.31-0.21-0.62-0.21
		c0,0-0.01,0-0.01,0c-0.26,0.01-0.47,0.1-0.63,0.21c-0.01,0.01-0.02,0.01-0.03,0.02c-0.03,0.03-0.08,0.04-0.11,0.07
		c-0.12,0.14-0.17,0.32-0.16,0.54C199.67,126.45,199.94,126.76,200.38,126.76z"/>
	<path d="M236.76,49.52c0.02,0.03,0.05,0.04,0.08,0.06c0,0,0.01,0.01,0.01,0.01c0.09,0.06,0.21,0.11,0.39,0.11c0,0,0.09,0,0.09,0
		c0.69-0.05,0.8-0.58,0.82-1.1c0.02-0.44-0.24-0.67-0.79-0.69c-0.25,0.03-0.41,0.1-0.49,0.21c-0.11,0.15-0.07,0.35-0.04,0.54
		c0.03,0.18,0.07,0.37-0.02,0.5C236.73,49.3,236.71,49.42,236.76,49.52z"/>
	<path d="M272.7,131.98c-0.11-0.24-0.23-0.5-0.53-0.59c-0.29-0.35-0.69-0.47-1.08-0.54c-0.12-0.02-0.22-0.02-0.32-0.02
		c-0.3,0-0.5,0.07-0.63,0.21c-0.21,0.23-0.18,0.63-0.14,1.01c0.01,0.15,0.03,0.29,0.03,0.44c0.2,0.91,0.5,1.32,0.95,1.32
		c0.27,0,0.6-0.15,1-0.45l0.1-0.01c0.17-0.02,0.36-0.04,0.38-0.29l0.29-0.28c0.24-0.19,0.15-0.41,0.06-0.57
		C272.77,132.14,272.74,132.06,272.7,131.98z"/>
	<path d="M253.61,128.9c-0.09,0-0.18-0.02-0.27-0.03c-0.11-0.02-0.21-0.04-0.31-0.04c-0.24,0-0.4,0.1-0.52,0.35
		c0.13,0.2,0,0.4-0.13,0.58c-0.1,0.15-0.2,0.3-0.17,0.45c0.02,0.09,0.08,0.18,0.2,0.26c0.13,0.09,0.35,0.15,0.58,0.15
		c0.19,0,0.36-0.04,0.47-0.1c0.49-0.28,0.37-0.68,0.26-1.06C253.67,129.27,253.62,129.08,253.61,128.9z"/>
	<path d="M150.8,125.14c-0.12,0-0.26,0.05-0.41,0.14c-0.38,0.23-0.59,0.46-0.62,0.71c-0.03,0.22,0.07,0.46,0.32,0.71
		c0.09,0.03,0.16,0.03,0.24,0.04c0.03,0.01,0.05,0.01,0.08,0.01c0.08,0.01,0.17,0.04,0.24,0.04c0.28,0,0.48-0.11,0.62-0.32
		c0.04-0.05,0.07-0.11,0.1-0.18c0.01-0.02,0.01-0.03,0.02-0.05c0.04-0.1,0.07-0.22,0.09-0.35c-0.01-0.01-0.01-0.02-0.02-0.03
		c0-0.01,0-0.02,0.01-0.03C151.3,125.49,151.14,125.14,150.8,125.14z"/>
	<path d="M107.33,47.85c0.04,0,0.08,0,0.12-0.01c0.52-0.08,0.73-0.52,0.9-0.95c-0.15-0.32-0.34-0.67-0.64-0.67
		c-0.04,0-0.08,0.01-0.13,0.02c-0.42,0.13-0.85,0.48-0.88,0.97c-0.01,0.16,0.04,0.32,0.15,0.43
		C106.96,47.78,107.14,47.85,107.33,47.85z"/>
	<path d="M197.66,120.33c-0.05,0.16,0.06,0.37,0.31,0.62c0.09,0.06,0.17,0.16,0.25,0.25c0.15,0.17,0.3,0.34,0.52,0.34
		c0.11,0,0.23-0.04,0.37-0.14l0.09-1.32c0.74-1.39,0.7-1.89-0.36-4.89c-0.8,0.24-0.93,0.91-0.96,1.53c-0.06,1.23,0.03,2.31,0.3,3.26
		C197.88,120.06,197.7,120.18,197.66,120.33z"/>
	<path d="M279.63,100.79c0.23,0,0.38-0.02,0.47-0.12c0.16-0.16,0.14-0.53,0.11-1.4c0.43-0.46,0.56-0.89,0.4-1.31
		c-0.14-0.37-0.48-0.69-0.8-0.99l-0.21-0.2c-0.11-0.1-0.22-0.2-0.33-0.29c-0.3-0.25-0.58-0.49-0.74-0.89
		c-0.8-2.01-1.78-2.69-3.9-2.69h-0.16c-0.77,0-1.53-0.02-2.27-0.31l-1.07-0.29c-0.15-0.24-0.38-0.28-0.62-0.32
		c-0.19-0.03-0.37-0.06-0.51-0.18c0.02-0.09,0.02-0.18-0.01-0.29c-0.29-0.13-0.59-0.25-0.87-0.25c-0.33,0-0.59,0.15-0.81,0.47
		l-0.56,0.71c-0.13,0.04-0.25,0.14-0.37,0.23c-0.16,0.12-0.31,0.24-0.46,0.24c-0.08,0-0.16-0.03-0.24-0.1
		c-0.86-0.77-1.83-0.87-2.67-0.87c-0.28,0-0.57,0.01-0.85,0.03c-0.28,0.01-0.57,0.03-0.85,0.03c-0.17,0-0.34,0-0.51-0.02
		c-0.32-0.02-0.64-0.04-0.95-0.04c-1.2,0-2.52,0.22-3.24,1.89c-0.06,0.14-0.23,0.23-0.4,0.32c-0.08,0.04-0.16,0.09-0.23,0.14
		l-2.49,0.82c-0.65,0.09-1.04,0.19-1.16,0.43c-0.11,0.22,0.03,0.55,0.29,1.01c0.18,0.01,0.38,0.11,0.58,0.21
		c0.21,0.1,0.43,0.21,0.62,0.21c0.31,0,0.5-0.28,0.59-0.89c0.02-0.03,0.27-0.07,0.66-0.07c0.13,0,0.26,0.01,0.36,0.02
		c0.34,0.04,0.33,0.29,0.32,0.54c0,0.07-0.01,0.14,0,0.2c0.02,0.29,0.01,0.57,0,0.86c-0.02,0.57-0.05,1.16,0.2,1.71
		c-0.03,0.23-0.03,0.53,0.12,0.7c0.07,0.08,0.16,0.12,0.28,0.12c0.09,0,0.21-0.03,0.33-0.08c0.2-0.08,0.38-0.12,0.56-0.12
		c0.18,0,0.36,0.04,0.58,0.12c0.05,0,0.09,0.01,0.13,0.01c0.56,0,1.05-0.25,1.52-0.49c0.35-0.18,0.7-0.36,1.09-0.44
		c0.11-0.04,0.2-0.08,0.28-0.13l0.13,0.04c0,0,0.31-0.03,0.4-0.05c0.06-0.01,0.11-0.01,0.17-0.01c0.09,0,0.18,0.01,0.27,0.01
		c0.09,0.01,0.18,0.01,0.27,0.01c0.27,0,0.56-0.06,0.7-0.49c0.17-0.54-0.04-1.01-0.63-1.38c-0.04-0.03-0.04-0.13-0.05-0.23
		c0-0.05,0-0.1-0.02-0.12l0.97-0.43l0.95-0.43l0.26,0.3c-0.01,0.29,0.02,0.58,0.38,0.65c0.26,0.05,0.51,0.11,0.77,0.17
		c0.66,0.15,1.34,0.3,2.02,0.39c0.13,0.02,0.26,0.03,0.39,0.03c0.56,0,1.02-0.2,1.46-0.63c0.31-0.3,0.67-0.46,1.03-0.46
		c0.47,0,0.93,0.26,1.32,0.74c0.72,0.89,1.64,1.35,2.71,1.35l0.15-0.01l3.88,2.32C279.38,100.78,279.63,100.79,279.63,100.79z"/>
	<path d="M20.68,60.5c-0.71-0.24-1.07-0.66-1.44-1.31c-0.26-0.45-0.57-0.76-0.93-0.94c0,0,0,0-0.01,0
		c-0.22-0.11-0.46-0.19-0.71-0.19c-0.41,0-0.84,0.15-1.31,0.45c-0.27,0.17-0.52,0.34-0.83,0.34c-0.04,0-0.16,0-0.17,0
		c-0.14,0.28-0.17,0.51-0.09,0.72c0.09,0.24,0.31,0.44,0.73,0.62c0.1,0.1,0.19,0.22,0.28,0.33c0.02,0.02,0.03,0.04,0.05,0.07
		c0.28,0.38,0.5,0.79,0.71,1.2c0.23,0.43,0.46,0.88,0.76,1.28c0.52,0.59,0.95,1.31,1.31,2.2c0.23,0.56,0.63,0.84,1.2,0.84
		c0.15,0,0.32-0.02,0.5-0.06c0.76-0.18,1.12-0.64,1.07-1.37l-0.01-0.1c-0.03-0.37-0.06-0.75,0.1-1.11
		C22.31,62.1,21.82,60.88,20.68,60.5z"/>
	<path d="M10.6,50.23l-0.3-0.29c-0.05-0.09-0.12-0.15-0.18-0.22c-0.04-0.05-0.08-0.11-0.12-0.16c-0.15-0.17-0.32-0.32-0.5-0.45
		c0,0,0,0,0,0c-0.44-0.31-0.95-0.53-1.46-0.72L7.8,48.3c-0.14-0.09-0.29-0.17-0.45-0.25c-0.47-0.24-0.92-0.46-1.02-1.1
		c-0.29-0.35-0.58-0.51-0.89-0.51c-0.44,0-0.85,0.35-1.19,0.7c-0.39,0.39-0.57,0.78-0.55,1.17c0.02,0.38,0.25,0.73,0.66,1.06
		c0.41,0.52,1.01,0.71,1.67,0.91c0.62,0.19,1.25,0.41,1.82,0.77c0.01,0.01,0.02,0.01,0.03,0.02c0.2,0.13,0.39,0.28,0.58,0.45
		c0.04,0.04,0.09,0.08,0.13,0.13c0.08,0.08,0.16,0.16,0.23,0.25c0.3,0.37,0.67,0.58,1.03,0.58c0,0,0,0,0,0
		c0.15,0,0.3-0.04,0.45-0.11c0.5-0.23,0.49-0.69,0.49-1.12c0-0.12,0-0.23,0-0.35c0.01-0.2-0.08-0.39-0.16-0.57L10.6,50.23z"/>
	<path d="M41.69,94.94c0.06-0.04,0.11-0.08,0.15-0.11c0.49-0.53,0.28-0.99,0.01-1.38l-0.14-0.24c-0.25-0.45-0.51-0.91-1.04-1.12
		l-0.48-0.89c-0.14-0.12-0.14-0.29-0.14-0.46c0-0.19,0-0.38-0.18-0.52c-0.13-0.07-0.25-0.17-0.37-0.26c-0.13-0.1-0.27-0.2-0.41-0.28
		c-0.09-0.05-0.18-0.1-0.26-0.16c-0.27-0.17-0.55-0.34-0.84-0.34c-0.18,0-0.35,0.07-0.51,0.2c-0.64,0.54-0.37,1.23-0.02,1.82
		c0.23,0.92,0.7,1.56,1.51,2.06c0.67,0.42,0.99,1.16,1.3,1.88c0.09,0.22,0.19,0.43,0.29,0.64c0.17,0.33,0.38,0.49,0.68,0.49
		c0.1,0,0.21-0.02,0.34-0.06c0.2-0.06,0.31-0.14,0.33-0.24c0.04-0.15-0.13-0.32-0.29-0.47c-0.12-0.11-0.18-0.21-0.17-0.29
		C41.45,95.11,41.58,95.02,41.69,94.94z"/>
	<path d="M37.24,88.29c-0.07-0.13-0.14-0.24-0.11-0.38c-0.1-0.15-0.19-0.31-0.28-0.46c-0.21-0.35-0.42-0.71-0.7-1.01
		c-0.37-0.4-0.82-0.63-1.25-0.63c-0.18,0-0.35,0.04-0.52,0.11c-0.51,0.23-0.41,0.71-0.32,1.14c0.03,0.13,0.05,0.25,0.06,0.37
		c0.03,0.38,0.31,0.45,0.59,0.51c0.15,0.04,0.31,0.09,0.46,0.19c0.01,0.01,0.02,0.01,0.03,0.02c0.01,0,0.01,0,0.02,0
		c0.01,0.01,0.02,0.01,0.02,0.01c0.25,0,0.43,0.16,0.59,0.31c0.11,0.1,0.23,0.21,0.38,0.27c0.08,0.03,0.15,0.08,0.23,0.13
		c0.14,0.08,0.28,0.17,0.43,0.17c0.11,0,0.22-0.05,0.33-0.14C37.46,88.68,37.35,88.48,37.24,88.29z"/>
	<path d="M55.24,111.39l-0.14,0.01c-0.03,0.02-0.06,0.03-0.11,0.03c-0.05,0-0.11-0.01-0.17-0.02c-0.07-0.01-0.14-0.03-0.21-0.03
		c-0.18,0-0.29,0.09-0.34,0.3c-0.09,0.37,0.18,0.56,0.44,0.73c0.06,0.04,0.11,0.08,0.17,0.12c0.13,0.1,0.26,0.2,0.39,0.29
		c0.24,0.18,0.48,0.35,0.7,0.55c0.06,0.05,0.11,0.1,0.17,0.16c0.17,0.17,0.34,0.34,0.55,0.34c0.14,0,0.28-0.07,0.43-0.23
		c0.45-0.45,0.45-1.02,0-1.51C56.66,111.63,56.05,111.39,55.24,111.39z"/>
	<path d="M26.08,68.82c0.14,0.53,0.49,0.78,1.12,0.78h0.17c0.44,0,0.88,0.01,1.31,0.02l0.67,0.02c0.01,0,0.02-0.01,0.02-0.02
		c0.09-1.15-0.6-1.22-1.28-1.29c-0.22-0.02-0.45-0.05-0.65-0.11l-0.82,0.05C26.33,68.36,26.15,68.54,26.08,68.82z"/>
	<path d="M16.75,54.39l0.02,0c0.43-0.1,0.51-0.46,0.58-0.8c0.01-0.07,0.03-0.14,0.05-0.21c-0.06-0.82-0.45-1.23-1.18-1.23l-0.2,0.01
		l-0.31-0.01c-0.27,0-0.52,0.06-0.54,0.52c-0.01,0.17,0.39,0.68,0.78,1.09C16.08,53.9,16.56,54.39,16.75,54.39z"/>
	<path d="M32.64,82.38l-0.58-0.62l-0.2-0.2l0.02-0.32l-0.69-1.32c0.03-0.09,0.03-0.17-0.01-0.21c-0.03-0.05-0.1-0.07-0.18-0.07
		c0,0-0.01,0-0.01,0c-0.23-0.13-0.24-0.36-0.24-0.59c-0.03-0.02-0.07-0.03-0.11-0.03c-0.03,0-0.07,0.01-0.11,0.02c0,0,0,0,0,0
		c0.13-0.72-0.36-1.08-0.84-1.4c0.07-0.24-0.05-0.42-0.16-0.59c-0.05-0.07-0.1-0.14-0.14-0.22c-0.04-0.01-0.09-0.01-0.13-0.01
		c-0.25,0-0.45,0.15-0.64,0.29c-0.19,0.14-0.37,0.28-0.63,0.28c0,0,0,0,0,0c-0.66,0-1.02,0.36-1.12,1.12l-0.32,0.55
		c-0.18,0.27-0.17,0.55,0.04,0.86l0.28,0.28c-0.05,0.47,0.25,0.7,0.53,0.93c0.09,0.07,0.18,0.14,0.25,0.22l0.18,0.46
		c-0.03,0.52,0.03,1.08,0.67,1.31l0.03,0.19l0.04,0.21l1.82,1c0.03,0.07,0.05,0.15,0.07,0.23c0.2,0.19,0.39,0.28,0.57,0.28
		c0.21,0,0.41-0.14,0.58-0.42l0.56-0.5c0.78-0.21,0.67-0.69,0.56-1.14C32.68,82.76,32.63,82.56,32.64,82.38z"/>
	<path d="M26.87,56.83c-0.09-0.06-0.18-0.13-0.25-0.22l-0.18-0.04c-0.17-0.04-0.35-0.08-0.53-0.08c-0.15,0-0.29,0.03-0.43,0.09
		c-0.25,0.38-0.32,0.61-0.24,0.76c0.01,0.02,0.04,0.03,0.06,0.05c0,0,0.01,0.01,0.01,0.01c0.08,0.07,0.21,0.12,0.42,0.12
		c0.07,0,0.15,0,0.23-0.01c0.27-0.03,0.54-0.03,0.81-0.04l0.39-0.02C27.27,57.11,27.06,56.97,26.87,56.83z"/>
	<path d="M26.59,74.63c0.2-0.21,0.45-0.47,0.28-0.85l0.01-0.15c0.03-0.53,0.07-1.08-0.23-1.58c0.06-0.9-0.47-1.53-0.88-1.93
		c-0.2-0.2-0.44-0.3-0.71-0.3c-0.22,0-0.47,0.07-0.71,0.2c-0.12,0.07-0.19,0.14-0.21,0.22c-0.02,0.11,0.07,0.22,0.15,0.32
		c0.09,0.11,0.18,0.22,0.15,0.35c0,0.01,0,0.02-0.01,0.03l0,0c0,0.01,0,0.01,0,0.02c0.05,0.01,0.09,0.02,0.14,0.02
		c0.18,0.02,0.36,0.05,0.39,0.29c-0.06,0.13-0.03,0.27,0,0.4c0.03,0.16,0.06,0.31-0.05,0.47c-0.03,0.2-0.1,0.39-0.16,0.59
		c-0.14,0.43-0.28,0.87-0.11,1.34c-0.01,0.25,0.04,0.43,0.1,0.57c0.01,0.01,0.01,0.03,0.02,0.04c0.02,0.04,0.03,0.09,0.06,0.12
		c0.1,0.1,0.24,0.15,0.43,0.15c0.12,0,0.25-0.02,0.38-0.03c0.13-0.02,0.25-0.03,0.37-0.03c0.12,0,0.21,0.02,0.31,0.05l0.26-0.05
		C26.66,74.79,26.65,74.7,26.59,74.63z"/>
	<path d="M239.04,134.06c-0.6,0.02-0.99,0.37-1.13,1.01c-0.04,0.19-0.01,0.37,0.05,0.51c0,0,0,0,0,0c0.02,0.03,0.02,0.08,0.04,0.1
		c0.07,0.09,0.16,0.13,0.28,0.13c0,0,0.05,0,0.05,0c0.61-0.06,1.08-0.45,1.27-1.05c0.02-0.25-0.03-0.43-0.14-0.55
		C239.36,134.11,239.23,134.06,239.04,134.06C239.04,134.06,239.04,134.06,239.04,134.06z"/>
	<path d="M210.19,109.51c-0.07-0.02-0.13-0.03-0.19-0.03c-0.26,0-0.43,0.17-0.59,0.34c-0.1,0.1-0.2,0.2-0.33,0.28l-0.08,0.47
		c-0.32,0.5-0.3,0.99,0.05,1.45l0.76,1.13c0.2,0.36,0.48,0.62,0.84,0.76c0,0,0,0,0.01,0c0,0,0.01,0,0.01,0c0,0,0.01-0.01,0.01-0.01
		c0.02-0.08,0.1-0.13,0.18-0.18c0.11-0.07,0.23-0.15,0.2-0.33c-0.01-0.39,0.01-0.76,0.22-1.13c0.06-0.5,0.13-1.02-0.2-1.46
		C211.01,110.26,210.9,109.68,210.19,109.51z"/>
	<path d="M168.98,138.38c0.29-0.25,0.31-0.62,0.28-1.02c0.09-0.04,0.16-0.1,0.21-0.19c0.28-0.44,0.36-0.82,0.27-1.15
		c-0.11-0.38-0.44-0.69-1.05-1c-0.71-0.35-1.36-0.53-1.98-0.53c-0.44,0-0.85,0.08-1.28,0.25c-0.66,0.14-1.06,0.51-1.21,1.1
		l-0.25,0.39l-0.07,0.14c0,0,0,0.01-0.01,0.01l0,0l-0.01,0.02l0.08,0.02c-0.14,0.23-0.12,0.48-0.08,0.67l-0.01,0.14
		c-0.02,0.23-0.04,0.47-0.08,0.69c-0.25,0.67-0.92,0.98-1.56,1.22c0.02,0.35,0.11,0.74,0.56,0.89c0.41,0.47,1,0.51,1.52,0.51l0.39,0
		c0.87,0,1.75-0.02,2.63-0.03l0.98-0.03c0.08,0,0.16,0,0.24,0c0,0,0,0,0,0l0.02,0C168.36,139.75,168.26,139,168.98,138.38z"/>
	<path d="M200.69,147.75l-0.75-0.58l-0.15-0.16c-0.26-0.28-0.54-0.58-0.93-0.69c-0.35-0.45-0.85-0.64-1.34-0.83l-0.29-0.11
		l-0.29-0.35c-0.75-0.91-1.6-1.93-2.49-1.93c-0.09,0-0.18,0.01-0.26,0.03c-0.91,0.22-1.86,0.24-2.78,0.26
		c-1.32,0.03-2.69,0.06-3.95,0.69c-0.72,0.45-1.05,0.82-1.1,1.23c-0.05,0.45,0.26,0.95,1.04,1.69c0.49,0.44,1.04,0.49,1.47,0.49
		c0.21,0,0.42-0.02,0.63-0.03c0.21-0.02,0.42-0.03,0.63-0.03c0.18,0,0.36,0.01,0.54,0.04c0.1,0.02,0.21,0.02,0.31,0.02l0.33,0
		c0.38,0,0.76,0.05,0.9,0.66c0.57,0.71,1.36,1.08,2.24,1.44c0.02,0.24,0.15,0.41,0.38,0.51c0.12,0.83,0.77,1.07,1.39,1.29
		c0.16,0.06,0.32,0.11,0.48,0.18l0.09-0.02l0.08,0.08c0.17,0.1,0.32,0.15,0.45,0.15c0.13,0,0.25-0.04,0.33-0.14
		c0.1,0.13,0.26,0.18,0.4,0.21c0,0,0,0,0,0c0,0,0.95-0.29,0.95-0.29c0.05-0.03,0.09-0.07,0.14-0.1c0.09-0.08,0.19-0.15,0.3-0.19
		c1.37-0.41,2.03-0.82,2.19-1.35c0.01-0.05,0.01-0.1,0.01-0.16c0-0.02,0-0.04,0-0.06C201.7,149.22,201.41,148.62,200.69,147.75z"/>
	<path d="M209.91,151.95c-0.08,0-0.16,0.01-0.26,0.02c-0.05,0.05-0.11,0.09-0.16,0.14c-0.12,0.1-0.24,0.2-0.33,0.33
		c-0.12,0.18-0.37,0.3-0.6,0.41c-0.28,0.13-0.54,0.25-0.62,0.48c-0.05,0.14-0.02,0.3,0.08,0.49c0.14,0.27,0.4,0.4,0.79,0.4
		c0.27,0,0.56-0.06,0.85-0.12c0.12-0.02,0.24-0.05,0.35-0.07c0.03-0.01,0.06-0.02,0.13-0.04l0.29-0.17
		c0.37-0.15,0.79-0.32,0.75-0.88C210.93,152.27,210.51,151.95,209.91,151.95z"/>
</g>
</svg>
