<?xml version="1.0" encoding="utf-8"?>
<!-- Generator: Adobe Illustrator 24.1.1, SVG Export Plug-In . SVG Version: 6.00 Build 0)  -->
<svg version="1.1" xmlns="http://www.w3.org/2000/svg" xmlns:xlink="http://www.w3.org/1999/xlink" x="0px" y="0px"
	 viewBox="0 0 360 180" enable-background="new 0 0 360 180" xml:space="preserve">
<g id="Layer_1">
</g>
<g id="Layer_2">
	<g>
		<defs>
			<rect id="SVGID_1_" width="360" height="180"/>
		</defs>
		<clipPath id="SVGID_2_">
			<use xlink:href="#SVGID_1_"  overflow="visible"/>
		</clipPath>
		<g clip-path="url(#SVGID_2_)">
			<path d="M138.31,24.65c4.71-1.38,7.79-5.65,7.87-10.31l0.5-0.15c3.35,7.99,9.3,14.18,16.49,17.94c-3.28-0.45-6.65,1.12-8.34,4.2
				c-2.18,3.99-0.72,9,3.27,11.18c3.99,2.18,9,0.72,11.18-3.27c1.78-3.24,1.14-7.16-1.3-9.68l0.16-0.29
				c6.76,2.33,14.25,2.66,21.55,0.57l1.86,5.01c-3.69,2.85-5.28,7.87-3.57,12.48c2.11,5.66,8.4,8.55,14.07,6.44
				c5.66-2.11,8.55-8.4,6.44-14.07c-1.71-4.6-6.19-7.37-10.85-7.12l-1.89-5.07c5.07-2.49,9.32-6.07,12.59-10.33
				c1,2.08,2.7,3.83,4.97,4.87c5.16,2.36,11.27,0.1,13.63-5.07c2.36-5.16,0.1-11.27-5.07-13.63c-2.24-1.03-4.66-1.17-6.87-0.6
				c1.23-5.76,1.07-11.88-0.74-17.86c0.91-0.12,1.82-0.39,2.68-0.84c4.05-2.08,5.64-7.04,3.56-11.09
				c-2.08-4.05-7.04-5.64-11.09-3.56c-1.03,0.53-1.9,1.24-2.59,2.08c-4.74-5.38-10.96-9.18-17.78-10.99
				c4.44-0.49,8.3-3.69,9.42-8.27c1.43-5.87-2.16-11.79-8.04-13.23c-5.87-1.43-11.79,2.16-13.23,8.04
				c-1.16,4.77,0.99,9.57,4.99,11.98l-0.09,0.35c-4.89-0.31-9.93,0.36-14.82,2.18c-0.9,0.33-1.76,0.71-2.61,1.1
				c-0.21-1.27-0.65-2.53-1.36-3.7c-2.95-4.85-9.27-6.4-14.13-3.45c-4.85,2.95-6.4,9.27-3.45,14.13c1.24,2.04,3.08,3.49,5.15,4.27
				c-6.02,8.17-8.48,18.74-6.19,29.09l-0.36,0.1c-2.58-3.89-7.48-5.83-12.19-4.45c-5.8,1.7-9.13,7.77-7.43,13.57
				C126.43,23.02,132.51,26.34,138.31,24.65z"/>
			<path d="M74.47,52.82c-4.88-0.35-9.25,2.57-10.94,6.91l-12.22-0.87c-0.39-5.64-2.67-10.76-6.23-14.73l8.3-7.19
				c2.98,1.85,6.92,1.64,9.71-0.77c3.43-2.97,3.8-8.16,0.83-11.59c-2.97-3.43-8.16-3.8-11.59-0.83c-2.79,2.41-3.55,6.29-2.15,9.5
				l-8.73,7.56c-3.29-2.45-7.2-4.09-11.47-4.65V20.11c4.44-1.38,7.67-5.52,7.67-10.42c0-6.03-4.89-10.91-10.91-10.91
				c-6.03,0-10.91,4.89-10.91,10.91c0,4.9,3.23,9.04,7.67,10.42v16.05c-4.44,0.58-8.51,2.35-11.88,4.98l-4.6-4.6
				c2.03-3.87,1.43-8.77-1.83-12.02c-4-4-10.5-4-14.5,0c-4,4-4,10.5,0,14.5c3.25,3.25,8.15,3.86,12.02,1.83l4.6,4.6
				c-3.25,4.17-5.2,9.42-5.2,15.12c0,0.8,0.04,1.6,0.12,2.38l-5.17,0.62c-1.43-3.2-4.81-5.24-8.47-4.8
				c-4.5,0.54-7.72,4.62-7.18,9.13c0.54,4.5,4.62,7.72,9.13,7.18c3.66-0.44,6.47-3.22,7.11-6.66l5.54-0.66
				c1.71,5.6,5.36,10.36,10.17,13.48l-6.36,9.38c-4.45-1.35-9.45,0.27-12.19,4.33c-3.38,4.99-2.07,11.77,2.92,15.15
				c4.99,3.38,11.77,2.07,15.15-2.92c2.75-4.05,2.4-9.3-0.5-12.93l6.91-10.21c2.36,0.75,4.86,1.16,7.47,1.16
				c2.56,0,5.03-0.39,7.35-1.12l1.12,5.81c-3.86,2.06-6.1,6.46-5.23,10.98c1.07,5.56,6.45,9.2,12.01,8.13s9.2-6.45,8.13-12.01
				c-0.87-4.52-4.58-7.77-8.93-8.26l-1.4-7.29c5.66-3.55,9.78-9.33,11.11-16.12l12.16,0.87c1.06,4.53,4.96,8.04,9.85,8.39
				c6.01,0.43,11.23-4.09,11.66-10.11C85.01,58.48,80.48,53.25,74.47,52.82z"/>
			<path d="M115.58,199.1c3.12-3.78,3.26-9.03,0.72-12.92l7.8-9.45c4.82,2.96,10.32,4.06,15.61,3.46l1.05,10.93
				c-3.23,1.35-5.35,4.69-5,8.36c0.43,4.52,4.45,7.83,8.96,7.39c4.52-0.43,7.83-4.45,7.39-8.96c-0.35-3.67-3.07-6.54-6.5-7.26
				l-1.1-11.5c3.9-1.26,7.51-3.5,10.44-6.65l13.08,9.3c-1.45,4.42,0.06,9.45,4.05,12.29c4.91,3.49,11.72,2.34,15.22-2.57
				s2.34-11.72-2.57-15.22c-3.99-2.84-9.24-2.61-12.94,0.21l-13.08-9.3c2.1-3.96,3.02-8.3,2.83-12.57l6.41-1.08
				c1.97,3.9,6.32,6.24,10.86,5.48c5.58-0.94,9.35-6.23,8.41-11.82c-0.94-5.58-6.23-9.35-11.82-8.41c-4.54,0.77-7.87,4.4-8.46,8.74
				l-6.41,1.08c-1.52-5.07-4.66-9.69-9.31-13c-0.65-0.47-1.33-0.89-2.01-1.28l2.49-4.57c3.43,0.69,7.06-0.88,8.83-4.12
				c2.17-3.98,0.71-8.97-3.27-11.15c-3.98-2.17-8.97-0.71-11.15,3.27c-1.77,3.24-1.13,7.14,1.31,9.65l-2.67,4.9
				c-5.56-1.86-11.54-1.64-16.88,0.47l-3.96-10.62c3.68-2.85,5.25-7.86,3.54-12.45c-2.11-5.65-8.39-8.52-14.04-6.41
				c-5.65,2.11-8.52,8.39-6.41,14.04c1.71,4.59,6.18,7.34,10.83,7.08l4.31,11.55c-1.98,1.49-3.76,3.29-5.27,5.41
				c-1.48,2.09-2.6,4.33-3.35,6.64l-5.38-2.46c0.55-4.34-1.73-8.71-5.92-10.62c-5.15-2.35-11.24-0.08-13.59,5.07
				c-2.35,5.15-0.08,11.24,5.07,13.59c4.19,1.91,8.99,0.77,11.9-2.49l6.75,3.08c-0.39,6.67,1.94,13.38,6.7,18.4l-7.75,9.4
				c-4.31-1.76-9.43-0.62-12.55,3.16c-3.83,4.65-3.17,11.53,1.47,15.36C104.87,204.41,111.74,203.75,115.58,199.1z"/>
			<path d="M309.38,164.76c-2.94-0.21-5.56,1.55-6.58,4.15l-0.31-0.02c-0.21-5.19-2.26-9.91-5.51-13.52
				c1.75,0.94,3.97,0.76,5.56-0.62c2.06-1.79,2.28-4.9,0.5-6.96c-1.79-2.06-4.9-2.28-6.96-0.5c-1.67,1.45-2.14,3.78-1.29,5.71
				l-0.15,0.13c-3.31-2.72-7.45-4.47-11.98-4.82v-3.2c2.67-0.83,4.61-3.32,4.61-6.26c0-3.62-2.94-6.56-6.56-6.56
				c-3.62,0-6.56,2.94-6.56,6.56c0,2.94,1.94,5.43,4.61,6.26v3.24c-3.37,0.34-6.5,1.46-9.23,3.17c-0.13-1.38-0.72-2.72-1.77-3.77
				c-2.41-2.41-6.31-2.41-8.72,0c-2.41,2.41-2.41,6.31,0,8.72c1.04,1.04,2.37,1.63,3.73,1.77c-1.9,2.98-3.08,6.45-3.32,10.18
				c-0.54-0.12-1.1-0.16-1.68-0.09c-2.71,0.32-4.64,2.78-4.32,5.49c0.32,2.71,2.78,4.64,5.49,4.32c0.69-0.08,1.33-0.3,1.89-0.63
				c1.54,4.01,4.24,7.44,7.69,9.89c-2.6-0.65-5.43,0.34-7.02,2.68c-2.03,3-1.25,7.08,1.75,9.11c3,2.03,7.08,1.25,9.11-1.75
				c1.65-2.44,1.44-5.59-0.3-7.77l0.12-0.18c2.68,1.2,5.65,1.87,8.78,1.87c0.57,0,1.14-0.03,1.7-0.07
				c-0.15,0.76-0.16,1.56-0.01,2.36c0.64,3.34,3.87,5.53,7.22,4.89c3.34-0.64,5.53-3.87,4.89-7.22c-0.27-1.4-1-2.6-2-3.48
				c5.09-3.33,8.68-8.75,9.55-15.05l0.22,0.02c0.64,2.72,2.98,4.83,5.92,5.04c3.61,0.26,6.75-2.46,7.01-6.07
				C315.71,168.16,312.99,165.02,309.38,164.76z"/>
			<path d="M270.43,82.54c4.71-1.38,7.79-5.65,7.87-10.31l0.5-0.15c3.35,7.99,9.3,14.18,16.49,17.94c-3.28-0.45-6.65,1.12-8.34,4.2
				c-2.18,3.99-0.72,9,3.27,11.18c3.99,2.18,9,0.72,11.18-3.27c1.78-3.24,1.14-7.16-1.3-9.68l0.16-0.29
				c6.76,2.33,14.25,2.66,21.55,0.57l1.86,5.01c-3.69,2.85-5.28,7.87-3.57,12.48c2.11,5.66,8.41,8.55,14.07,6.44
				c5.66-2.11,8.55-8.4,6.44-14.07c-1.71-4.6-6.19-7.37-10.85-7.12l-1.89-5.07c5.07-2.49,9.32-6.07,12.59-10.33
				c1,2.08,2.7,3.83,4.97,4.87c5.16,2.36,11.27,0.1,13.63-5.07c2.36-5.16,0.1-11.27-5.07-13.63c-2.24-1.03-4.66-1.17-6.87-0.6
				c1.23-5.76,1.07-11.88-0.74-17.86c0.91-0.12,1.82-0.39,2.68-0.84c4.05-2.08,5.64-7.04,3.56-11.09
				c-2.08-4.05-7.04-5.64-11.09-3.56c-1.03,0.53-1.9,1.24-2.59,2.08C334.22,29,328,25.2,321.18,23.39c4.44-0.49,8.3-3.69,9.42-8.27
				c1.43-5.87-2.16-11.79-8.04-13.23c-5.87-1.43-11.79,2.16-13.23,8.04c-1.16,4.77,0.99,9.57,4.99,11.98l-0.09,0.35
				c-4.89-0.31-9.93,0.36-14.82,2.18c-0.9,0.33-1.76,0.71-2.61,1.1c-0.21-1.27-0.65-2.53-1.36-3.7c-2.95-4.85-9.27-6.4-14.13-3.45
				c-4.85,2.95-6.4,9.27-3.45,14.13c1.24,2.04,3.08,3.49,5.15,4.27c-6.02,8.17-8.48,18.74-6.19,29.09l-0.36,0.1
				c-2.58-3.89-7.48-5.83-12.19-4.45c-5.8,1.7-9.13,7.77-7.43,13.57C258.55,80.91,264.62,84.23,270.43,82.54z"/>
		</g>
	</g>
</g>
</svg>
